<svg width="114" height="94" viewBox="0 0 114 94" fill="none" xmlns="http://www.w3.org/2000/svg">
<g clip-path="url(#clip0_1_2)">
<path d="M18.08 88.28L19.1489 86.5896L18.08 88.28ZM5.23999 73.4L3.42537 74.2409L3.43158 74.2543L3.43799 74.2676L5.23999 73.4ZM5.23999 26.72L3.43384 25.861L3.42934 25.8706L5.23999 26.72ZM18.08 11.72L19.1489 13.4104L18.08 11.72ZM55.28 11.72L54.2111 13.4104L55.28 11.72ZM68 26.72L66.1854 27.5609L66.1916 27.5743L66.198 27.5876L68 26.72ZM68 73.4L66.1938 72.541L66.1894 72.5506L68 73.4ZM55.28 88.28L54.2111 86.5896L55.28 88.28ZM48.68 70.4L47.0206 69.2836L47.0135 69.2941L47.0066 69.3047L48.68 70.4ZM48.68 29.6L47.0066 30.6953L47.0135 30.7059L47.0206 30.7163L48.68 29.6ZM24.68 29.6L23.0206 28.4836L23.0135 28.4941L23.0066 28.5047L24.68 29.6ZM24.68 70.4L23.0066 71.4953L23.0135 71.5059L23.0206 71.5163L24.68 70.4ZM36.68 91.44C30.0664 91.44 24.243 89.8109 19.1489 86.5896L17.0111 89.9704C22.797 93.6291 29.3736 95.44 36.68 95.44V91.44ZM19.1489 86.5896C14.0617 83.3727 10.0192 78.7157 7.04199 72.5324L3.43799 74.2676C6.70083 81.0443 11.2183 86.3073 17.0111 89.9704L19.1489 86.5896ZM7.05461 72.5591C4.16331 66.32 2.67999 58.8202 2.67999 50H-1.32001C-1.32001 59.2598 0.23667 67.36 3.42537 74.2409L7.05461 72.5591ZM2.67999 50C2.67999 41.1787 4.16365 33.7233 7.05064 27.5694L3.42934 25.8706C0.236337 32.6767 -1.32001 40.7412 -1.32001 50H2.67999ZM7.04612 27.579C10.0253 21.3151 14.068 16.6233 19.1489 13.4104L17.0111 10.0296C11.212 13.6967 6.69468 19.0049 3.43386 25.861L7.04612 27.579ZM19.1489 13.4104C24.243 10.1891 30.0664 8.56 36.68 8.56V4.56C29.3736 4.56 22.797 6.37089 17.0111 10.0296L19.1489 13.4104ZM36.68 8.56C43.2936 8.56 49.117 10.1891 54.2111 13.4104L56.3489 10.0296C50.563 6.37089 43.9864 4.56 36.68 4.56V8.56ZM54.2111 13.4104C59.287 16.6201 63.2865 21.3055 66.1854 27.5609L69.8146 25.8791C66.6335 19.0145 62.153 13.6998 56.3489 10.0296L54.2111 13.4104ZM66.198 27.5876C69.1586 33.7366 70.68 41.1853 70.68 50H74.68C74.68 40.7347 73.0814 32.6634 69.802 25.8524L66.198 27.5876ZM70.68 50C70.68 58.8137 69.159 66.3067 66.1939 72.541L69.8061 74.259C73.0811 67.3733 74.68 59.2663 74.68 50H70.68ZM66.1894 72.5506C63.2926 78.7253 59.2933 83.3759 54.2111 86.5896L56.3489 89.9704C62.1467 86.3041 66.6274 81.0348 69.8107 74.2494L66.1894 72.5506ZM54.2111 86.5896C49.117 89.8109 43.2936 91.44 36.68 91.44V95.44C43.9864 95.44 50.563 93.6291 56.3489 89.9704L54.2111 86.5896ZM36.68 79C42.4965 79 47.116 76.4414 50.3534 71.4953L47.0066 69.3047C44.484 73.1586 41.1036 75 36.68 75V79ZM50.3394 71.5163C53.6315 66.6227 55.12 59.3394 55.12 50H51.12C51.12 59.0606 49.6485 65.3773 47.0206 69.2836L50.3394 71.5163ZM55.12 50C55.12 40.6606 53.6315 33.3773 50.3394 28.4836L47.0206 30.7163C49.6485 34.6227 51.12 40.9394 51.12 50H55.12ZM50.3534 28.5047C47.116 23.5586 42.4965 21 36.68 21V25C41.1036 25 44.484 26.8414 47.0066 30.6953L50.3534 28.5047ZM36.68 21C30.9339 21 26.329 23.5656 23.0206 28.4836L26.3394 30.7164C28.951 26.8344 32.3461 25 36.68 25V21ZM23.0066 28.5047C19.8068 33.3932 18.36 40.667 18.36 50H22.36C22.36 40.933 23.7932 34.6068 26.3534 30.6953L23.0066 28.5047ZM18.36 50C18.36 59.333 19.8068 66.6068 23.0066 71.4953L26.3534 69.3047C23.7932 65.3932 22.36 59.067 22.36 50H18.36ZM23.0206 71.5163C26.329 76.4344 30.9339 79 36.68 79V75C32.3461 75 28.951 73.1656 26.3394 69.2836L23.0206 71.5163ZM113.822 7.99999H115.822V5.99999H113.822V7.99999ZM113.822 92V94H115.822V92H113.822ZM94.3822 92H92.3822V94H94.3822V92ZM94.3822 23.6H96.3822V21.6H94.3822V23.6ZM77.5822 23.6H75.5822V25.6H77.5822V23.6ZM77.5822 7.99999V5.99999H75.5822V7.99999H77.5822ZM111.822 7.99999V92H115.822V7.99999H111.822ZM113.822 90H94.3822V94H113.822V90ZM96.3822 92V23.6H92.3822V92H96.3822ZM94.3822 21.6H77.5822V25.6H94.3822V21.6ZM79.5822 23.6V7.99999H75.5822V23.6H79.5822ZM77.5822 9.99999H113.822V5.99999H77.5822V9.99999Z" fill="url(#paint0_linear_1_2)"/>
</g>
<defs>
<linearGradient id="paint0_linear_1_2" x1="75.5" y1="-24" x2="75.5" y2="122" gradientUnits="userSpaceOnUse">
<stop stop-color="#C6CAD4"/>
<stop offset="1" stop-color="#C6CAD4" stop-opacity="0.14"/>
</linearGradient>
<clipPath id="clip0_1_2">
<rect width="114" height="94" fill="white"/>
</clipPath>
</defs>
</svg>
