<svg width="145" height="94" viewBox="0 0 145 94" fill="none" xmlns="http://www.w3.org/2000/svg">
<g clip-path="url(#clip0_1_4)">
<path d="M18.0805 88.28L19.1494 86.5896L18.0805 88.28ZM5.24049 73.4L3.42587 74.2409L3.43208 74.2543L3.43849 74.2676L5.24049 73.4ZM5.24049 26.72L3.43434 25.861L3.42984 25.8706L5.24049 26.72ZM18.0805 11.72L19.1494 13.4104L18.0805 11.72ZM55.2805 11.72L54.2116 13.4104L55.2805 11.72ZM68.0005 26.72L66.1859 27.5609L66.1921 27.5743L66.1985 27.5876L68.0005 26.72ZM68.0005 73.4L66.1943 72.541L66.1898 72.5506L68.0005 73.4ZM55.2805 88.28L54.2116 86.5896L55.2805 88.28ZM48.6805 70.4L47.021 69.2836L47.014 69.2941L47.0071 69.3047L48.6805 70.4ZM48.6805 29.6L47.0071 30.6953L47.014 30.7059L47.021 30.7163L48.6805 29.6ZM24.6805 29.6L23.021 28.4836L23.014 28.4941L23.0071 28.5047L24.6805 29.6ZM24.6805 70.4L23.0071 71.4953L23.014 71.5059L23.021 71.5163L24.6805 70.4ZM36.6805 91.44C30.0669 91.44 24.2435 89.8109 19.1494 86.5896L17.0116 89.9704C22.7975 93.6291 29.3741 95.44 36.6805 95.44V91.44ZM19.1494 86.5896C14.0622 83.3727 10.0196 78.7157 7.04249 72.5324L3.43849 74.2676C6.70133 81.0443 11.2188 86.3073 17.0116 89.9704L19.1494 86.5896ZM7.05511 72.5591C4.16381 66.32 2.68049 58.8202 2.68049 50H-1.31951C-1.31951 59.2598 0.237164 67.36 3.42587 74.2409L7.05511 72.5591ZM2.68049 50C2.68049 41.1787 4.16415 33.7233 7.05114 27.5694L3.42984 25.8706C0.236831 32.6767 -1.31951 40.7412 -1.31951 50H2.68049ZM7.04662 27.579C10.0258 21.3151 14.0685 16.6233 19.1494 13.4104L17.0116 10.0296C11.2125 13.6967 6.69518 19.0049 3.43436 25.861L7.04662 27.579ZM19.1494 13.4104C24.2435 10.1891 30.0669 8.56 36.6805 8.56V4.56C29.3741 4.56 22.7975 6.37089 17.0116 10.0296L19.1494 13.4104ZM36.6805 8.56C43.2941 8.56 49.1175 10.1891 54.2116 13.4104L56.3494 10.0296C50.5635 6.37089 43.9869 4.56 36.6805 4.56V8.56ZM54.2116 13.4104C59.2875 16.6201 63.287 21.3055 66.1859 27.5609L69.8151 25.8791C66.634 19.0145 62.1535 13.6998 56.3494 10.0296L54.2116 13.4104ZM66.1985 27.5876C69.1591 33.7366 70.6805 41.1853 70.6805 50H74.6805C74.6805 40.7347 73.0819 32.6634 69.8025 25.8524L66.1985 27.5876ZM70.6805 50C70.6805 58.8137 69.1594 66.3067 66.1944 72.541L69.8066 74.259C73.0816 67.3733 74.6805 59.2663 74.6805 50H70.6805ZM66.1898 72.5506C63.2931 78.7253 59.2938 83.3759 54.2116 86.5896L56.3494 89.9704C62.1472 86.3041 66.6279 81.0348 69.8111 74.2494L66.1898 72.5506ZM54.2116 86.5896C49.1175 89.8109 43.2941 91.44 36.6805 91.44V95.44C43.9869 95.44 50.5635 93.6291 56.3494 89.9704L54.2116 86.5896ZM36.6805 79C42.4969 79 47.1165 76.4414 50.3539 71.4953L47.0071 69.3047C44.4845 73.1586 41.104 75 36.6805 75V79ZM50.3399 71.5163C53.632 66.6227 55.1205 59.3394 55.1205 50H51.1205C51.1205 59.0606 49.649 65.3773 47.021 69.2836L50.3399 71.5163ZM55.1205 50C55.1205 40.6606 53.632 33.3773 50.3399 28.4836L47.021 30.7163C49.649 34.6227 51.1205 40.9394 51.1205 50H55.1205ZM50.3539 28.5047C47.1165 23.5586 42.4969 21 36.6805 21V25C41.104 25 44.4845 26.8414 47.0071 30.6953L50.3539 28.5047ZM36.6805 21C30.9344 21 26.3295 23.5656 23.021 28.4836L26.3399 30.7164C28.9515 26.8344 32.3466 25 36.6805 25V21ZM23.0071 28.5047C19.8073 33.3932 18.3605 40.667 18.3605 50H22.3605C22.3605 40.933 23.7936 34.6068 26.3539 30.6953L23.0071 28.5047ZM18.3605 50C18.3605 59.333 19.8073 66.6068 23.0071 71.4953L26.3539 69.3047C23.7936 65.3932 22.3605 59.067 22.3605 50H18.3605ZM23.021 71.5163C26.3295 76.4344 30.9344 79 36.6805 79V75C32.3466 75 28.9515 73.1656 26.3399 69.2836L23.021 71.5163ZM144.183 76.16H146.183V74.16H144.183V76.16ZM144.183 92V94H146.183V92H144.183ZM80.7027 92H78.7027V94H80.7027V92ZM80.7027 79.4L79.3294 77.946L78.7027 78.5379V79.4H80.7027ZM113.103 48.8L114.476 50.254L114.483 50.2475L113.103 48.8ZM120.063 40.4L121.839 41.3188L121.845 41.3067L121.852 41.2944L120.063 40.4ZM118.383 25.64L117.113 27.1854L117.143 27.21L117.174 27.2334L118.383 25.64ZM98.4627 25.04L99.2977 26.8573L99.3177 26.8481L99.3376 26.8385L98.4627 25.04ZM91.0227 31.28L89.9397 32.9614L91.5422 33.9935L92.6501 32.4425L91.0227 31.28ZM76.8627 22.16L75.2028 21.0443L74.065 22.7371L75.7797 23.8414L76.8627 22.16ZM90.4227 10.76L91.2767 12.5685L91.2869 12.5637L91.2971 12.5587L90.4227 10.76ZM126.543 9.67999L125.725 11.505L125.743 11.5134L125.762 11.5215L126.543 9.67999ZM137.463 18.32L135.809 19.4456L135.823 19.4659L135.838 19.4858L137.463 18.32ZM138.543 44.24L140.346 45.1055L138.543 44.24ZM127.383 57.92L126.023 56.4537L126.016 56.4597L126.01 56.4657L127.383 57.92ZM108.063 76.16L106.69 74.7057L103.031 78.16H108.063V76.16ZM142.183 76.16V92H146.183V76.16H142.183ZM144.183 90H80.7027V94H144.183V90ZM82.7027 92V79.4H78.7027V92H82.7027ZM82.0759 80.854L114.476 50.254L111.729 47.346L79.3294 77.946L82.0759 80.854ZM114.483 50.2475C117.974 46.9184 120.486 43.9356 121.839 41.3188L118.286 39.4812C117.24 41.5044 115.111 44.1216 111.723 47.3525L114.483 50.2475ZM121.852 41.2944C123.169 38.6602 123.863 35.9957 123.863 33.32H119.863C119.863 35.2843 119.357 37.3398 118.274 39.5056L121.852 41.2944ZM123.863 33.32C123.863 29.4436 122.491 26.2463 119.591 24.0466L117.174 27.2334C118.914 28.5537 119.863 30.4764 119.863 33.32H123.863ZM119.652 24.0945C116.91 21.8422 113.056 20.88 108.423 20.88V24.88C112.589 24.88 115.375 25.7578 117.113 27.1854L119.652 24.0945ZM108.423 20.88C104.476 20.88 100.851 21.654 97.5877 23.2415L99.3376 26.8385C101.994 25.546 105.01 24.88 108.423 24.88V20.88ZM97.6277 23.2226C94.333 24.7364 91.586 27.0505 89.3952 30.1175L92.6501 32.4425C94.4594 29.9095 96.6724 28.0636 99.2977 26.8573L97.6277 23.2226ZM92.1056 29.5986L77.9456 20.4786L75.7797 23.8414L89.9397 32.9614L92.1056 29.5986ZM78.5226 23.2757C81.5847 18.7199 85.8148 15.1477 91.2767 12.5685L89.5687 8.9515C83.5106 11.8123 78.7007 15.8401 75.2028 21.0443L78.5226 23.2757ZM91.2971 12.5587C96.7438 9.911 103.037 8.56 110.223 8.56V4.56C102.529 4.56 95.6215 6.00899 89.5483 8.96126L91.2971 12.5587ZM110.223 8.56C116.243 8.56 121.393 9.56345 125.725 11.505L127.361 7.85497C122.412 5.63654 116.682 4.56 110.223 4.56V8.56ZM125.762 11.5215C130.175 13.3912 133.492 16.0422 135.809 19.4456L139.116 17.1944C136.313 13.0778 132.35 9.96875 127.323 7.83849L125.762 11.5215ZM135.838 19.4858C138.207 22.7879 139.423 26.7289 139.423 31.4H143.423C143.423 25.9911 141.999 21.2121 139.088 17.1542L135.838 19.4858ZM139.423 31.4C139.423 35.669 138.526 39.6523 136.74 43.3745L140.346 45.1055C142.399 40.8277 143.423 36.251 143.423 31.4H139.423ZM136.74 43.3745C134.978 47.0437 131.469 51.4022 126.023 56.4537L128.743 59.3863C134.337 54.1978 138.267 49.4363 140.346 45.1055L136.74 43.3745ZM126.01 56.4657L106.69 74.7057L109.436 77.6143L128.756 59.3743L126.01 56.4657ZM108.063 78.16H144.183V74.16H108.063V78.16Z" fill="url(#paint0_linear_1_4)"/>
</g>
<defs>
<linearGradient id="paint0_linear_1_4" x1="77.5005" y1="-24" x2="77.5005" y2="122" gradientUnits="userSpaceOnUse">
<stop stop-color="#C6CAD4"/>
<stop offset="1" stop-color="#C6CAD4" stop-opacity="0.14"/>
</linearGradient>
<clipPath id="clip0_1_4">
<rect width="145" height="94" fill="white"/>
</clipPath>
</defs>
</svg>
