<svg width="143" height="94" viewBox="0 0 143 94" fill="none" xmlns="http://www.w3.org/2000/svg">
<g clip-path="url(#clip0_1_6)">
<path d="M18.08 88.28L19.1489 86.5896L18.08 88.28ZM5.24 73.4L3.42538 74.2409L3.43159 74.2543L3.438 74.2676L5.24 73.4ZM5.24 26.72L3.43385 25.861L3.42935 25.8706L5.24 26.72ZM18.08 11.72L19.1489 13.4104L18.08 11.72ZM55.28 11.72L54.2111 13.4104L55.28 11.72ZM68 26.72L66.1854 27.5609L66.1916 27.5743L66.198 27.5876L68 26.72ZM68 73.4L66.1938 72.541L66.1894 72.5506L68 73.4ZM55.28 88.28L54.2111 86.5896L55.28 88.28ZM48.68 70.4L47.0206 69.2836L47.0135 69.2941L47.0066 69.3047L48.68 70.4ZM48.68 29.6L47.0066 30.6953L47.0135 30.7059L47.0206 30.7163L48.68 29.6ZM24.68 29.6L23.0206 28.4836L23.0135 28.4941L23.0066 28.5047L24.68 29.6ZM24.68 70.4L23.0066 71.4953L23.0135 71.5059L23.0206 71.5163L24.68 70.4ZM36.68 91.44C30.0664 91.44 24.243 89.8109 19.1489 86.5896L17.0111 89.9704C22.797 93.6291 29.3736 95.44 36.68 95.44V91.44ZM19.1489 86.5896C14.0617 83.3727 10.0192 78.7157 7.042 72.5324L3.438 74.2676C6.70084 81.0443 11.2183 86.3073 17.0111 89.9704L19.1489 86.5896ZM7.05462 72.5591C4.16332 66.32 2.68 58.8202 2.68 50H-1.32C-1.32 59.2598 0.236678 67.36 3.42538 74.2409L7.05462 72.5591ZM2.68 50C2.68 41.1787 4.16366 33.7233 7.05065 27.5694L3.42935 25.8706C0.236344 32.6767 -1.32 40.7412 -1.32 50H2.68ZM7.04613 27.579C10.0253 21.3151 14.068 16.6233 19.1489 13.4104L17.0111 10.0296C11.212 13.6967 6.69469 19.0049 3.43387 25.861L7.04613 27.579ZM19.1489 13.4104C24.243 10.1891 30.0664 8.56 36.68 8.56V4.56C29.3736 4.56 22.797 6.37089 17.0111 10.0296L19.1489 13.4104ZM36.68 8.56C43.2936 8.56 49.117 10.1891 54.2111 13.4104L56.3489 10.0296C50.563 6.37089 43.9864 4.56 36.68 4.56V8.56ZM54.2111 13.4104C59.287 16.6201 63.2865 21.3055 66.1854 27.5609L69.8146 25.8791C66.6335 19.0145 62.153 13.6998 56.3489 10.0296L54.2111 13.4104ZM66.198 27.5876C69.1586 33.7366 70.68 41.1853 70.68 50H74.68C74.68 40.7347 73.0814 32.6634 69.802 25.8524L66.198 27.5876ZM70.68 50C70.68 58.8137 69.159 66.3067 66.1939 72.541L69.8061 74.259C73.0811 67.3733 74.68 59.2663 74.68 50H70.68ZM66.1894 72.5506C63.2926 78.7253 59.2933 83.3759 54.2111 86.5896L56.3489 89.9704C62.1467 86.3041 66.6274 81.0348 69.8107 74.2494L66.1894 72.5506ZM54.2111 86.5896C49.117 89.8109 43.2936 91.44 36.68 91.44V95.44C43.9864 95.44 50.563 93.6291 56.3489 89.9704L54.2111 86.5896ZM36.68 79C42.4965 79 47.116 76.4414 50.3534 71.4953L47.0066 69.3047C44.484 73.1586 41.1036 75 36.68 75V79ZM50.3394 71.5163C53.6315 66.6227 55.12 59.3394 55.12 50H51.12C51.12 59.0606 49.6485 65.3773 47.0206 69.2836L50.3394 71.5163ZM55.12 50C55.12 40.6606 53.6315 33.3773 50.3394 28.4836L47.0206 30.7163C49.6485 34.6227 51.12 40.9394 51.12 50H55.12ZM50.3534 28.5047C47.116 23.5586 42.4965 21 36.68 21V25C41.1036 25 44.484 26.8414 47.0066 30.6953L50.3534 28.5047ZM36.68 21C30.9339 21 26.329 23.5656 23.0206 28.4836L26.3394 30.7164C28.951 26.8344 32.3461 25 36.68 25V21ZM23.0066 28.5047C19.8068 33.3932 18.36 40.667 18.36 50H22.36C22.36 40.933 23.7932 34.6068 26.3534 30.6953L23.0066 28.5047ZM18.36 50C18.36 59.333 19.8068 66.6068 23.0066 71.4953L26.3534 69.3047C23.7932 65.3932 22.36 59.067 22.36 50H18.36ZM23.0206 71.5163C26.329 76.4344 30.9339 79 36.68 79V75C32.3461 75 28.951 73.1656 26.3394 69.2836L23.0206 71.5163ZM120.193 42.2L118.69 40.8806L116.309 43.5931L119.872 44.1739L120.193 42.2ZM137.113 50.48L135.632 51.824L135.639 51.8309L135.645 51.8377L137.113 50.48ZM139.153 79.88L140.848 80.943L140.852 80.9356L140.857 80.9282L139.153 79.88ZM127.393 89.72L126.543 87.9097L126.533 87.9148L127.393 89.72ZM90.6734 91.16L90.1312 93.0851L90.1471 93.0896L90.1631 93.0938L90.6734 91.16ZM76.1534 84.44L74.3704 83.5341L73.5942 85.0618L74.9848 86.0631L76.1534 84.44ZM83.7134 69.56L84.9134 67.96L83.0088 66.5315L81.9304 68.6541L83.7134 69.56ZM94.7534 75.2L94.132 77.101L94.1536 77.1081L94.1754 77.1147L94.7534 75.2ZM119.233 74.36L120.332 76.0314L120.348 76.0206L120.364 76.0095L119.233 74.36ZM98.8334 56H96.8334V58H98.8334V56ZM98.8334 43.16L97.3346 41.8358L96.8334 42.4031V43.16H98.8334ZM116.113 23.6L117.612 24.9241L120.549 21.6H116.113V23.6ZM80.3534 23.6H78.3534V25.6H80.3534V23.6ZM80.3534 7.99999V5.99999H78.3534V7.99999H80.3534ZM139.153 7.99999H141.153V5.99999H139.153V7.99999ZM139.153 20.6L140.657 21.9194L141.153 21.3533V20.6H139.153ZM119.872 44.1739C126.911 45.3217 132.092 47.9228 135.632 51.824L138.595 49.136C134.295 44.3972 128.196 41.4783 120.515 40.2261L119.872 44.1739ZM135.645 51.8377C139.19 55.6719 140.993 60.4516 140.993 66.32H144.993C144.993 59.5484 142.877 53.7682 138.582 49.1223L135.645 51.8377ZM140.993 66.32C140.993 70.8295 139.816 74.9867 137.45 78.8318L140.857 80.9282C143.611 76.4533 144.993 71.5705 144.993 66.32H140.993ZM137.459 78.817C135.143 82.5093 131.55 85.5581 126.543 87.9097L128.244 91.5303C133.797 88.9219 138.044 85.4107 140.848 80.943L137.459 78.817ZM126.533 87.9148C121.673 90.2324 115.586 91.44 108.193 91.44V95.44C116 95.44 122.714 94.1676 128.254 91.5252L126.533 87.9148ZM108.193 91.44C102.447 91.44 96.7783 90.7025 91.1837 89.2262L90.1631 93.0938C96.0886 94.6575 102.1 95.44 108.193 95.44V91.44ZM91.2157 89.2349C85.7174 87.6861 81.0993 85.5365 77.322 82.8169L74.9848 86.0631C79.2076 89.1035 84.2695 91.4339 90.1312 93.0851L91.2157 89.2349ZM77.9365 85.3459L85.4965 70.4659L81.9304 68.6541L74.3704 83.5341L77.9365 85.3459ZM82.5134 71.16C85.9042 73.7031 89.7835 75.6794 94.132 77.101L95.3749 73.299C91.4034 72.0006 87.9227 70.2169 84.9134 67.96L82.5134 71.16ZM94.1754 77.1147C98.6016 78.4509 103.116 79.12 107.713 79.12V75.12C103.511 75.12 99.3852 74.5091 95.3315 73.2853L94.1754 77.1147ZM107.713 79.12C112.815 79.12 117.088 78.1628 120.332 76.0314L118.135 72.6886C115.778 74.2373 112.372 75.12 107.713 75.12V79.12ZM120.364 76.0095C123.717 73.7106 125.433 70.409 125.433 66.32H121.433C121.433 69.111 120.35 71.1694 118.102 72.7105L120.364 76.0095ZM125.433 66.32C125.433 62.2841 123.846 59.0386 120.601 56.9081C117.502 54.8739 113.109 54 107.713 54V58C112.798 58 116.264 58.8461 118.406 60.2519C120.401 61.5614 121.433 63.4759 121.433 66.32H125.433ZM107.713 54H98.8334V58H107.713V54ZM100.833 56V43.16H96.8334V56H100.833ZM100.332 44.4842L117.612 24.9241L114.615 22.2758L97.3346 41.8358L100.332 44.4842ZM116.113 21.6H80.3534V25.6H116.113V21.6ZM82.3534 23.6V7.99999H78.3534V23.6H82.3534ZM80.3534 9.99999H139.153V5.99999H80.3534V9.99999ZM137.153 7.99999V20.6H141.153V7.99999H137.153ZM137.65 19.2806L118.69 40.8806L121.697 43.5194L140.657 21.9194L137.65 19.2806Z" fill="url(#paint0_linear_1_6)"/>
</g>
<defs>
<linearGradient id="paint0_linear_1_6" x1="75.5" y1="-24" x2="75.5" y2="122" gradientUnits="userSpaceOnUse">
<stop stop-color="#C6CAD4"/>
<stop offset="1" stop-color="#C6CAD4" stop-opacity="0.14"/>
</linearGradient>
<clipPath id="clip0_1_6">
<rect width="143" height="94" fill="white"/>
</clipPath>
</defs>
</svg>
