<svg width="54" height="54" viewBox="0 0 54 54" fill="none" xmlns="http://www.w3.org/2000/svg">
<path d="M21.1629 33.153C21.0132 33.1333 19.9914 31.0643 19.9914 31.0643L17.9643 29.5032L16.8778 30.5899L15.9024 31.5161C15.6321 31.7834 15.3828 32.0681 15.1547 32.3671L15.0432 34.3556L17.7372 35.6274C17.7372 35.6275 21.3125 33.1727 21.1629 33.153Z" fill="#FFE0D1"/>
<path d="M25.2505 25.3185L23.8072 24.1115C23.1086 23.5272 22.087 23.6429 21.5255 24.3698C20.964 25.0967 21.0751 26.1597 21.7737 26.744L23.217 27.9509L24.2398 28.7825L26.5712 26.4866L25.2505 25.3185Z" fill="#FABC91"/>
<path d="M17.8799 32.1322C18.109 31.8245 18.3593 31.5313 18.6309 31.256L19.3662 30.5405L18.0471 29.5032L16.9299 30.6444L15.9267 31.617C15.6488 31.8977 15.3925 32.1967 15.1579 32.5107L15.0432 34.5988L16.4294 35.2672C16.6931 34.1315 17.1866 33.0632 17.8799 32.1322Z" fill="#FAA875"/>
<path d="M21.0662 30.3177L19.5738 29.1447C18.8514 28.5769 17.7951 28.6894 17.2144 29.3957C16.6338 30.102 16.7488 31.135 17.4711 31.7028L18.9635 32.8756L20.8917 34.5467L22.9685 31.8971L21.0662 30.3177Z" fill="#FABC91"/>
<path d="M23.0127 27.8206L21.5963 26.6288C20.9107 26.0519 19.9082 26.1661 19.3572 26.8839C18.8061 27.6017 18.9152 28.6512 19.6008 29.2281L21.0171 30.4199L22.8225 32.025L24.7698 29.2582L23.0127 27.8206Z" fill="#FABC91"/>
<path d="M26.5712 26.4498L25.2487 25.263L24.289 24.4484L23.0075 26.1472C22.8855 26.309 22.6621 26.3351 22.5094 26.2056L22.501 26.1985C21.8015 25.6048 21.6903 24.5249 22.2525 23.7862C22.2649 23.7699 22.2795 23.7546 22.2923 23.739C21.9658 23.8487 21.667 24.069 21.4525 24.3928C20.9588 25.1383 21.1269 26.1675 21.7985 26.7374L23.2128 27.9376L24.2368 28.7825L24.721 28.2987L26.5712 26.4498Z" fill="#FAA875"/>
<path d="M24.7698 29.3246L23.0116 27.9216L22.0814 27.1581L20.9225 28.6439C20.7839 28.8216 20.5302 28.8504 20.3568 28.7081L20.2267 28.6013C19.6363 28.1167 19.4751 27.2885 19.7924 26.6211C19.5404 26.7716 19.3194 26.9991 19.1726 27.2942C18.8283 27.9862 19.0352 28.8336 19.6276 29.3199L21.0149 30.4584L22.8214 32.0248L23.3715 31.2625L24.7698 29.3246Z" fill="#FAA875"/>
<path d="M27.2605 35.5726L26.6564 35.4325C25.9114 35.2602 25.386 34.5939 25.3926 33.8298C25.3968 33.3831 25.5799 32.9795 25.8733 32.6878C26.1675 32.3953 26.5719 32.2146 27.0177 32.213L30.4337 32.1997C30.9367 32.1981 31.4273 32.3555 31.8351 32.6497L36.1369 35.7458C36.6093 36.0864 36.9996 36.5273 37.2797 37.0369L38.8858 39.9582L44.5873 44.5408C45.0039 44.8757 45.0629 45.4881 44.7178 45.8964L38.3819 53.3915C38.0487 53.7857 37.4618 53.8422 37.0595 53.5188L32.7508 50.0552L32.5154 50.0461C31.119 49.9947 29.7716 49.5166 28.6536 48.6763L25.9553 46.6467C25.9553 46.6467 21.4065 43.2606 21.4065 43.1504C21.4065 43.0683 25.2335 38.1648 27.2605 35.5726Z" fill="#FABC91"/>
<path d="M25.916 35.0392C26.4041 34.402 26.866 33.7996 27.2583 33.2885L26.673 33.1501C26.3597 33.0763 26.0868 32.9104 25.8783 32.6848C25.8771 32.6861 25.8758 32.6871 25.8745 32.6883C25.5812 32.98 25.398 33.3836 25.3939 33.8303C25.3897 34.3016 25.5886 34.7353 25.916 35.0392Z" fill="#F8D3AA"/>
<path d="M44.5886 44.5412L43.8121 43.917L38.0342 50.8818C37.7114 51.2711 37.1427 51.3268 36.7529 51.0075L32.7547 47.7325C32.6402 47.6387 32.4981 47.5847 32.3502 47.5788C30.9972 47.5281 29.6916 47.056 28.6083 46.2263L25.9939 44.2224C25.9939 44.2224 23.8762 42.616 22.5766 41.594C21.8785 42.5004 21.408 43.122 21.408 43.1507C21.408 43.261 25.9568 46.6471 25.9568 46.6471L28.6551 48.6766C29.773 49.5169 31.1205 49.9951 32.5169 50.0465L32.7523 50.0556L37.0609 53.5191C37.4633 53.8425 38.0502 53.786 38.3834 53.3918L44.7193 45.8968C45.0643 45.4885 45.0053 44.8761 44.5886 44.5412Z" fill="#FAA875"/>
<path d="M31.7998 43.2044L32.0922 43.4162C32.9463 44.0348 34.1354 43.8752 34.7961 43.0532L38.2353 38.7743L37.2802 37.0372C37.0001 36.5275 36.6098 36.0866 36.1374 35.746L31.8356 32.65C31.4278 32.3558 30.9372 32.1983 30.4342 32.2L27.0182 32.2132C26.5724 32.2149 26.168 32.3955 25.8738 32.6881C25.5804 32.9798 25.3973 33.3834 25.3931 33.8301C25.3865 34.5941 25.9119 35.2604 26.6569 35.4328L27.2611 35.5728C26.9272 35.9999 26.5442 36.4898 26.1377 37.0104C26.1855 37.0237 26.2338 37.0361 26.2826 37.0474L26.8878 37.1877L28.8164 37.6334C29.0116 39.8155 30.0806 41.8233 31.7998 43.2044Z" fill="#FAA875"/>
<path d="M22.8718 32.0314L21.0153 30.4549L20.0705 29.6956L19.0329 30.9984C18.8814 31.1886 18.6041 31.2194 18.4146 31.0671L18.2341 30.922C17.6924 30.4866 17.5012 29.776 17.6984 29.1509C17.5261 29.2527 17.3698 29.3881 17.2392 29.5561C16.6863 30.2672 16.836 31.2985 17.538 31.8629L18.963 33.0081L20.845 34.676L21.4107 33.9378L22.8718 32.0314Z" fill="#FAA875"/>
<path d="M36.1377 35.7458L31.8358 32.6497C31.4281 32.3555 30.9375 32.1981 30.4344 32.1997L27.0185 32.213C26.5726 32.2146 26.1682 32.3953 25.874 32.6878C25.5806 32.9795 25.3975 33.3831 25.3933 33.8298C25.3867 34.5939 25.9121 35.2602 26.6571 35.4325L27.2613 35.5726C25.2342 38.1648 21.4072 43.0683 21.4072 43.1504C21.4072 43.2606 25.956 46.6467 25.956 46.6467L26.9242 47.3749C27.0811 47.2134 27.2316 47.0443 27.3741 46.8669L36.246 35.8285C36.21 35.8007 36.1745 35.7724 36.1377 35.7458Z" fill="#FAA875"/>
<path d="M36.0164 31.3382C35.2631 30.7332 34.1626 30.8534 33.5568 31.6058C33.817 31.2826 33.943 30.8956 33.943 30.5111C33.943 29.9998 33.7192 29.4918 33.2891 29.1462C32.5367 28.5413 31.4353 28.6614 30.8295 29.4139C31.0897 29.0907 31.2157 28.7037 31.2157 28.3192C31.2157 27.8078 30.9919 27.3007 30.5627 26.9551C29.8094 26.3493 28.708 26.4695 28.103 27.2219C28.708 26.4695 28.5887 25.3681 27.8353 24.7631C27.5121 24.5029 27.1251 24.377 26.7406 24.377C26.2285 24.377 25.7213 24.6007 25.3757 25.0308L20.2389 31.4216L17.9224 34.326L15.2132 32.4953C14.2809 33.7249 13.716 35.2031 13.6004 36.7572L13.3609 39.9793L8.80296 45.6492C8.51474 46.0077 8.56322 46.5303 8.91236 46.8297L16.9188 53.6955C17.284 54.0087 17.8361 53.9575 18.1375 53.5824L22.272 48.438C22.3574 48.3327 22.48 48.2631 22.6143 48.2441C24.106 48.0336 25.4617 47.2629 26.4056 46.0886L36.2839 33.7979C36.5433 33.4747 36.6701 33.0877 36.6701 32.7032C36.6703 32.1909 36.4465 31.6837 36.0164 31.3382Z" fill="#FABC91"/>
<path d="M11.659 46.1915C11.318 45.8979 11.2706 45.3856 11.5521 45.0342L16.0034 39.4758L16.2374 36.3172C16.3063 35.3865 16.5399 34.4839 16.918 33.6474L15.2132 32.4954C14.2809 33.7249 13.716 35.2032 13.6004 36.7573L13.3609 39.9793L8.80296 45.6492C8.51474 46.0077 8.56322 46.5303 8.91236 46.8297L16.9188 53.6955C17.284 54.0087 17.8361 53.9575 18.1375 53.5825L18.9994 52.51L11.659 46.1915Z" fill="#FAA875"/>
<path d="M32.8054 31.306C32.1132 30.8067 31.296 30.5427 30.442 30.5427L27.0121 30.556C26.1418 30.5592 25.3226 30.8991 24.7051 31.513C24.088 32.1266 23.7438 32.9441 23.7357 33.8159C23.7222 35.3687 24.7698 36.6976 26.2825 37.0477L26.8877 37.188L28.8163 37.6337C28.9387 39.0011 29.4042 40.3 30.1578 41.4192L36.2774 33.8051L32.8054 31.306Z" fill="#FAA875"/>
<path d="M37.28 37.0377L38.4617 39.1874L35.088 43.524L33.3022 42.2868L32.8389 41.9138C31.3638 40.7288 30.487 38.952 30.4431 37.0592L30.4265 36.3051L27.2608 35.5733L26.6567 35.4333C25.9117 35.2609 25.3863 34.5946 25.3929 33.8305C25.397 33.3839 25.5802 32.9803 25.8735 32.6886C26.1677 32.396 26.5721 32.2154 27.018 32.2137L30.434 32.2005C30.937 32.1988 31.4276 32.3563 31.8353 32.6504L36.1372 35.7465C36.6096 36.0871 36.9999 36.528 37.28 37.0377Z" fill="#FABC91"/>
<path d="M30.6806 6.05715C28.4578 5.28718 26.2626 5.28535 24.0948 6.05148C23.5733 6.23577 23.3314 6.83961 23.5712 7.33949L26.5527 13.5567C26.8917 14.2637 27.8948 14.2637 28.234 13.5567L31.2115 7.34798C31.4526 6.84511 31.2061 6.2391 30.6806 6.05715Z" fill="url(#paint0_linear_221_663)"/>
<path d="M49.9591 15.2697C48.7863 13.2409 47.1614 11.8227 45.0846 11.0149C44.585 10.8205 44.0345 11.1304 43.9047 11.6708L42.2896 18.3933C42.106 19.1578 42.849 19.8052 43.5349 19.4785L49.5586 16.6084C50.0463 16.3761 50.2364 15.7492 49.9591 15.2697Z" fill="url(#paint1_linear_221_663)"/>
<path d="M4.82398 15.2697C5.99683 13.2409 7.62173 11.8227 9.69852 11.0149C10.1981 10.8205 10.7486 11.1304 10.8784 11.6708L12.4936 18.3933C12.6772 19.1578 11.9341 19.8052 11.2482 19.4785L5.22448 16.6084C4.7369 16.3761 4.54673 15.7492 4.82398 15.2697Z" fill="url(#paint2_linear_221_663)"/>
<path d="M18.0066 34.3162L19.0057 33.143L17.9753 32.385L16.9883 33.5438C16.756 33.8167 16.8107 34.2172 17.1088 34.4255C17.3907 34.6224 17.7869 34.5741 18.0066 34.3162Z" fill="#FAA875"/>
<defs>
<linearGradient id="paint0_linear_221_663" x1="31.1391" y1="13.4289" x2="23.1555" y2="-1.3264" gradientUnits="userSpaceOnUse">
<stop stop-color="#F09642"/>
<stop offset="1" stop-color="#F4E26E"/>
</linearGradient>
<linearGradient id="paint1_linear_221_663" x1="42.8432" y1="13.8477" x2="47.6994" y2="21.017" gradientUnits="userSpaceOnUse">
<stop stop-color="#272671"/>
<stop offset="1" stop-color="#7BB3CB"/>
</linearGradient>
<linearGradient id="paint2_linear_221_663" x1="5.27775" y1="13.8477" x2="10.134" y2="21.017" gradientUnits="userSpaceOnUse">
<stop stop-color="#272671"/>
<stop offset="1" stop-color="#7BB3CB"/>
</linearGradient>
</defs>
</svg>
