<svg width="49" height="51" viewBox="0 0 49 51" fill="none" xmlns="http://www.w3.org/2000/svg">
<path d="M30.7716 25.4999C37.7035 25.4999 43.323 19.8432 43.323 12.8653C43.323 5.8874 37.7035 0.230713 30.7716 0.230713C23.8397 0.230713 18.2202 5.8874 18.2202 12.8653C18.2202 19.8432 23.8397 25.4999 30.7716 25.4999Z" fill="#FCCF23"/>
<path d="M31.7886 11.9611V7.06675C32.2241 7.2637 32.5939 7.58295 32.8537 7.9862C33.1134 8.38945 33.2521 8.85958 33.2531 9.34019C33.2531 9.61214 33.3604 9.87295 33.5514 10.0652C33.7425 10.2575 34.0016 10.3656 34.2717 10.3656C34.5419 10.3656 34.801 10.2575 34.992 10.0652C35.183 9.87295 35.2904 9.61214 35.2904 9.34019C35.2886 8.31254 34.9416 7.31569 34.3059 6.51161C33.6702 5.70753 32.783 5.14347 31.7886 4.91108V3.92847C31.7886 3.65652 31.6813 3.3957 31.4902 3.20341C31.2992 3.01111 31.0401 2.90308 30.7699 2.90308C30.4998 2.90308 30.2407 3.01111 30.0496 3.20341C29.8586 3.3957 29.7513 3.65652 29.7513 3.92847V4.91108C28.7562 5.14214 27.8683 5.70591 27.2325 6.51037C26.5967 7.31483 26.2505 8.31248 26.2505 9.34048C26.2505 10.3685 26.5967 11.3661 27.2325 12.1706C27.8683 12.9751 28.7562 13.5388 29.7513 13.7699V18.6642C29.3158 18.4673 28.946 18.148 28.6862 17.7448C28.4264 17.3415 28.2878 16.8714 28.2868 16.3908C28.2868 16.1188 28.1795 15.858 27.9884 15.6657C27.7974 15.4734 27.5383 15.3654 27.2682 15.3654C26.998 15.3654 26.7389 15.4734 26.5479 15.6657C26.3568 15.858 26.2495 16.1188 26.2495 16.3908C26.2513 17.4184 26.5982 18.4153 27.234 19.2193C27.8697 20.0234 28.7569 20.5875 29.7513 20.8199V21.8025C29.7513 22.0744 29.8586 22.3353 30.0496 22.5276C30.2407 22.7199 30.4998 22.8279 30.7699 22.8279C31.0401 22.8279 31.2992 22.7199 31.4902 22.5276C31.6813 22.3353 31.7886 22.0744 31.7886 21.8025V20.8199C32.7837 20.5888 33.6716 20.0251 34.3074 19.2206C34.9432 18.4161 35.2894 17.4185 35.2894 16.3905C35.2894 15.3625 34.9432 14.3648 34.3074 13.5604C33.6716 12.7559 32.7837 12.1921 31.7886 11.9611ZM28.2868 9.34019C28.2878 8.85958 28.4264 8.38945 28.6862 7.9862C28.946 7.58295 29.3158 7.2637 29.7513 7.06675V11.613C29.3159 11.4161 28.9462 11.0969 28.6864 10.6938C28.4267 10.2906 28.2879 9.82068 28.2868 9.34019ZM31.7886 18.6642V14.1168C32.2246 14.3131 32.5948 14.6322 32.8546 15.0357C33.1144 15.4391 33.2527 15.9097 33.2527 16.3905C33.2527 16.8713 33.1144 17.3418 32.8546 17.7453C32.5948 18.1487 32.2246 18.4679 31.7886 18.6642Z" fill="#FCA40B"/>
<path d="M0.81958 30.2156H9.97685V50.3648H0.81958V30.2156Z" fill="url(#paint0_linear_221_642)"/>
<path d="M9.97632 33.8412C11.9246 32.3934 14.276 31.5994 16.6974 31.5716C19.1189 31.5437 21.4877 32.2834 23.4683 33.6859L23.6395 33.8072H29.8322C31.3605 33.8072 32.8263 34.4183 33.907 35.5062C34.9877 36.594 35.5948 38.0695 35.5948 39.608L45.2882 32.1841C45.6013 31.9444 45.9838 31.8145 46.3772 31.8144C46.7189 31.8144 47.0535 31.9122 47.342 32.0966C47.6304 32.281 47.8607 32.5442 48.006 32.8556C48.1513 33.1669 48.2055 33.5134 48.1623 33.8546C48.119 34.1958 47.9802 34.5175 47.762 34.7822L37.5174 47.2181C36.2843 48.7148 34.6372 49.809 32.7853 50.3619C30.9334 50.9148 28.96 50.9015 27.1156 50.3236L16.1586 46.8917L9.97632 47.0675V33.8412Z" fill="#FABC91"/>
<path d="M35.596 40.6328H24.3316C24.0615 40.6328 23.8024 40.5248 23.6113 40.3325C23.4203 40.1402 23.313 39.8794 23.313 39.6074C23.313 39.3355 23.4203 39.0747 23.6113 38.8824C23.8024 38.6901 24.0615 38.582 24.3316 38.582H35.596C35.8662 38.582 36.1253 38.6901 36.3163 38.8824C36.5073 39.0747 36.6147 39.3355 36.6147 39.6074C36.6147 39.8794 36.5073 40.1402 36.3163 40.3325C36.1253 40.5248 35.8662 40.6328 35.596 40.6328Z" fill="#FAA875"/>
<defs>
<linearGradient id="paint0_linear_221_642" x1="1.50051" y1="36.9825" x2="13.1965" y2="45.6146" gradientUnits="userSpaceOnUse">
<stop stop-color="#272671"/>
<stop offset="1" stop-color="#7BB3CB"/>
</linearGradient>
</defs>
</svg>
