<svg width="53" height="52" viewBox="0 0 53 52" fill="none" xmlns="http://www.w3.org/2000/svg">
<path d="M46.8856 17.0492H32.3937C29.1041 17.0492 26.4265 14.3716 26.4265 11.0819C26.4265 7.7923 29.1041 5.11473 32.3937 5.11473C32.7203 5.11473 33.045 5.14122 33.3656 5.19403C34.5539 2.09881 37.5512 0 40.9184 0C44.3222 0 47.3835 2.17471 48.5319 5.34674C51.0637 6.0714 52.853 8.40616 52.853 11.0821C52.8528 14.3716 50.1752 17.0492 46.8856 17.0492Z" fill="url(#paint0_linear_221_658)"/>
<path d="M51.6439 27.8526C48.6629 26.3615 45.3245 25.5739 41.9914 25.5739H31.2426L21.5815 18.7542H13.2862L20.1059 25.5739H13.1106L5.43838 18.7542H0.392578L3.77011 26.3547L2.55709 26.5568V29.422L3.10184 29.8116C7.02824 32.6163 11.6546 34.0987 16.4797 34.0987H18.4011L12.1636 40.3361L13.0348 40.9114C13.3068 41.0913 13.5633 41.2985 13.7969 41.5269L14.0458 41.7707H19.025L29.8939 34.0985H41.7773C44.7175 34.0985 47.5784 33.5112 50.2797 32.3534L51.5277 31.8189C52.3324 31.4729 52.8524 30.6843 52.8524 29.8087C52.8526 28.9752 52.3897 28.2258 51.6439 27.8526ZM17.4018 20.4591H21.0411L28.287 25.5739H22.5167L17.4018 20.4591ZM3.01645 20.4591H4.79052L10.5447 25.5739H9.37088C8.76221 25.5739 8.14926 25.625 7.54919 25.7248L5.50749 26.0649L3.01645 20.4591ZM50.8562 30.2514L49.6082 30.786C47.119 31.8533 44.4858 32.3937 41.7775 32.3937H32.3092L33.7379 31.3853L32.7542 29.9924L18.484 40.0659H14.8445L23.6189 31.2915L22.4136 30.0862L20.1061 32.3937H16.4795C12.0816 32.3937 7.86193 31.0631 4.26188 28.5439V28.001L7.82953 27.4059C8.33758 27.3216 8.85674 27.2788 9.37088 27.2788H41.9914C45.0619 27.2788 48.136 28.0042 50.8809 29.3767C51.0454 29.4594 51.1476 29.6249 51.1476 29.8089C51.1476 30.0015 51.0325 30.1755 50.8562 30.2514Z" fill="url(#paint1_linear_221_658)"/>
<path d="M17.4018 20.4591H21.0411L28.287 25.5739H22.5167L17.4018 20.4591Z" fill="url(#paint2_linear_221_658)"/>
<path d="M50.8562 30.2514L49.6082 30.786C47.119 31.8533 44.4858 32.3937 41.7775 32.3937H32.3092L33.7379 31.3853L32.7542 29.9924L18.484 40.0659H14.8445L23.6189 31.2915L22.4136 30.0862L20.1061 32.3937H16.4795C12.0816 32.3937 7.86193 31.0631 4.26188 28.5439V28.001L7.82953 27.4059C8.33758 27.3216 8.85674 27.2788 9.37088 27.2788H41.9914C45.0619 27.2788 48.136 28.0042 50.8809 29.3767C51.0454 29.4594 51.1476 29.6249 51.1476 29.8089C51.1476 30.0015 51.0325 30.1755 50.8562 30.2514Z" fill="url(#paint3_linear_221_658)"/>
<path d="M3.01645 20.4591H4.79052L10.5447 25.5739H9.37088C8.76221 25.5739 8.14926 25.625 7.54919 25.7248L5.50749 26.0649L3.01645 20.4591Z" fill="url(#paint4_linear_221_658)"/>
<path d="M15.3444 52.0002H5.11473C2.29394 52.0002 0 49.7063 0 46.8855C0 44.381 1.84389 42.26 4.28032 41.8585C5.47885 39.7189 7.76259 38.3608 10.2296 38.3608C13.4708 38.3608 16.2464 40.6532 16.8993 43.7774C18.5191 44.4091 19.6068 45.9639 19.6068 47.738C19.6068 50.0881 17.6947 52.0002 15.3444 52.0002Z" fill="url(#paint5_linear_221_658)"/>
<defs>
<linearGradient id="paint0_linear_221_658" x1="52.2949" y1="15.7459" x2="41.4037" y2="-18.575" gradientUnits="userSpaceOnUse">
<stop stop-color="#F09642"/>
<stop offset="1" stop-color="#F4E26E"/>
</linearGradient>
<linearGradient id="paint1_linear_221_658" x1="-0.962534" y1="20.235" x2="47.372" y2="71.2325" gradientUnits="userSpaceOnUse">
<stop stop-color="#272671"/>
<stop offset="1" stop-color="#7BB3CB"/>
</linearGradient>
<linearGradient id="paint2_linear_221_658" x1="-0.962534" y1="20.235" x2="47.372" y2="71.2325" gradientUnits="userSpaceOnUse">
<stop stop-color="#272671"/>
<stop offset="1" stop-color="#7BB3CB"/>
</linearGradient>
<linearGradient id="paint3_linear_221_658" x1="-0.962534" y1="20.235" x2="47.372" y2="71.2325" gradientUnits="userSpaceOnUse">
<stop stop-color="#272671"/>
<stop offset="1" stop-color="#7BB3CB"/>
</linearGradient>
<linearGradient id="paint4_linear_221_658" x1="-0.962534" y1="20.235" x2="47.372" y2="71.2325" gradientUnits="userSpaceOnUse">
<stop stop-color="#272671"/>
<stop offset="1" stop-color="#7BB3CB"/>
</linearGradient>
<linearGradient id="paint5_linear_221_658" x1="19.1927" y1="50.9576" x2="9.93554" y2="23.9034" gradientUnits="userSpaceOnUse">
<stop stop-color="#F09642"/>
<stop offset="1" stop-color="#F4E26E"/>
</linearGradient>
</defs>
</svg>
