<svg width="89" height="80" viewBox="0 0 89 80" fill="none" xmlns="http://www.w3.org/2000/svg">
<path d="M69 52.367C69 70.858 54.4962 80 35.8019 80C17.1076 80 0 65.654 0 47.163C0 28.6727 9.11321 22.7498 17.5755 22.7495C25.6702 22.7495 32.7759 30.3737 39.7075 33.695C48.7841 38.0441 69 41.8827 69 52.367Z" fill="#F09642"/>
<mask id="mask0_16_15" style="mask-type:alpha" maskUnits="userSpaceOnUse" x="24" y="0" width="65" height="65">
<path d="M89 0H24V64.2921H89V0Z" fill="white"/>
</mask>
<g mask="url(#mask0_16_15)">
<path d="M87.8017 25.4571L81.0918 24.7204C80.6097 23.1562 79.9748 21.6422 79.196 20.1998L83.4129 14.9867C83.8433 14.4539 83.8001 13.6863 83.3127 13.204L75.6509 5.6336C75.1632 5.1515 74.3872 5.1088 73.8485 5.5345L68.5779 9.7041C67.1196 8.9339 65.5889 8.3057 64.0076 7.829L63.2627 1.1922C63.1868 0.5135 62.607 0 61.9168 0H51.0835C50.3932 0 49.8133 0.513501 49.7374 1.192L48.9925 7.8222C47.4112 8.2991 45.8805 8.9271 44.4222 9.6973L39.1518 5.5264C38.6131 5.1007 37.837 5.1434 37.3494 5.6254L29.6875 13.204C29.2005 13.6867 29.158 14.4543 29.5886 14.9867L33.811 20.1998C33.0322 21.6422 32.3972 23.1562 31.9152 24.7204L25.2053 25.4571C24.5191 25.5322 24 26.1056 24 26.7884V37.5037C24 38.1864 24.5191 38.76 25.2052 38.8351L31.9083 39.5718C32.3905 41.136 33.0254 42.65 33.8041 44.0924L29.5872 49.305C29.1568 49.838 29.2 50.606 29.6874 51.088L37.3493 58.667C37.8391 59.146 38.615 59.185 39.1516 58.758L44.4221 54.588C45.8804 55.358 47.4111 55.986 48.9924 56.463L49.7373 63.1C49.8132 63.779 50.393 64.292 51.0833 64.292H61.9167C62.6046 64.292 63.1835 63.783 63.2627 63.107L64.0076 56.47C65.5889 55.993 67.1196 55.365 68.5779 54.595L73.8484 58.766C74.387 59.191 75.1631 59.149 75.6507 58.667L83.3045 51.088C83.7919 50.606 83.835 49.838 83.4047 49.305L79.1892 44.0924C79.9679 42.65 80.6029 41.136 81.085 39.5718L87.7948 38.8351C88.4809 38.76 89.0001 38.1866 89 37.5037V26.7884C89.0005 26.1079 88.4851 25.5353 87.8017 25.4571ZM86.2921 36.305L79.8907 37.0096C79.3354 37.0706 78.8751 37.4626 78.7315 37.9967C78.21 39.9437 77.4279 41.813 76.4064 43.5553C76.1257 44.0335 76.1709 44.6331 76.5201 45.0648L80.546 50.042L74.5999 55.923L69.5679 51.941C69.1314 51.596 68.5252 51.551 68.0418 51.829C66.2803 52.839 64.3903 53.613 62.4219 54.129C61.882 54.271 61.4856 54.726 61.424 55.275L60.7116 61.613H52.3022L51.5832 55.275C51.5215 54.726 51.1251 54.271 50.5852 54.129C48.6168 53.613 46.7268 52.839 44.9653 51.829C44.4819 51.551 43.8757 51.596 43.4392 51.941L38.4072 55.923L32.4611 50.042L36.487 45.0715C36.8363 44.6398 36.8815 44.0402 36.6008 43.562C35.5792 41.8197 34.7973 39.9503 34.2756 38.0033C34.1321 37.4693 33.6717 37.0773 33.1164 37.0162L26.7084 36.3117V27.9939L33.1164 27.2826C33.6717 27.2216 34.132 26.8296 34.2756 26.2955C34.7971 24.3485 35.5792 22.4792 36.6008 20.7369C36.8815 20.2587 36.8363 19.6591 36.487 19.2274L32.4611 14.2501L38.4072 8.3688L43.4461 12.3509C43.8826 12.6963 44.4888 12.741 44.9722 12.4634C46.7337 11.4529 48.6236 10.6795 50.592 10.1636C51.132 10.0217 51.5283 9.5662 51.59 9.017L52.3024 2.6788H60.705L61.4174 9.017C61.479 9.5662 61.8754 10.0215 62.4153 10.1636C64.3837 10.6794 66.2737 11.4529 68.0352 12.4634C68.5186 12.741 69.1248 12.6963 69.5613 12.3509L74.5933 8.3688L80.5394 14.2569L76.5135 19.2342C76.1643 19.6659 76.1191 20.2655 76.3997 20.7437C77.4213 22.4859 78.2033 24.3553 78.7249 26.3023C78.8684 26.8363 79.3288 27.2284 79.8841 27.2894L86.2921 27.994V36.305Z" fill="#FFFEFC"/>
<path d="M86.2917 36.305L79.8903 37.0096C79.335 37.0706 78.8747 37.4626 78.7311 37.9967C78.2096 39.9437 77.4275 41.813 76.406 43.5553C76.1253 44.0335 76.1705 44.6331 76.5197 45.0648L80.5456 50.042L74.5995 55.923L69.5675 51.941C69.131 51.596 68.5248 51.551 68.0414 51.829C66.2799 52.839 64.3899 53.613 62.4215 54.129C61.8816 54.271 61.4852 54.726 61.4236 55.275L60.7112 61.613H52.3018L51.5828 55.275C51.5211 54.726 51.1247 54.271 50.5848 54.129C48.6164 53.613 46.7264 52.839 44.9649 51.829C44.4815 51.551 43.8753 51.596 43.4388 51.941L38.4068 55.923L32.4607 50.042L36.4866 45.0715C36.8359 44.6398 36.8811 44.0402 36.6004 43.562C35.5788 41.8197 34.7969 39.9503 34.2752 38.0033C34.1317 37.4693 33.6713 37.0773 33.116 37.0162L26.708 36.3117V27.9939L33.116 27.2826C33.6713 27.2216 34.1316 26.8296 34.2752 26.2955C34.7967 24.3485 35.5788 22.4792 36.6004 20.7369C36.8811 20.2587 36.8359 19.6591 36.4866 19.2274L32.4607 14.2501L38.4068 8.36877L43.4457 12.3509C43.8822 12.6963 44.4884 12.741 44.9718 12.4634C46.7333 11.4529 48.6232 10.6795 50.5916 10.1636C51.1316 10.0217 51.5279 9.56617 51.5896 9.01697L52.302 2.67877H60.7046L61.417 9.01697C61.4786 9.56617 61.875 10.0215 62.4149 10.1636C64.3833 10.6794 66.2733 11.4529 68.0348 12.4634C68.5182 12.741 69.1244 12.6963 69.5609 12.3509L74.5929 8.36877L80.539 14.2569L76.5131 19.2342C76.1639 19.6659 76.1187 20.2655 76.3993 20.7437C77.4209 22.4859 78.2029 24.3553 78.7245 26.3023C78.868 26.8363 79.3284 27.2284 79.8837 27.2894L86.2917 27.994V36.305Z" fill="#FFFEFC"/>
<path d="M73.0424 22.9899C67.9297 13.952 56.3781 10.7247 47.2408 15.7816C38.1034 20.8385 34.8406 32.2645 39.9533 41.3023C40.0138 41.4092 40.0888 41.5074 40.1764 41.5942C40.7048 42.1177 41.5623 42.1183 42.0915 41.5957L50.9383 32.8453L54.0636 36.968C54.1021 37.0186 54.144 37.0666 54.1893 37.1113C54.7182 37.6344 55.5755 37.6344 56.1044 37.1113L64.6261 28.6823V33.4856H67.3344V25.449H67.3342C67.3342 24.7094 66.7281 24.1098 65.9803 24.1096H57.8553V26.7884H62.7114L55.2933 34.1257L52.1678 30.003C51.933 29.6911 51.5727 29.4955 51.1806 29.4672C50.789 29.4437 50.4058 29.5865 50.127 29.8596L41.5172 38.3744C39.1891 32.8939 40.1159 26.5892 43.9256 21.9914C49.6035 15.1389 59.8226 14.1365 66.7507 19.7526C73.6787 25.3687 74.6921 35.4765 69.0142 42.3291C68.4908 42.9606 67.9288 43.5421 67.3346 44.0737V36.1644H64.6261V46.03C63.7583 46.529 62.8513 46.944 61.9178 47.272V38.8432H59.2095V47.972C58.3152 48.123 57.409 48.201 56.5012 48.203V42.8614H53.7929V47.985C52.8776 47.835 51.9714 47.605 51.0847 47.296V40.1826H48.3761V46.064C47.6192 45.6313 46.8872 45.1337 46.1891 44.5679L44.468 46.637C47.8607 49.39 52.1128 50.896 56.5011 50.898C59.7413 50.898 62.9272 50.076 65.7549 48.511C74.8922 43.4537 78.155 32.0277 73.0424 22.9899Z" fill="#39379F"/>
</g>
</svg>
