<svg width="101" height="78" viewBox="0 0 101 78" fill="none" xmlns="http://www.w3.org/2000/svg">
<path d="M11.9096 23.9362C10.9847 14.1563 39.5645 6.72812 52.7052 10.3553C72.0144 16.3387 95.9669 41.1978 90.1852 62.551C88.2006 69.881 79.4452 76.2428 67.5163 73.0468C56.1056 69.9893 49.6022 52.4807 40.8695 46.027C29.4346 37.5764 13.3353 39.0105 11.9096 23.9362Z" fill="#F7D880"/>
<mask id="mask0_16_29" style="mask-type:alpha" maskUnits="userSpaceOnUse" x="6" y="5" width="54" height="50">
<path d="M60 5H6V55H60V5Z" fill="white"/>
<path d="M54.6667 11.2H50.3333V9.46667C50.3333 8.54725 49.9681 7.66549 49.318 7.01536C48.6678 6.36524 47.7861 6 46.8667 6C45.9473 6 45.0655 6.36524 44.4154 7.01536C43.7652 7.66549 43.4 8.54725 43.4 9.46667V11.2H36.4667V9.46667C36.4667 8.54725 36.1014 7.66549 35.4513 7.01536C34.8012 6.36524 33.9194 6 33 6C32.0806 6 31.1988 6.36524 30.5487 7.01536C29.8986 7.66549 29.5333 8.54725 29.5333 9.46667V11.2H22.6V9.46667C22.6 8.54725 22.2348 7.66549 21.5846 7.01536C20.9345 6.36524 20.0528 6 19.1333 6C18.2139 6 17.3322 6.36524 16.682 7.01536C16.0319 7.66549 15.6667 8.54725 15.6667 9.46667V11.2H11.3333C10.1841 11.2 9.08186 11.6565 8.2692 12.4692C7.45655 13.2819 7 14.3841 7 15.5333V50.2C7 51.3493 7.45655 52.4515 8.2692 53.2641C9.08186 54.0768 10.1841 54.5333 11.3333 54.5333H35.6C35.8299 54.5333 36.0503 54.442 36.2128 54.2795C36.3754 54.117 36.4667 53.8965 36.4667 53.6667C36.4667 53.4368 36.3754 53.2164 36.2128 53.0538C36.0503 52.8913 35.8299 52.8 35.6 52.8H11.3333C10.6444 52.7979 9.98428 52.5234 9.49713 52.0362C9.00998 51.5491 8.73539 50.8889 8.73333 50.2V23.3333H57.2667V38.0667C57.2667 38.2965 57.358 38.517 57.5205 38.6795C57.683 38.842 57.9035 38.9333 58.1333 38.9333C58.3632 38.9333 58.5836 38.842 58.7462 38.6795C58.9087 38.517 59 38.2965 59 38.0667V15.5333C59 14.3841 58.5435 13.2819 57.7308 12.4692C56.9181 11.6565 55.8159 11.2 54.6667 11.2ZM45.1333 9.46667C45.1333 9.00696 45.316 8.56608 45.641 8.24101C45.9661 7.91595 46.407 7.73333 46.8667 7.73333C47.3264 7.73333 47.7673 7.91595 48.0923 8.24101C48.4174 8.56608 48.6 9.00696 48.6 9.46667V14.6667C48.6 15.1264 48.4174 15.5673 48.0923 15.8923C47.7673 16.2174 47.3264 16.4 46.8667 16.4C46.407 16.4 45.9661 16.2174 45.641 15.8923C45.316 15.5673 45.1333 15.1264 45.1333 14.6667V9.46667ZM31.2667 9.46667C31.2667 9.00696 31.4493 8.56608 31.7743 8.24101C32.0994 7.91595 32.5403 7.73333 33 7.73333C33.4597 7.73333 33.9006 7.91595 34.2257 8.24101C34.5507 8.56608 34.7333 9.00696 34.7333 9.46667V14.6667C34.7333 15.1264 34.5507 15.5673 34.2257 15.8923C33.9006 16.2174 33.4597 16.4 33 16.4C32.5403 16.4 32.0994 16.2174 31.7743 15.8923C31.4493 15.5673 31.2667 15.1264 31.2667 14.6667V9.46667ZM17.4 9.46667C17.4 9.00696 17.5826 8.56608 17.9077 8.24101C18.2327 7.91595 18.6736 7.73333 19.1333 7.73333C19.593 7.73333 20.0339 7.91595 20.359 8.24101C20.684 8.56608 20.8667 9.00696 20.8667 9.46667V14.6667C20.8667 15.1264 20.684 15.5673 20.359 15.8923C20.0339 16.2174 19.593 16.4 19.1333 16.4C18.6736 16.4 18.2327 16.2174 17.9077 15.8923C17.5826 15.5673 17.4 15.1264 17.4 14.6667V9.46667ZM57.2667 21.6H8.73333V15.5333C8.73539 14.8444 9.00998 14.1843 9.49713 13.6971C9.98428 13.21 10.6444 12.9354 11.3333 12.9333H15.6667V14.6667C15.6667 15.5861 16.0319 16.4678 16.682 17.118C17.3322 17.7681 18.2139 18.1333 19.1333 18.1333C20.0528 18.1333 20.9345 17.7681 21.5846 17.118C22.2348 16.4678 22.6 15.5861 22.6 14.6667V12.9333H29.5333V14.6667C29.5333 15.5861 29.8986 16.4678 30.5487 17.118C31.1988 17.7681 32.0806 18.1333 33 18.1333C33.9194 18.1333 34.8012 17.7681 35.4513 17.118C36.1014 16.4678 36.4667 15.5861 36.4667 14.6667V12.9333H43.4V14.6667C43.4 15.5861 43.7652 16.4678 44.4154 17.118C45.0655 17.7681 45.9473 18.1333 46.8667 18.1333C47.7861 18.1333 48.6678 17.7681 49.318 17.118C49.9681 16.4678 50.3333 15.5861 50.3333 14.6667V12.9333H54.6667C55.3556 12.9354 56.0157 13.21 56.5029 13.6971C56.99 14.1843 57.2646 14.8444 57.2667 15.5333V21.6Z" fill="black"/>
</mask>
<g mask="url(#mask0_16_29)">
<path d="M54.6667 11.2H50.3333V9.46667C50.3333 8.54725 49.9681 7.66549 49.318 7.01536C48.6678 6.36524 47.7861 6 46.8667 6C45.9473 6 45.0655 6.36524 44.4154 7.01536C43.7652 7.66549 43.4 8.54725 43.4 9.46667V11.2H36.4667V9.46667C36.4667 8.54725 36.1014 7.66549 35.4513 7.01536C34.8012 6.36524 33.9194 6 33 6C32.0806 6 31.1988 6.36524 30.5487 7.01536C29.8986 7.66549 29.5333 8.54725 29.5333 9.46667V11.2H22.6V9.46667C22.6 8.54725 22.2348 7.66549 21.5846 7.01536C20.9345 6.36524 20.0528 6 19.1333 6C18.2139 6 17.3322 6.36524 16.682 7.01536C16.0319 7.66549 15.6667 8.54725 15.6667 9.46667V11.2H11.3333C10.1841 11.2 9.08186 11.6565 8.2692 12.4692C7.45655 13.2819 7 14.3841 7 15.5333V50.2C7 51.3493 7.45655 52.4515 8.2692 53.2641C9.08186 54.0768 10.1841 54.5333 11.3333 54.5333H35.6C35.8299 54.5333 36.0503 54.442 36.2128 54.2795C36.3754 54.117 36.4667 53.8965 36.4667 53.6667C36.4667 53.4368 36.3754 53.2164 36.2128 53.0538C36.0503 52.8913 35.8299 52.8 35.6 52.8H11.3333C10.6444 52.7979 9.98428 52.5234 9.49713 52.0362C9.00998 51.5491 8.73539 50.8889 8.73333 50.2V23.3333H57.2667V38.0667C57.2667 38.2965 57.358 38.517 57.5205 38.6795C57.683 38.842 57.9035 38.9333 58.1333 38.9333C58.3632 38.9333 58.5836 38.842 58.7462 38.6795C58.9087 38.517 59 38.2965 59 38.0667V15.5333C59 14.3841 58.5435 13.2819 57.7308 12.4692C56.9181 11.6565 55.8159 11.2 54.6667 11.2ZM45.1333 9.46667C45.1333 9.00696 45.316 8.56608 45.641 8.24101C45.9661 7.91595 46.407 7.73333 46.8667 7.73333C47.3264 7.73333 47.7673 7.91595 48.0923 8.24101C48.4174 8.56608 48.6 9.00696 48.6 9.46667V14.6667C48.6 15.1264 48.4174 15.5673 48.0923 15.8923C47.7673 16.2174 47.3264 16.4 46.8667 16.4C46.407 16.4 45.9661 16.2174 45.641 15.8923C45.316 15.5673 45.1333 15.1264 45.1333 14.6667V9.46667ZM31.2667 9.46667C31.2667 9.00696 31.4493 8.56608 31.7743 8.24101C32.0994 7.91595 32.5403 7.73333 33 7.73333C33.4597 7.73333 33.9006 7.91595 34.2257 8.24101C34.5507 8.56608 34.7333 9.00696 34.7333 9.46667V14.6667C34.7333 15.1264 34.5507 15.5673 34.2257 15.8923C33.9006 16.2174 33.4597 16.4 33 16.4C32.5403 16.4 32.0994 16.2174 31.7743 15.8923C31.4493 15.5673 31.2667 15.1264 31.2667 14.6667V9.46667ZM17.4 9.46667C17.4 9.00696 17.5826 8.56608 17.9077 8.24101C18.2327 7.91595 18.6736 7.73333 19.1333 7.73333C19.593 7.73333 20.0339 7.91595 20.359 8.24101C20.684 8.56608 20.8667 9.00696 20.8667 9.46667V14.6667C20.8667 15.1264 20.684 15.5673 20.359 15.8923C20.0339 16.2174 19.593 16.4 19.1333 16.4C18.6736 16.4 18.2327 16.2174 17.9077 15.8923C17.5826 15.5673 17.4 15.1264 17.4 14.6667V9.46667ZM57.2667 21.6H8.73333V15.5333C8.73539 14.8444 9.00998 14.1843 9.49713 13.6971C9.98428 13.21 10.6444 12.9354 11.3333 12.9333H15.6667V14.6667C15.6667 15.5861 16.0319 16.4678 16.682 17.118C17.3322 17.7681 18.2139 18.1333 19.1333 18.1333C20.0528 18.1333 20.9345 17.7681 21.5846 17.118C22.2348 16.4678 22.6 15.5861 22.6 14.6667V12.9333H29.5333V14.6667C29.5333 15.5861 29.8986 16.4678 30.5487 17.118C31.1988 17.7681 32.0806 18.1333 33 18.1333C33.9194 18.1333 34.8012 17.7681 35.4513 17.118C36.1014 16.4678 36.4667 15.5861 36.4667 14.6667V12.9333H43.4V14.6667C43.4 15.5861 43.7652 16.4678 44.4154 17.118C45.0655 17.7681 45.9473 18.1333 46.8667 18.1333C47.7861 18.1333 48.6678 17.7681 49.318 17.118C49.9681 16.4678 50.3333 15.5861 50.3333 14.6667V12.9333H54.6667C55.3556 12.9354 56.0157 13.21 56.5029 13.6971C56.99 14.1843 57.2646 14.8444 57.2667 15.5333V21.6Z" fill="#1C2D5A"/>
<path d="M54.6667 11.2H50.3333V9.46667C50.3333 8.54725 49.9681 7.66549 49.318 7.01536C48.6678 6.36524 47.7861 6 46.8667 6C45.9473 6 45.0655 6.36524 44.4154 7.01536C43.7652 7.66549 43.4 8.54725 43.4 9.46667V11.2H36.4667V9.46667C36.4667 8.54725 36.1014 7.66549 35.4513 7.01536C34.8012 6.36524 33.9194 6 33 6C32.0806 6 31.1988 6.36524 30.5487 7.01536C29.8986 7.66549 29.5333 8.54725 29.5333 9.46667V11.2H22.6V9.46667C22.6 8.54725 22.2348 7.66549 21.5846 7.01536C20.9345 6.36524 20.0528 6 19.1333 6C18.2139 6 17.3322 6.36524 16.682 7.01536C16.0319 7.66549 15.6667 8.54725 15.6667 9.46667V11.2H11.3333C10.1841 11.2 9.08186 11.6565 8.2692 12.4692C7.45655 13.2819 7 14.3841 7 15.5333V50.2C7 51.3493 7.45655 52.4515 8.2692 53.2641C9.08186 54.0768 10.1841 54.5333 11.3333 54.5333H35.6C35.8299 54.5333 36.0503 54.442 36.2128 54.2795C36.3754 54.117 36.4667 53.8965 36.4667 53.6667C36.4667 53.4368 36.3754 53.2164 36.2128 53.0538C36.0503 52.8913 35.8299 52.8 35.6 52.8H11.3333C10.6444 52.7979 9.98428 52.5234 9.49713 52.0362C9.00998 51.5491 8.73539 50.8889 8.73333 50.2V23.3333H57.2667V38.0667C57.2667 38.2965 57.358 38.517 57.5205 38.6795C57.683 38.842 57.9035 38.9333 58.1333 38.9333C58.3632 38.9333 58.5836 38.842 58.7462 38.6795C58.9087 38.517 59 38.2965 59 38.0667V15.5333C59 14.3841 58.5435 13.2819 57.7308 12.4692C56.9181 11.6565 55.8159 11.2 54.6667 11.2ZM45.1333 9.46667C45.1333 9.00696 45.316 8.56608 45.641 8.24101C45.9661 7.91595 46.407 7.73333 46.8667 7.73333C47.3264 7.73333 47.7673 7.91595 48.0923 8.24101C48.4174 8.56608 48.6 9.00696 48.6 9.46667V14.6667C48.6 15.1264 48.4174 15.5673 48.0923 15.8923C47.7673 16.2174 47.3264 16.4 46.8667 16.4C46.407 16.4 45.9661 16.2174 45.641 15.8923C45.316 15.5673 45.1333 15.1264 45.1333 14.6667V9.46667ZM31.2667 9.46667C31.2667 9.00696 31.4493 8.56608 31.7743 8.24101C32.0994 7.91595 32.5403 7.73333 33 7.73333C33.4597 7.73333 33.9006 7.91595 34.2257 8.24101C34.5507 8.56608 34.7333 9.00696 34.7333 9.46667V14.6667C34.7333 15.1264 34.5507 15.5673 34.2257 15.8923C33.9006 16.2174 33.4597 16.4 33 16.4C32.5403 16.4 32.0994 16.2174 31.7743 15.8923C31.4493 15.5673 31.2667 15.1264 31.2667 14.6667V9.46667ZM17.4 9.46667C17.4 9.00696 17.5826 8.56608 17.9077 8.24101C18.2327 7.91595 18.6736 7.73333 19.1333 7.73333C19.593 7.73333 20.0339 7.91595 20.359 8.24101C20.684 8.56608 20.8667 9.00696 20.8667 9.46667V14.6667C20.8667 15.1264 20.684 15.5673 20.359 15.8923C20.0339 16.2174 19.593 16.4 19.1333 16.4C18.6736 16.4 18.2327 16.2174 17.9077 15.8923C17.5826 15.5673 17.4 15.1264 17.4 14.6667V9.46667ZM57.2667 21.6H8.73333V15.5333C8.73539 14.8444 9.00998 14.1843 9.49713 13.6971C9.98428 13.21 10.6444 12.9354 11.3333 12.9333H15.6667V14.6667C15.6667 15.5861 16.0319 16.4678 16.682 17.118C17.3322 17.7681 18.2139 18.1333 19.1333 18.1333C20.0528 18.1333 20.9345 17.7681 21.5846 17.118C22.2348 16.4678 22.6 15.5861 22.6 14.6667V12.9333H29.5333V14.6667C29.5333 15.5861 29.8986 16.4678 30.5487 17.118C31.1988 17.7681 32.0806 18.1333 33 18.1333C33.9194 18.1333 34.8012 17.7681 35.4513 17.118C36.1014 16.4678 36.4667 15.5861 36.4667 14.6667V12.9333H43.4V14.6667C43.4 15.5861 43.7652 16.4678 44.4154 17.118C45.0655 17.7681 45.9473 18.1333 46.8667 18.1333C47.7861 18.1333 48.6678 17.7681 49.318 17.118C49.9681 16.4678 50.3333 15.5861 50.3333 14.6667V12.9333H54.6667C55.3556 12.9354 56.0157 13.21 56.5029 13.6971C56.99 14.1843 57.2646 14.8444 57.2667 15.5333V21.6Z" stroke="#1C2D5A" stroke-width="0.8"/>
<path d="M31.4682 29.4007C31.4682 28.8879 31.2645 28.3962 30.9019 28.0336C30.5393 27.671 30.0476 27.4674 29.5348 27.4674H26.0682C25.5554 27.4674 25.0636 27.671 24.7011 28.0336C24.3385 28.3962 24.1348 28.8879 24.1348 29.4007V32.0007C24.1348 32.5134 24.3385 33.0052 24.7011 33.3678C25.0636 33.7303 25.5554 33.934 26.0682 33.934H29.5348C30.0476 33.934 30.5393 33.7303 30.9019 33.3678C31.2645 33.0052 31.4682 32.5134 31.4682 32.0007V29.4007ZM26.2682 31.8007V29.6007H29.3348V31.8007H26.2682Z" fill="#1C2D5A" stroke="#1C2D5A" stroke-width="0.4"/>
<path d="M21.0647 29.4007C21.0647 28.8879 20.861 28.3962 20.4985 28.0336C20.1359 27.671 19.6441 27.4674 19.1314 27.4674H15.6647C15.152 27.4674 14.6602 27.671 14.2977 28.0336C13.9351 28.3962 13.7314 28.8879 13.7314 29.4007V32.0007C13.7314 32.5134 13.9351 33.0052 14.2977 33.3678C14.6602 33.7303 15.152 33.934 15.6647 33.934H19.1314C19.6441 33.934 20.1359 33.7303 20.4985 33.3678C20.861 33.0052 21.0647 32.5134 21.0647 32.0007V29.4007ZM15.8647 31.8007V29.6007H18.9314V31.8007H15.8647Z" fill="#1C2D5A" stroke="#1C2D5A" stroke-width="0.4"/>
<path d="M50.3326 33.934C50.8453 33.934 51.3371 33.7303 51.6996 33.3678C52.0622 33.0052 52.2659 32.5134 52.2659 32.0007V29.4007C52.2659 28.8879 52.0622 28.3962 51.6996 28.0336C51.3371 27.671 50.8453 27.4674 50.3326 27.4674H46.8659C46.3531 27.4674 45.8614 27.671 45.4988 28.0336C45.1362 28.3962 44.9326 28.8879 44.9326 29.4007V32.0007C44.9326 32.5134 45.1362 33.0052 45.4988 33.3678C45.8614 33.7303 46.3531 33.934 46.8659 33.934H50.3326ZM47.0659 29.6007H50.1326V31.8007H47.0659V29.6007Z" fill="#1C2D5A" stroke="#1C2D5A" stroke-width="0.4"/>
<path d="M31.4682 37.199C31.4682 36.6863 31.2645 36.1945 30.9019 35.832C30.5393 35.4694 30.0476 35.2657 29.5348 35.2657H26.0682C25.5554 35.2657 25.0636 35.4694 24.7011 35.832C24.3385 36.1945 24.1348 36.6863 24.1348 37.199V39.799C24.1348 40.3118 24.3385 40.8035 24.7011 41.1661C25.0636 41.5287 25.5554 41.7324 26.0682 41.7324H29.5348C30.0476 41.7324 30.5393 41.5287 30.9019 41.1661C31.2645 40.8035 31.4682 40.3118 31.4682 39.799V37.199ZM26.2682 39.599V37.399H29.3348V39.599H26.2682Z" fill="#1C2D5A" stroke="#1C2D5A" stroke-width="0.4"/>
<path d="M21.0647 37.199C21.0647 36.6863 20.861 36.1945 20.4985 35.832C20.1359 35.4694 19.6441 35.2657 19.1314 35.2657H15.6647C15.152 35.2657 14.6602 35.4694 14.2977 35.832C13.9351 36.1945 13.7314 36.6863 13.7314 37.199V39.799C13.7314 40.3118 13.9351 40.8035 14.2977 41.1661C14.6602 41.5287 15.152 41.7324 15.6647 41.7324H19.1314C19.6441 41.7324 20.1359 41.5287 20.4985 41.1661C20.861 40.8035 21.0647 40.3118 21.0647 39.799V37.199ZM15.8647 39.599V37.399H18.9314V39.599H15.8647Z" fill="#1C2D5A" stroke="#1C2D5A" stroke-width="0.4"/>
<path d="M29.5348 43.0661H26.0682C25.5554 43.0661 25.0636 43.2698 24.7011 43.6324C24.3385 43.9949 24.1348 44.4867 24.1348 44.9994V47.5994C24.1348 48.1122 24.3385 48.604 24.7011 48.9665C25.0636 49.3291 25.5554 49.5328 26.0682 49.5328H29.5348C30.0476 49.5328 30.5393 49.3291 30.9019 48.9665C31.2645 48.604 31.4682 48.1122 31.4682 47.5994V44.9994C31.4682 44.4867 31.2645 43.9949 30.9019 43.6324C30.5393 43.2698 30.0476 43.0661 29.5348 43.0661ZM26.2682 47.3994V45.1994H29.3348V47.3994H26.2682Z" fill="#1C2D5A" stroke="#1C2D5A" stroke-width="0.4"/>
<path d="M36.4675 33.934H39.9342C40.4469 33.934 40.9387 33.7303 41.3013 33.3678C41.6638 33.0052 41.8675 32.5134 41.8675 32.0007V29.4007C41.8675 28.8879 41.6638 28.3962 41.3013 28.0336C40.9387 27.671 40.4469 27.4674 39.9342 27.4674H36.4675C35.9548 27.4674 35.463 27.671 35.1004 28.0336C34.7379 28.3962 34.5342 28.8879 34.5342 29.4007V32.0007C34.5342 32.5134 34.7379 33.0052 35.1004 33.3678C35.463 33.7303 35.9548 33.934 36.4675 33.934ZM36.6675 29.6007H39.7342V31.8007H36.6675V29.6007Z" fill="#1C2D5A" stroke="#1C2D5A" stroke-width="0.4"/>
<path d="M34.5342 39.799C34.5342 40.3118 34.7379 40.8035 35.1004 41.1661C35.463 41.5287 35.9548 41.7324 36.4675 41.7324C36.7504 41.7324 37.0217 41.62 37.2218 41.4199C37.4218 41.2199 37.5342 40.9486 37.5342 40.6657C37.5342 40.3828 37.4218 40.1115 37.2218 39.9115C37.0695 39.7592 36.876 39.6577 36.6675 39.6179V37.399H39.9342C40.2171 37.399 40.4884 37.2867 40.6884 37.0866C40.8885 36.8866 41.0009 36.6153 41.0009 36.3324C41.0009 36.0495 40.8885 35.7782 40.6884 35.5781C40.4884 35.3781 40.2171 35.2657 39.9342 35.2657H36.4675C35.9548 35.2657 35.463 35.4694 35.1004 35.832C34.7379 36.1945 34.5342 36.6863 34.5342 37.199V39.799Z" fill="#1C2D5A" stroke="#1C2D5A" stroke-width="0.4"/>
<path d="M19.1314 43.0661H15.6647C15.152 43.0661 14.6602 43.2698 14.2977 43.6324C13.9351 43.9949 13.7314 44.4867 13.7314 44.9994V47.5994C13.7314 48.1122 13.9351 48.604 14.2977 48.9665C14.6602 49.3291 15.152 49.5328 15.6647 49.5328H19.1314C19.6441 49.5328 20.1359 49.3291 20.4985 48.9665C20.861 48.604 21.0647 48.1122 21.0647 47.5994V44.9994C21.0647 44.4867 20.861 43.9949 20.4985 43.6324C20.1359 43.2698 19.6441 43.0661 19.1314 43.0661ZM15.8647 47.3994V45.1994H18.9314V47.3994H15.8647Z" fill="#1C2D5A" stroke="#1C2D5A" stroke-width="0.4"/>
<path d="M47.7345 35.2657H47.7342C45.4664 35.2657 43.2494 35.9382 41.3637 37.1982C39.478 38.4582 38.0083 40.249 37.1404 42.3443C36.2725 44.4395 36.0455 46.7451 36.4879 48.9694C36.9304 51.1937 38.0224 53.2369 39.6261 54.8405C41.2297 56.4442 43.2729 57.5363 45.4972 57.9787C47.7215 58.4211 50.0271 58.1941 52.1223 57.3262C54.2176 56.4583 56.0085 54.9886 57.2684 53.1029C58.5284 51.2172 59.2009 49.0003 59.2009 46.7324V46.7321C59.1974 43.6921 57.9882 40.7776 55.8386 38.628C53.689 36.4784 50.7745 35.2692 47.7345 35.2657ZM47.734 56.0657C45.8881 56.0656 44.0837 55.5183 42.5489 54.4927C41.0141 53.4672 39.8178 52.0095 39.1114 50.3041C38.405 48.5986 38.2201 46.722 38.5802 44.9115C38.9404 43.101 39.8293 41.438 41.1346 40.1327C42.4399 38.8274 44.1029 37.9385 45.9134 37.5784C47.7239 37.2182 49.6005 37.4031 51.306 38.1095C53.0114 38.8159 54.4691 40.0122 55.4946 41.547C56.5201 43.0818 57.0675 44.8862 57.0676 46.7321C57.0647 49.2066 56.0804 51.579 54.3306 53.3287C52.5809 55.0785 50.2085 56.0628 47.734 56.0657Z" fill="#1C2D5A" stroke="#1C2D5A" stroke-width="0.4"/>
<path d="M52.6001 42.957L52.6 42.9569L52.5976 42.9594L45.9981 49.5589L43.0759 46.6358L43.0734 46.6334C42.8722 46.4391 42.6027 46.3316 42.3231 46.334C42.0434 46.3364 41.7759 46.4486 41.5781 46.6464C41.3803 46.8441 41.2681 47.1117 41.2657 47.3913C41.2633 47.671 41.3708 47.9405 41.5651 48.1416V48.1417L41.5675 48.1441L45.2439 51.8214C45.444 52.0214 45.7152 52.1337 45.9981 52.1337C46.2809 52.1337 46.5522 52.0214 46.7522 51.8214L54.1059 44.4677L54.1083 44.4652C54.3026 44.2641 54.4102 43.9946 54.4077 43.7149C54.4053 43.4353 54.2931 43.1677 54.0953 42.97C53.8976 42.7722 53.63 42.66 53.3504 42.6576C53.0707 42.6552 52.8012 42.7627 52.6001 42.957Z" fill="#1C2D5A" stroke="#1C2D5A" stroke-width="0.4"/>
</g>
</svg>
