<svg width="52" height="52" viewBox="0 0 52 52" fill="none" xmlns="http://www.w3.org/2000/svg">
<g clip-path="url(#clip0_221_298)">
<path d="M40.0627 20.4821C42.8739 18.3769 44.6801 15.1254 44.6801 11.483C44.6801 5.15125 39.2231 0 32.5155 0C25.8078 0 20.3507 5.15125 20.3507 11.483C20.3507 11.898 20.3748 12.3079 20.4205 12.7116C19.0378 11.9958 17.4521 11.5879 15.767 11.5879C10.4122 11.5879 6.05593 15.701 6.05593 20.7566C6.05593 23.3925 7.24176 25.7704 9.13412 27.4446C4.93823 29.191 2 33.1671 2 37.7822V48.4441C2 50.4049 3.68267 52 5.75101 52H19.3779H20.6035H45.6528C48.0499 52 50 50.1514 50 47.8789V33.8943C50 27.73 45.8517 22.4675 40.0627 20.4821ZM32.5155 3.48536C37.1958 3.48536 41.0034 7.07308 41.0034 11.483C41.0034 15.8929 37.1958 19.4806 32.5155 19.4806C27.8351 19.4806 24.0274 15.8929 24.0274 11.483C24.0274 7.07308 27.8351 3.48536 32.5155 3.48536ZM15.767 15.0733C19.0944 15.0733 21.8015 17.6228 21.8015 20.7566C21.8015 21.2111 21.7437 21.6621 21.6317 22.0986C19.9411 23.1891 18.4959 24.597 17.3927 26.2317C16.8665 26.3699 16.3218 26.4401 15.767 26.4401C12.4396 26.4401 9.73255 23.8905 9.73255 20.7566C9.73255 17.6229 12.4396 15.0733 15.767 15.0733ZM5.67662 48.4441V37.7822C5.67662 33.4819 9.36709 29.9834 13.9033 29.9834H15.6062C15.2315 31.2267 15.0308 32.5387 15.0308 33.8943V47.8789C15.0308 48.0951 15.0487 48.3074 15.0826 48.5146H5.75101C5.71424 48.5146 5.67662 48.479 5.67662 48.4441ZM46.3234 47.8789C46.3234 48.2235 46.0163 48.5146 45.6528 48.5146H20.6036H19.378C19.0145 48.5146 18.7074 48.2235 18.7074 47.8789V33.8943C18.7074 27.9545 23.8051 23.122 30.0709 23.122H34.9599C41.2257 23.122 46.3234 27.9545 46.3234 33.8943V47.8789Z" fill="url(#paint0_linear_221_298)"/>
</g>
<defs>
<linearGradient id="paint0_linear_221_298" x1="-4" y1="-8.13798" x2="66.262" y2="66.7219" gradientUnits="userSpaceOnUse">
<stop stop-color="#1C2D5A"/>
<stop offset="1" stop-color="#4FC3DD" stop-opacity="0.96"/>
</linearGradient>
<clipPath id="clip0_221_298">
<rect width="52" height="52" fill="white"/>
</clipPath>
</defs>
</svg>
