<svg width="66" height="59" viewBox="0 0 66 59" fill="none" xmlns="http://www.w3.org/2000/svg">
<g clip-path="url(#clip0_30_3)">
<path d="M59.2405 58.6225C69.5736 56.4239 66.8385 30.5055 61.5 20.6133C51.786 2.6133 31.3016 -6.46078 9.6587 4.8669C2.22931 8.7554 -3.39111 18.0145 1.35399 27.0239C5.8934 35.6419 24.9629 35.7615 32.7376 41.1065C42.918 48.1054 43.3135 62.0115 59.2405 58.6225Z" fill="url(#paint0_linear_30_3)"/>
<mask id="mask0_30_3" style="mask-type:alpha" maskUnits="userSpaceOnUse" x="-2" y="4" width="52" height="53">
<path d="M50 4.6133H-2V56.6133H50V4.6133Z" fill="white"/>
</mask>
<g mask="url(#mask0_30_3)">
<path d="M49.3653 35.8402L49.3652 35.8403L48.025 37.1801L50.224 44.5612L50.2241 44.5615C50.3407 44.954 50.2335 45.3799 49.943 45.6698L47.9919 47.6209C47.5127 48.1007 46.7014 48.0379 46.3013 47.491L35.8465 33.2078C35.4818 32.7101 35.5901 32.0114 36.0879 31.6469H36.088C36.5855 31.2829 37.2841 31.3908 37.6483 31.8884C37.6483 31.8885 37.6483 31.8885 37.6483 31.8885L47.3337 45.1208L47.8936 44.5611L40.8931 21.0601C38.7946 23.0379 36.5143 25.1167 34.2034 27.182L35.6222 29.1205C35.9497 29.568 35.8952 30.2045 35.4911 30.5883C35.0081 31.047 34.215 30.979 33.8199 30.4393V30.4392L32.5274 28.6729C27.8457 32.8191 23.1853 36.7984 19.7891 39.6638L21.8633 45.0569C22.0223 45.4692 21.9228 45.9361 21.6109 46.248L19.2983 48.5605C18.8662 48.9927 18.1509 48.9929 17.7189 48.5604L6.1548 36.9963C5.7189 36.5604 5.7192 35.8537 6.1547 35.4176L6.1548 35.4174L8.4678 33.1045C8.7799 32.7924 9.2463 32.6937 9.6581 32.8519L9.6582 32.852L15.052 34.9267C17.9174 31.5305 21.8967 26.8697 26.0425 22.1884L7.2248 8.4144C7.2248 8.4144 7.2248 8.4144 7.2247 8.4144C6.6779 8.0143 6.6151 7.203 7.0948 6.7239M49.3653 35.8402L7.3422 6.9715ZM49.3653 35.8402C50.4382 34.7668 50.4382 33.0215 49.3653 31.9481L49.3651 31.9479M49.3653 35.8402L49.3651 31.9479ZM7.0948 6.7239L7.3422 6.9715ZM7.0948 6.7239L7.0947 6.724L7.3422 6.9715M7.0948 6.7239L9.046 4.7728L9.2937 5.02M7.3422 6.9715L9.2937 5.02ZM9.2937 5.02L9.0462 4.7725L9.046 4.7727L9.2937 5.02ZM49.3651 31.9479C48.8457 31.429 48.1537 31.1421 47.419 31.1421C47.0269 31.1421 46.6464 31.2239 46.2976 31.3796L46.1675 30.9431L47.6303 29.4799C47.6304 29.4798 47.6304 29.4798 47.6304 29.4798C48.7037 28.4065 48.7037 26.661 47.6303 25.588C46.7631 24.7206 45.4588 24.5563 44.4237 25.0899L42.7081 19.3302C43.4161 18.647 44.0959 17.981 44.7394 17.3376V17.3375M49.3651 31.9479L44.7394 17.3375ZM44.7394 17.3375C46.7388 15.3378 48.3759 13.2109 49.3418 11.3415V11.3414M44.7394 17.3375L49.3418 11.3414ZM49.3418 11.3414C50.1594 9.7587 50.4166 8.5073 50.337 7.5183C50.257 6.5219 49.8375 5.8232 49.3649 5.3506M49.3418 11.3414L43.3739 5.374ZM43.3739 5.374L43.374 5.3739C44.9569 4.5564 46.2084 4.2991 47.1974 4.3785C48.1937 4.4585 48.8924 4.8779 49.3649 5.3506M43.3739 5.374C41.5049 6.3395 39.3776 7.9766 37.3782 9.9764ZM43.3739 5.374L29.6255 10.2917ZM49.3649 5.3506L49.1174 5.598L49.3648 5.3505C49.3649 5.3506 49.3649 5.3506 49.3649 5.3506ZM29.6255 10.2917L35.3855 12.0073C36.0686 11.2992 36.7349 10.6198 37.3782 9.9764M29.6255 10.2917C30.1591 9.2568 29.9948 7.9525 29.1278 7.0851L29.1276 7.085C28.0544 6.0122 26.309 6.0116 25.2359 7.085C25.2359 7.0851 25.2359 7.0851 25.2359 7.0851L23.7727 8.5483L23.3357 8.4182C23.4915 8.0692 23.5732 7.6886 23.5732 7.2964C23.5732 6.5621 23.2864 5.8697 22.7673 5.3505C21.6944 4.2772 19.9485 4.2772 18.8756 5.3505C18.8755 5.3506 18.8755 5.3506 18.8755 5.3506L29.6255 10.2917ZM37.3782 9.9764L37.6257 10.2239ZM37.3782 9.9764L37.6257 10.2239ZM37.6257 10.2239C39.6082 8.241 41.7069 6.6291 43.5346 5.6849L35.4897 12.4035C36.2233 11.6414 36.9378 10.9118 37.6257 10.2239ZM17.5357 6.6904L17.3882 6.8379L17.6357 7.0854L17.7356 6.7499L17.5357 6.6904ZM26.2757 21.9253L26.5593 22.1329C26.4816 22.2206 26.4038 22.3083 26.3262 22.396L26.2757 21.9253ZM26.8151 8.6643H26.8152C27.0133 8.4661 27.3507 8.4661 27.5489 8.6643C27.751 8.8664 27.751 9.1958 27.5489 9.398L27.3369 9.6099L26.2062 9.273L26.8151 8.6643ZM20.4548 6.9298L20.4549 6.9296C20.6566 6.7278 20.9863 6.7276 21.1885 6.9298C21.3905 7.1318 21.3906 7.4611 21.1887 7.6633L21.1885 7.6635L21.0997 7.7521L19.9691 7.4154L20.4548 6.9298ZM38.9574 11.5552H38.9575C40.7875 9.7248 42.7742 8.1975 44.399 7.3582H44.3991C45.0123 7.0413 45.7068 6.7511 46.3391 6.641C46.9783 6.5296 47.4705 6.6142 47.786 6.9298C48.1015 7.2453 48.1861 7.7374 48.0747 8.3766C47.9644 9.0089 47.6743 9.7035 47.3575 10.3168C46.5183 11.9415 44.9906 13.9278 43.1601 15.7583C34.0828 24.8356 17.7139 38.516 13.9538 41.6372L13.0786 40.7619C16.1994 37.0019 29.8794 20.6333 38.9574 11.5552ZM45.3177 27.1671L45.318 27.1668C45.5194 26.9651 45.8492 26.9649 46.0517 27.1671C46.2497 27.3652 46.2496 27.7025 46.0515 27.9006L45.4424 28.5097L45.1055 27.379L45.3177 27.1671ZM10.1546 6.8222L33.6558 13.8223C31.6779 15.9211 29.599 18.2015 27.5334 20.5124L9.5947 7.3818L10.1546 6.8222ZM8.5235 36.2069L9.5338 35.1969L13.5314 36.7344C12.6714 37.7597 11.9775 38.5924 11.4926 39.1759L8.5235 36.2069ZM17.9814 41.1844L19.5189 45.1819L18.5089 46.1919L15.5399 43.2228C16.1233 42.7382 16.9561 42.0443 17.9814 41.1844ZM47.0523 33.5273C47.2544 33.3252 47.5839 33.3252 47.786 33.5273C47.9881 33.7294 47.9881 34.0589 47.786 34.261L47.3002 34.7467L46.9634 33.6162L47.0523 33.5273Z" fill="white"/>
<path d="M49.3653 35.8402L49.3652 35.8403L48.025 37.1801L50.224 44.5612L50.2241 44.5615C50.3407 44.954 50.2335 45.3799 49.943 45.6698L47.9919 47.6209C47.5127 48.1007 46.7014 48.0379 46.3013 47.491L35.8465 33.2078C35.4818 32.7101 35.5901 32.0114 36.0879 31.6469H36.088C36.5855 31.2829 37.2841 31.3908 37.6483 31.8884C37.6483 31.8885 37.6483 31.8885 37.6483 31.8885L47.3337 45.1208L47.8936 44.5611L40.8931 21.0601C38.7946 23.0379 36.5143 25.1167 34.2034 27.182L35.6222 29.1205C35.9497 29.568 35.8952 30.2045 35.4911 30.5883C35.0081 31.047 34.215 30.979 33.8199 30.4393V30.4392L32.5274 28.6729C27.8457 32.8191 23.1853 36.7984 19.7891 39.6638L21.8633 45.0569C22.0223 45.4692 21.9228 45.9361 21.6109 46.248L19.2983 48.5605C18.8662 48.9927 18.1509 48.9929 17.7189 48.5604L6.1548 36.9963C5.7189 36.5604 5.7192 35.8537 6.1547 35.4176L6.1548 35.4174L8.4678 33.1045C8.7799 32.7924 9.2463 32.6937 9.6581 32.8519L9.6582 32.852L15.052 34.9267C17.9174 31.5305 21.8967 26.8697 26.0425 22.1884L7.2248 8.4144C7.2248 8.4144 7.2248 8.4144 7.2247 8.4144C6.6779 8.0143 6.6151 7.203 7.0948 6.7239M49.3653 35.8402L7.3422 6.9715M49.3653 35.8402C50.4382 34.7668 50.4382 33.0215 49.3653 31.9481L49.3651 31.9479M49.3653 35.8402L49.3651 31.9479M7.0948 6.7239L7.3422 6.9715M7.0948 6.7239L7.0947 6.724L7.3422 6.9715M7.0948 6.7239L9.046 4.7728L9.2937 5.02M7.3422 6.9715L9.2937 5.02M49.3651 31.9479C48.8457 31.429 48.1537 31.1421 47.419 31.1421C47.0269 31.1421 46.6464 31.2239 46.2976 31.3796L46.1675 30.9431L47.6303 29.4799C47.6304 29.4798 47.6304 29.4798 47.6304 29.4798C48.7037 28.4065 48.7037 26.661 47.6303 25.588C46.7631 24.7206 45.4588 24.5563 44.4237 25.0899L42.7081 19.3302C43.4161 18.647 44.0959 17.981 44.7394 17.3376V17.3375M49.3651 31.9479L44.7394 17.3375M44.7394 17.3375C46.7388 15.3378 48.3759 13.2109 49.3418 11.3415V11.3414M44.7394 17.3375L49.3418 11.3414M49.3418 11.3414C50.1594 9.7587 50.4166 8.5073 50.337 7.5183C50.257 6.5219 49.8375 5.8232 49.3649 5.3506M49.3418 11.3414L43.3739 5.374M43.3739 5.374L43.374 5.3739C44.9569 4.5564 46.2084 4.2991 47.1974 4.3785C48.1937 4.4585 48.8924 4.8779 49.3649 5.3506M43.3739 5.374C41.5049 6.3395 39.3776 7.9766 37.3782 9.9764M43.3739 5.374L29.6255 10.2917M29.6255 10.2917L35.3855 12.0073C36.0686 11.2992 36.7349 10.6198 37.3782 9.9764M37.3782 9.9764L37.6257 10.2239M37.3782 9.9764L37.6257 10.2239M9.2937 5.02L9.0462 4.7725L9.046 4.7727L9.2937 5.02ZM49.3649 5.3506L49.1174 5.598L49.3648 5.3505C49.3649 5.3506 49.3649 5.3506 49.3649 5.3506ZM29.6255 10.2917C30.1591 9.2568 29.9948 7.9525 29.1278 7.0851L29.1276 7.085C28.0544 6.0122 26.309 6.0116 25.2359 7.085C25.2359 7.0851 25.2359 7.0851 25.2359 7.0851L23.7727 8.5483L23.3357 8.4182C23.4915 8.0692 23.5732 7.6886 23.5732 7.2964C23.5732 6.5621 23.2864 5.8697 22.7673 5.3505C21.6944 4.2772 19.9485 4.2772 18.8756 5.3505C18.8755 5.3506 18.8755 5.3506 18.8755 5.3506L29.6255 10.2917ZM37.6257 10.2239C39.6082 8.241 41.7069 6.6291 43.5346 5.6849L35.4897 12.4035C36.2233 11.6414 36.9378 10.9118 37.6257 10.2239ZM17.5357 6.6904L17.3882 6.8379L17.6357 7.0854L17.7356 6.7499L17.5357 6.6904ZM26.2757 21.9253L26.5593 22.1329C26.4816 22.2206 26.4038 22.3083 26.3262 22.396L26.2757 21.9253ZM26.8151 8.6643H26.8152C27.0133 8.4661 27.3507 8.4661 27.5489 8.6643C27.751 8.8664 27.751 9.1958 27.5489 9.398L27.3369 9.6099L26.2062 9.273L26.8151 8.6643ZM20.4548 6.9298L20.4549 6.9296C20.6566 6.7278 20.9863 6.7276 21.1885 6.9298C21.3905 7.1318 21.3906 7.4611 21.1887 7.6633L21.1885 7.6635L21.0997 7.7521L19.9691 7.4154L20.4548 6.9298ZM38.9574 11.5552H38.9575C40.7875 9.7248 42.7742 8.1975 44.399 7.3582H44.3991C45.0123 7.0413 45.7068 6.7511 46.3391 6.641C46.9783 6.5296 47.4705 6.6142 47.786 6.9298C48.1015 7.2453 48.1861 7.7374 48.0747 8.3766C47.9644 9.0089 47.6743 9.7035 47.3575 10.3168C46.5183 11.9415 44.9906 13.9278 43.1601 15.7583C34.0828 24.8356 17.7139 38.516 13.9538 41.6372L13.0786 40.7619C16.1994 37.0019 29.8794 20.6333 38.9574 11.5552ZM45.3177 27.1671L45.318 27.1668C45.5194 26.9651 45.8492 26.9649 46.0517 27.1671C46.2497 27.3652 46.2496 27.7025 46.0515 27.9006L45.4424 28.5097L45.1055 27.379L45.3177 27.1671ZM10.1546 6.8222L33.6558 13.8223C31.6779 15.9211 29.599 18.2015 27.5334 20.5124L9.5947 7.3818L10.1546 6.8222ZM8.5235 36.2069L9.5338 35.1969L13.5314 36.7344C12.6714 37.7597 11.9775 38.5924 11.4926 39.1759L8.5235 36.2069ZM17.9814 41.1844L19.5189 45.1819L18.5089 46.1919L15.5399 43.2228C16.1233 42.7382 16.9561 42.0443 17.9814 41.1844ZM47.0523 33.5273C47.2544 33.3252 47.5839 33.3252 47.786 33.5273C47.9881 33.7294 47.9881 34.0589 47.786 34.261L47.3002 34.7467L46.9634 33.6162L47.0523 33.5273Z" stroke="white" stroke-width="0.7"/>
</g>
</g>
<defs>
<linearGradient id="paint0_linear_30_3" x1="-6" y1="13.0625" x2="86.5641" y2="44.2921" gradientUnits="userSpaceOnUse">
<stop stop-color="#F09642" stop-opacity="0.78"/>
<stop offset="1" stop-color="#F0D542" stop-opacity="0.79"/>
</linearGradient>
<clipPath id="clip0_30_3">
<rect width="66" height="59" fill="white"/>
</clipPath>
</defs>
</svg>
