<svg width="26" height="25" viewBox="0 0 26 25" fill="none" xmlns="http://www.w3.org/2000/svg">
<g clip-path="url(#clip0_221_406)">
<path d="M15.1851 24.9512H11.1738C10.5037 24.9512 9.9587 24.4072 9.9587 23.7385V14.7083H7.61839C6.94836 14.7083 6.40332 14.1642 6.40332 13.4956V9.6262C6.40332 8.95748 6.94836 8.41351 7.61839 8.41351H9.9587V6.47583C9.9587 4.55456 10.5632 2.91996 11.7066 1.74904C12.8551 0.572777 14.4602 -0.0488281 16.3484 -0.0488281L19.4077 -0.043869C20.0765 -0.0427246 20.6206 0.501251 20.6206 1.16882V4.76151C20.6206 5.43022 20.0758 5.9742 19.4059 5.9742L17.3462 5.97496C16.718 5.97496 16.558 6.10066 16.5238 6.13918C16.4675 6.20308 16.4004 6.38371 16.4004 6.88248V8.41332H19.2511C19.4658 8.41332 19.6737 8.46615 19.8524 8.56571C20.2378 8.78067 20.4775 9.18713 20.4775 9.62639L20.4759 13.4958C20.4759 14.1642 19.9309 14.7081 19.2609 14.7081H16.4004V23.7385C16.4004 24.4072 15.8551 24.9512 15.1851 24.9512ZM11.4272 23.4856H14.9317V14.0522C14.9317 13.6057 15.2958 13.2425 15.743 13.2425H19.0075L19.0088 9.87911H15.7428C15.2956 9.87911 14.9317 9.51595 14.9317 9.06944V6.88248C14.9317 6.30989 14.99 5.65872 15.423 5.1693C15.9463 4.57764 16.7709 4.50935 17.3458 4.50935L19.1521 4.50859V1.42136L16.3472 1.41678C13.3128 1.41678 11.4272 3.35541 11.4272 6.47583V9.06944C11.4272 9.51576 11.0633 9.87911 10.6161 9.87911H7.8718V13.2425H10.6161C11.0633 13.2425 11.4272 13.6057 11.4272 14.0522V23.4856ZM19.4048 1.42174H19.405H19.4048Z" fill="white"/>
</g>
<defs>
<clipPath id="clip0_221_406">
<rect width="25" height="25" fill="white" transform="translate(0.996094)"/>
</clipPath>
</defs>
</svg>
