<svg width="26" height="25" viewBox="0 0 26 25" fill="none" xmlns="http://www.w3.org/2000/svg">
<g clip-path="url(#clip0_221_412)">
<path d="M19.2288 0H7.76335C4.03182 0 0.996094 3.03573 0.996094 6.76726V18.2329C0.996094 21.9642 4.03182 25 7.76335 25H19.229C22.9603 25 25.996 21.9642 25.996 18.2329V6.76726C25.996 3.03573 22.9603 0 19.2288 0V0ZM24.5304 18.2329C24.5304 21.1561 22.1522 23.5343 19.2288 23.5343H7.76335C4.83997 23.5343 2.4617 21.1561 2.4617 18.2329V6.76726C2.4617 3.84387 4.83997 1.4656 7.76335 1.4656H19.229C22.1522 1.4656 24.5304 3.84387 24.5304 6.76726V18.2329Z" fill="white"/>
<path d="M13.4969 5.66406C9.72757 5.66406 6.66113 8.7305 6.66113 12.4998C6.66113 16.2691 9.72757 19.3355 13.4969 19.3355C17.2662 19.3355 20.3326 16.2691 20.3326 12.4998C20.3326 8.7305 17.2662 5.66406 13.4969 5.66406ZM13.4969 17.8699C10.5359 17.8699 8.12674 15.4609 8.12674 12.4998C8.12674 9.53883 10.5359 7.12967 13.4969 7.12967C16.458 7.12967 18.867 9.53883 18.867 12.4998C18.867 15.4609 16.458 17.8699 13.4969 17.8699Z" fill="white"/>
<path d="M20.4972 3.23682C19.3833 3.23682 18.4773 4.143 18.4773 5.2567C18.4773 6.37059 19.3833 7.27677 20.4972 7.27677C21.6111 7.27677 22.5172 6.37059 22.5172 5.2567C22.5172 4.14281 21.6111 3.23682 20.4972 3.23682ZM20.4972 5.81097C20.1916 5.81097 19.9429 5.56225 19.9429 5.2567C19.9429 4.95095 20.1916 4.70242 20.4972 4.70242C20.8029 4.70242 21.0516 4.95095 21.0516 5.2567C21.0516 5.56225 20.8029 5.81097 20.4972 5.81097Z" fill="white"/>
</g>
<defs>
<clipPath id="clip0_221_412">
<rect width="25" height="25" fill="white" transform="translate(0.996094)"/>
</clipPath>
</defs>
</svg>
