<svg width="26" height="25" viewBox="0 0 26 25" fill="none" xmlns="http://www.w3.org/2000/svg">
<g clip-path="url(#clip0_221_408)">
<path d="M1.48862 20.4113C3.8032 21.88 6.49695 22.6561 9.2782 22.6561C13.3511 22.6561 17.0834 21.0915 19.7886 18.2509C22.3772 15.5321 23.8011 11.879 23.7303 8.1717C24.7115 7.33212 25.8657 5.72899 25.8657 4.16649C25.8657 3.56753 25.2157 3.18733 24.6886 3.49253C23.7667 4.0342 22.9261 4.17587 22.0615 3.93316C20.2959 2.21233 17.6678 1.84983 15.4532 3.04358C13.5178 4.08524 12.4417 5.99149 12.5386 8.07483C9.26883 7.67587 6.24799 6.03628 4.14174 3.48837C3.79591 3.07274 3.13966 3.1217 2.86466 3.59253C1.85007 5.33003 1.86049 7.34358 2.74278 8.96962C2.32299 9.04358 2.06362 9.3967 2.06362 9.77899C2.06362 11.4134 2.79903 12.9155 3.98341 13.9405C3.76257 14.153 3.68966 14.4686 3.78341 14.7498C4.30424 16.3144 5.48341 17.5373 6.95737 18.1498C5.35424 18.9155 3.58132 19.1707 2.0032 18.9769C1.18653 18.8665 0.783408 19.9644 1.48862 20.4113ZM9.49174 18.4175C10.0761 17.9686 9.7657 17.0332 9.03237 17.0175C7.7407 16.9905 6.56466 16.354 5.83237 15.353C6.18549 15.33 6.55112 15.2759 6.89903 15.1821C7.69174 14.9675 7.65424 13.8238 6.84903 13.6623C5.38757 13.3686 4.2407 12.304 3.81049 10.9332C4.2032 11.03 4.6032 11.0842 5.00216 11.0915C5.79278 11.0957 6.09174 10.0821 5.44695 9.65816C3.99382 8.70087 3.37403 7.01024 3.78445 5.42066C6.32195 7.99149 9.76466 9.54045 13.4063 9.71545C13.9282 9.74774 14.3199 9.25712 14.2053 8.76024C13.7105 6.61545 14.9084 5.11233 16.1949 4.41962C17.4678 3.73212 19.5115 3.51753 21.0782 5.16128C21.5438 5.65191 23.1147 5.67066 23.9136 5.4842C23.5553 6.1592 23.0042 6.79983 22.4886 7.16024C22.2688 7.31441 22.1428 7.57066 22.1563 7.83837C22.324 11.2602 21.049 14.6623 18.6584 17.1717C16.2501 19.6998 12.9199 21.0925 9.27924 21.0925C7.83133 21.0925 6.41153 20.8571 5.06987 20.403C6.67403 20.0925 8.19799 19.4134 9.49174 18.4175Z" fill="white"/>
</g>
<defs>
<clipPath id="clip0_221_408">
<rect width="25" height="25" fill="white" transform="translate(0.996094)"/>
</clipPath>
</defs>
</svg>
