<svg width="26" height="25" viewBox="0 0 26 25" fill="none" xmlns="http://www.w3.org/2000/svg">
<g clip-path="url(#clip0_221_410)">
<path d="M13.6471 20.3125C17.2638 20.3125 15.9742 18.0229 16.2534 17.3646C16.2492 16.8729 16.2451 16.4 16.2617 16.1125C16.4909 16.1771 17.0315 16.451 18.1482 17.5365C19.8721 19.276 20.3128 20.3125 21.7055 20.3125H24.269C25.0815 20.3125 25.5044 19.976 25.7159 19.6937C25.9201 19.4208 26.1201 18.9417 25.9013 18.1958C25.3294 16.4 21.994 13.299 21.7867 12.9719C21.818 12.9115 21.868 12.8312 21.894 12.7896H21.8919C22.5503 11.9198 25.0628 8.15521 25.4326 6.64896C25.4336 6.64687 25.4346 6.64375 25.4346 6.64062C25.6346 5.95312 25.4513 5.50729 25.2617 5.25521C24.9763 4.87813 24.5221 4.6875 23.9086 4.6875H21.3451C20.4867 4.6875 19.8357 5.11979 19.5065 5.90833C18.9555 7.30937 17.4076 10.1906 16.2471 11.2104C16.2117 9.76562 16.2357 8.6625 16.2544 7.84271C16.2919 6.24375 16.4128 4.6875 14.7534 4.6875H10.7242C9.68464 4.6875 8.68984 5.82292 9.76693 7.17083C10.7086 8.35208 10.1055 9.01042 10.3086 12.2875C9.51693 11.4385 8.10859 9.14583 7.11276 6.21562C6.83359 5.42292 6.41068 4.68854 5.22005 4.68854H2.65651C1.61693 4.68854 0.996094 5.25521 0.996094 6.20417C0.996094 8.33542 5.7138 20.3125 13.6471 20.3125ZM5.22005 6.25104C5.44609 6.25104 5.46901 6.25104 5.63672 6.72708C6.65651 9.73021 8.94401 14.174 10.6148 14.174C11.8701 14.174 11.8701 12.8875 11.8701 12.4031L11.869 8.54687C11.8003 7.27083 11.3357 6.63542 11.0305 6.25L14.6846 6.25417C14.6867 6.27188 14.6638 10.5198 14.6951 11.549C14.6951 13.0104 15.8555 13.8479 17.6669 12.0146C19.5784 9.85729 20.9003 6.63229 20.9534 6.50104C21.0315 6.31354 21.0992 6.25 21.3451 6.25H23.9086H23.919C23.918 6.25312 23.918 6.25625 23.9169 6.25937C23.6826 7.35312 21.369 10.8385 20.5951 11.9208C20.5826 11.9375 20.5711 11.9552 20.5596 11.9729C20.219 12.5292 19.9419 13.1437 20.6065 14.0083H20.6076C20.668 14.0812 20.8253 14.2521 21.0544 14.4896C21.7669 15.225 24.2107 17.7396 24.4273 18.7396C24.2836 18.7625 24.1273 18.7458 21.7055 18.751C21.1898 18.751 20.7867 17.9802 19.2482 16.4281C17.8648 15.0823 16.9669 14.5323 16.1492 14.5323C14.5617 14.5323 14.6773 15.8208 14.6919 17.3792C14.6971 19.0687 14.6867 18.5344 14.6982 18.6406C14.6055 18.6771 14.3398 18.75 13.6471 18.75C7.03776 18.75 2.73359 8.25938 2.56797 6.25417C2.62526 6.24896 3.4138 6.25208 5.22005 6.25104Z" fill="white"/>
</g>
<defs>
<clipPath id="clip0_221_410">
<rect width="25" height="25" fill="white" transform="translate(0.996094)"/>
</clipPath>
</defs>
</svg>
