<svg width="165" height="54" viewBox="0 0 165 54" fill="none" xmlns="http://www.w3.org/2000/svg">
<g clip-path="url(#clip0_52_22)">
<path d="M20.496 4.20001H21.0313V3.66474H20.496V4.20001ZM20.496 21V21.5353H21.0313V21H20.496ZM16.608 21H16.0727V21.5353H16.608V21ZM16.608 14.112H17.1433V13.5767H16.608V14.112ZM8.976 14.112V13.5767H8.44073V14.112H8.976ZM8.976 21V21.5353H9.51127V21H8.976ZM5.088 21H4.55273V21.5353H5.088V21ZM5.088 4.20001V3.66474H4.55273V4.20001H5.088ZM8.976 4.20001H9.51127V3.66474H8.976V4.20001ZM8.976 10.824H8.44073V11.3593H8.976V10.824ZM16.608 10.824V11.3593H17.1433V10.824H16.608ZM16.608 4.20001V3.66474H16.0727V4.20001H16.608ZM19.9607 4.20001V21H21.0313V4.20001H19.9607ZM20.496 20.4647H16.608V21.5353H20.496V20.4647ZM17.1433 21V14.112H16.0727V21H17.1433ZM16.608 13.5767H8.976V14.6473H16.608V13.5767ZM8.44073 14.112V21H9.51127V14.112H8.44073ZM8.976 20.4647H5.088V21.5353H8.976V20.4647ZM5.62327 21V4.20001H4.55273V21H5.62327ZM5.088 4.73528H8.976V3.66474H5.088V4.73528ZM8.44073 4.20001V10.824H9.51127V4.20001H8.44073ZM8.976 11.3593H16.608V10.2887H8.976V11.3593ZM17.1433 10.824V4.20001H16.0727V10.824H17.1433ZM16.608 4.73528H20.496V3.66474H16.608V4.73528ZM37.7132 17.88H38.2485V17.3447H37.7132V17.88ZM37.7132 21V21.5353H38.2485V21H37.7132ZM24.7052 21H24.1699V21.5353H24.7052V21ZM24.7052 4.20001V3.66474H24.1699V4.20001H24.7052ZM37.4012 4.20001H37.9365V3.66474H37.4012V4.20001ZM37.4012 7.32001V7.85528H37.9365V7.32001H37.4012ZM28.5692 7.32001V6.78474H28.0339V7.32001H28.5692ZM28.5692 10.968H28.0339V11.5033H28.5692V10.968ZM36.3692 10.968H36.9045V10.4327H36.3692V10.968ZM36.3692 13.992V14.5273H36.9045V13.992H36.3692ZM28.5692 13.992V13.4567H28.0339V13.992H28.5692ZM28.5692 17.88H28.0339V18.4153H28.5692V17.88ZM37.1779 17.88V21H38.2485V17.88H37.1779ZM37.7132 20.4647H24.7052V21.5353H37.7132V20.4647ZM25.2405 21V4.20001H24.1699V21H25.2405ZM24.7052 4.73528H37.4012V3.66474H24.7052V4.73528ZM36.8659 4.20001V7.32001H37.9365V4.20001H36.8659ZM37.4012 6.78474H28.5692V7.85528H37.4012V6.78474ZM28.0339 7.32001V10.968H29.1045V7.32001H28.0339ZM28.5692 11.5033H36.3692V10.4327H28.5692V11.5033ZM35.8339 10.968V13.992H36.9045V10.968H35.8339ZM36.3692 13.4567H28.5692V14.5273H36.3692V13.4567ZM28.0339 13.992V17.88H29.1045V13.992H28.0339ZM28.5692 18.4153H37.7132V17.3447H28.5692V18.4153ZM59.2905 12.24L59.0552 11.7592L57.8224 12.3625L59.1382 12.7531L59.2905 12.24ZM61.6425 13.728L61.2226 14.06L61.6425 13.728ZM60.7545 19.752L60.4382 19.3202L60.4353 19.3223L60.7545 19.752ZM47.6505 21H47.1152V21.5353H47.6505V21ZM47.6505 4.20001V3.66474H47.1152V4.20001H47.6505ZM60.0345 5.32801L60.3388 4.88768L60.0345 5.32801ZM61.0425 10.752L61.4879 11.0489L61.4913 11.0437L61.0425 10.752ZM51.5145 11.16H50.9792V11.6953H51.5145V11.16ZM57.0585 10.656L57.3872 11.0786L57.3966 11.071L57.0585 10.656ZM57.0345 7.60801L56.6963 8.02303L56.7038 8.0289L57.0345 7.60801ZM51.5145 7.08001V6.54474H50.9792V7.08001H51.5145ZM51.5145 13.872V13.3367H50.9792V13.872H51.5145ZM51.5145 18.12H50.9792V18.6553H51.5145V18.12ZM59.1382 12.7531C60.0799 13.0327 60.7607 13.4758 61.2226 14.06L62.0624 13.396C61.4363 12.6042 60.5491 12.0553 59.4428 11.7269L59.1382 12.7531ZM61.2226 14.06C61.681 14.6397 61.9232 15.3656 61.9232 16.272H62.9938C62.9938 15.1624 62.692 14.1923 62.0624 13.396L61.2226 14.06ZM61.9232 16.272C61.9232 17.6007 61.4277 18.5955 60.4382 19.3202L61.0708 20.1838C62.3533 19.2445 62.9938 17.9193 62.9938 16.272H61.9232ZM60.4353 19.3223C59.4436 20.059 57.9663 20.4647 55.9305 20.4647V21.5353C58.0867 21.5353 59.8254 21.109 61.0737 20.1817L60.4353 19.3223ZM55.9305 20.4647H47.6505V21.5353H55.9305V20.4647ZM48.1858 21V4.20001H47.1152V21H48.1858ZM47.6505 4.73528H55.4745V3.66474H47.6505V4.73528ZM55.4745 4.73528C57.3668 4.73528 58.7649 5.10116 59.7302 5.76833L60.3388 4.88768C59.1281 4.05086 57.4862 3.66474 55.4745 3.66474V4.73528ZM59.7302 5.76833C60.6648 6.41432 61.1312 7.31686 61.1312 8.54401H62.2018C62.2018 6.98716 61.5802 5.7457 60.3388 4.88768L59.7302 5.76833ZM61.1312 8.54401C61.1312 9.28216 60.9482 9.91491 60.5937 10.4603L61.4913 11.0437C61.9688 10.3091 62.2018 9.46986 62.2018 8.54401H61.1312ZM60.5971 10.4551C60.2396 10.9914 59.7323 11.4279 59.0552 11.7592L59.5258 12.7208C60.3527 12.3161 61.0134 11.7606 61.4879 11.0489L60.5971 10.4551ZM51.5145 11.6953H55.1385V10.6247H51.5145V11.6953ZM55.1385 11.6953C56.0439 11.6953 56.822 11.5181 57.3871 11.0785L56.7299 10.2335C56.431 10.4659 55.9291 10.6247 55.1385 10.6247V11.6953ZM57.3966 11.071C57.9792 10.5962 58.2418 9.91629 58.2418 9.12001H57.1712C57.1712 9.66773 57.0018 10.0118 56.7204 10.241L57.3966 11.071ZM58.2418 9.12001C58.2418 8.32784 57.9629 7.65677 57.3652 7.18712L56.7038 8.0289C57.0021 8.26325 57.1712 8.60018 57.1712 9.12001H58.2418ZM57.3726 7.19305C56.808 6.73296 56.0353 6.54474 55.1385 6.54474V7.61528C55.9057 7.61528 56.397 7.77906 56.6964 8.02297L57.3726 7.19305ZM55.1385 6.54474H51.5145V7.61528H55.1385V6.54474ZM50.9792 7.08001V11.16H52.0498V7.08001H50.9792ZM55.7865 18.6553C56.7545 18.6553 57.5792 18.4667 58.1702 18.0001C58.7852 17.5146 59.0578 16.8006 59.0578 15.96H57.9872C57.9872 16.5594 57.8038 16.9254 57.5068 17.1599C57.1858 17.4133 56.6425 17.5847 55.7865 17.5847V18.6553ZM59.0578 15.96C59.0578 15.1369 58.7806 14.4396 58.1632 13.9685C57.5732 13.5182 56.7514 13.3367 55.7865 13.3367V14.4073C56.6456 14.4073 57.1918 14.5738 57.5138 14.8195C57.8084 15.0443 57.9872 15.3911 57.9872 15.96H59.0578ZM55.7865 13.3367H51.5145V14.4073H55.7865V13.3367ZM50.9792 13.872V18.12H52.0498V13.872H50.9792ZM51.5145 18.6553H55.7865V17.5847H51.5145V18.6553ZM78.3733 11.088L78.0294 11.4982L78.0324 11.5007L78.3733 11.088ZM78.2053 19.512L78.5464 19.9246L78.5469 19.9241L78.2053 19.512ZM65.5333 21H64.998V21.5353H65.5333V21ZM65.5333 4.20001V3.66474H64.998V4.20001H65.5333ZM69.3973 4.20001H69.9326V3.66474H69.3973V4.20001ZM69.3973 9.72001H68.862V10.2553H69.3973V9.72001ZM75.2533 17.376L74.904 16.9704L74.8984 16.9753L75.2533 17.376ZM69.3973 12.6V12.0647H68.862V12.6H69.3973ZM69.3973 18.12H68.862V18.6553H69.3973V18.12ZM82.1653 4.20001V3.66474H81.63V4.20001H82.1653ZM86.0293 4.20001H86.5646V3.66474H86.0293V4.20001ZM86.0293 21V21.5353H86.5646V21H86.0293ZM82.1653 21H81.63V21.5353H82.1653V21ZM73.6693 10.2553C75.646 10.2553 77.0726 10.6962 78.0295 11.4982L78.7172 10.6778C77.498 9.65584 75.7886 9.18474 73.6693 9.18474V10.2553ZM78.0324 11.5007C78.9832 12.2861 79.494 13.4679 79.494 15.144H80.5646C80.5646 13.2361 79.9715 11.7139 78.7142 10.6753L78.0324 11.5007ZM79.494 15.144C79.494 16.9248 78.9317 18.2146 77.8637 19.0999L78.5469 19.9241C79.9109 18.7934 80.5646 17.1712 80.5646 15.144H79.494ZM77.8643 19.0994C76.7928 19.9852 75.2349 20.4647 73.1173 20.4647V21.5353C75.3838 21.5353 77.2178 21.0228 78.5464 19.9246L77.8643 19.0994ZM73.1173 20.4647H65.5333V21.5353H73.1173V20.4647ZM66.0686 21V4.20001H64.998V21H66.0686ZM65.5333 4.73528H69.3973V3.66474H65.5333V4.73528ZM68.862 4.20001V9.72001H69.9326V4.20001H68.862ZM69.3973 10.2553H73.6693V9.18474H69.3973V10.2553ZM72.9013 18.6553C73.9941 18.6553 74.9207 18.3857 75.6082 17.7767L74.8984 16.9753C74.466 17.3583 73.8245 17.5847 72.9013 17.5847V18.6553ZM75.6026 17.7816C76.3245 17.16 76.6526 16.2749 76.6526 15.216H75.582C75.582 16.0451 75.3341 16.6 74.904 16.9704L75.6026 17.7816ZM76.6526 15.216C76.6526 14.2289 76.3438 13.4023 75.6511 12.8388C74.9795 12.2925 74.0321 12.0647 72.9013 12.0647V13.1353C73.9145 13.1353 74.5751 13.3435 74.9755 13.6692C75.3548 13.9777 75.582 14.4591 75.582 15.216H76.6526ZM72.9013 12.0647H69.3973V13.1353H72.9013V12.0647ZM68.862 12.6V18.12H69.9326V12.6H68.862ZM69.3973 18.6553H72.9013V17.5847H69.3973V18.6553ZM82.1653 4.73528H86.0293V3.66474H82.1653V4.73528ZM85.494 4.20001V21H86.5646V4.20001H85.494ZM86.0293 20.4647H82.1653V21.5353H86.0293V20.4647ZM82.7006 21V4.20001H81.63V21H82.7006ZM93.237 4.20001L93.6788 3.89782L93.5194 3.66474H93.237V4.20001ZM96.717 9.28801L96.2752 9.59019L96.717 10.2361L97.1588 9.59019L96.717 9.28801ZM100.197 4.20001V3.66474H99.9146L99.7552 3.89782L100.197 4.20001ZM104.757 4.20001L105.196 4.50564L105.781 3.66474H104.757V4.20001ZM99.165 12.24L98.7256 11.9344L98.5138 12.2389L98.7245 12.5441L99.165 12.24ZM105.213 21V21.5353H106.233L105.653 20.6959L105.213 21ZM100.629 21L100.191 21.3077L100.351 21.5353H100.629V21ZM96.717 15.432L97.155 15.1243L96.7143 14.4971L96.2773 15.1268L96.717 15.432ZM92.853 21V21.5353H93.1331L93.2928 21.3052L92.853 21ZM88.365 21L87.9261 20.6935L87.3383 21.5353H88.365V21ZM94.365 12.408L94.8039 12.7145L95.0157 12.4111L94.8068 12.1057L94.365 12.408ZM88.749 4.20001V3.66474H87.7342L88.3072 4.50227L88.749 4.20001ZM92.7952 4.50219L96.2752 9.59019L97.1588 8.98583L93.6788 3.89782L92.7952 4.50219ZM97.1588 9.59019L100.639 4.50219L99.7552 3.89782L96.2752 8.98583L97.1588 9.59019ZM100.197 4.73528H104.757V3.66474H100.197V4.73528ZM104.318 3.89437L98.7256 11.9344L99.6044 12.5456L105.196 4.50564L104.318 3.89437ZM98.7245 12.5441L104.772 21.3041L105.653 20.6959L99.6055 11.9359L98.7245 12.5441ZM105.213 20.4647H100.629V21.5353H105.213V20.4647ZM101.067 20.6923L97.155 15.1243L96.279 15.7397L100.191 21.3077L101.067 20.6923ZM96.2773 15.1268L92.4132 20.6948L93.2928 21.3052L97.1568 15.7372L96.2773 15.1268ZM92.853 20.4647H88.365V21.5353H92.853V20.4647ZM88.8039 21.3065L94.8039 12.7145L93.9261 12.1015L87.9261 20.6935L88.8039 21.3065ZM94.8068 12.1057L89.1908 3.89775L88.3072 4.50227L93.9232 12.7103L94.8068 12.1057ZM88.749 4.73528H93.237V3.66474H88.749V4.73528ZM110.212 20.16L109.958 20.6309L109.96 20.6321L110.212 20.16ZM106.924 17.064L106.463 17.3361L106.467 17.3427L106.924 17.064ZM106.924 8.16001L106.465 7.8838L106.464 7.88544L106.924 8.16001ZM110.212 5.04001L109.96 4.56786L109.958 4.56907L110.212 5.04001ZM122.932 8.16001L122.473 8.43622L122.475 8.43867L122.932 8.16001ZM122.932 17.064L123.389 17.3427L123.39 17.3402L122.932 17.064ZM119.644 20.16L119.898 20.6309L119.644 20.16ZM117.628 17.304L117.89 17.7711L117.896 17.767L117.628 17.304ZM119.5 15.384L119.035 15.1194L119.031 15.1264L119.5 15.384ZM119.5 9.81601L119.031 10.0736L119.035 10.0806L119.5 9.81601ZM117.628 7.92001L117.359 8.38309L117.366 8.38703L117.628 7.92001ZM112.252 7.92001L112.514 8.38709L112.52 8.38303L112.252 7.92001ZM110.356 9.81601L109.891 9.5514L109.887 9.55841L110.356 9.81601ZM110.356 15.384L109.887 15.6416L109.891 15.6486L110.356 15.384ZM112.252 17.304L111.983 17.7671L111.99 17.771L112.252 17.304ZM114.94 20.7527C113.276 20.7527 111.787 20.3947 110.464 19.6879L109.96 20.6321C111.452 21.4293 113.116 21.8233 114.94 21.8233V20.7527ZM110.466 19.6891C109.155 18.9807 108.13 18.014 107.381 16.7853L106.467 17.3427C107.318 18.738 108.485 19.8353 109.958 20.6309L110.466 19.6891ZM107.385 16.7919C106.653 15.552 106.283 14.1591 106.283 12.6H105.213C105.213 14.3369 105.627 15.92 106.463 17.3361L107.385 16.7919ZM106.283 12.6C106.283 11.0409 106.653 9.6571 107.383 8.43458L106.464 7.88544C105.627 9.28692 105.213 10.8632 105.213 12.6H106.283ZM107.382 8.43621C108.132 7.19195 109.157 6.21843 110.466 5.51095L109.958 4.56907C108.483 5.36559 107.316 6.47206 106.465 7.8838L107.382 8.43621ZM110.464 5.51216C111.787 4.80535 113.276 4.44728 114.94 4.44728V3.37674C113.116 3.37674 111.452 3.77067 109.96 4.56786L110.464 5.51216ZM114.94 4.44728C116.604 4.44728 118.083 4.80537 119.39 5.51095L119.898 4.56907C118.42 3.77065 116.763 3.37674 114.94 3.37674V4.44728ZM119.39 5.51095C120.699 6.21843 121.724 7.19195 122.473 8.43621L123.39 7.8838C122.54 6.47207 121.373 5.36559 119.898 4.56907L119.39 5.51095ZM122.475 8.43867C123.22 9.66063 123.597 11.0429 123.597 12.6H124.667C124.667 10.8611 124.244 9.28339 123.389 7.88135L122.475 8.43867ZM123.597 12.6C123.597 14.157 123.22 15.5485 122.473 16.7878L123.39 17.3402C124.244 15.9235 124.667 14.339 124.667 12.6H123.597ZM122.475 16.7853C121.726 18.014 120.701 18.9807 119.39 19.6891L119.898 20.6309C121.371 19.8353 122.538 18.738 123.389 17.3427L122.475 16.7853ZM119.39 19.6891C118.083 20.3946 116.604 20.7527 114.94 20.7527V21.8233C116.763 21.8233 118.42 21.4294 119.898 20.6309L119.39 19.6891ZM114.94 18.5113C116.016 18.5113 117.003 18.2674 117.889 17.771L117.366 16.837C116.653 17.2366 115.848 17.4407 114.94 17.4407V18.5113ZM117.896 17.767C118.781 17.2538 119.475 16.5425 119.969 15.6416L119.031 15.1264C118.629 15.8575 118.074 16.4262 117.359 16.841L117.896 17.767ZM119.965 15.6486C120.48 14.7435 120.731 13.7225 120.731 12.6H119.661C119.661 13.5575 119.448 14.3925 119.035 15.1194L119.965 15.6486ZM120.731 12.6C120.731 11.4775 120.48 10.4565 119.965 9.55143L119.035 10.0806C119.448 10.8075 119.661 11.6425 119.661 12.6H120.731ZM119.969 9.55841C119.474 8.65595 118.778 7.95075 117.889 7.45299L117.366 8.38703C118.078 8.78527 118.63 9.34407 119.031 10.0736L119.969 9.55841ZM117.896 7.45699C117.009 6.94223 116.019 6.68874 114.94 6.68874V7.75928C115.845 7.75928 116.647 7.96979 117.359 8.38303L117.896 7.45699ZM114.94 6.68874C113.861 6.68874 112.871 6.94223 111.983 7.45699L112.52 8.38303C113.233 7.96979 114.035 7.75928 114.94 7.75928V6.68874ZM111.99 7.45299C111.103 7.94982 110.402 8.65276 109.891 9.55143L110.821 10.0806C111.238 9.34726 111.801 8.7862 112.513 8.38703L111.99 7.45299ZM109.887 9.55841C109.39 10.4623 109.149 11.4807 109.149 12.6H110.219C110.219 11.6393 110.425 10.8017 110.825 10.0736L109.887 9.55841ZM109.149 12.6C109.149 13.7193 109.39 14.7377 109.887 15.6416L110.825 15.1264C110.425 14.3983 110.219 13.5607 110.219 12.6H109.149ZM109.891 15.6486C110.401 16.5457 111.1 17.2547 111.983 17.767L112.52 16.841C111.804 16.4253 111.239 15.8543 110.821 15.1194L109.891 15.6486ZM111.99 17.771C112.877 18.2674 113.864 18.5113 114.94 18.5113V17.4407C114.032 17.4407 113.227 17.2366 112.513 16.837L111.99 17.771ZM143.986 17.832H144.522V17.2967H143.986V17.832ZM143.986 24.48V25.0153H144.522V24.48H143.986ZM140.386 24.48H139.851V25.0153H140.386V24.48ZM140.386 21H140.922V20.4647H140.386V21ZM128.53 21V20.4647H127.995V21H128.53ZM128.53 24.48V25.0153H129.066V24.48H128.53ZM124.93 24.48L124.395 24.4781L124.393 25.0153H124.93V24.48ZM124.954 17.832V17.2967H124.421L124.419 17.8301L124.954 17.832ZM125.626 17.832V18.3673H125.635L125.643 18.367L125.626 17.832ZM127.762 15.624L127.248 15.4754L127.762 15.624ZM128.53 9.45601L127.995 9.43647V9.43679L128.53 9.45601ZM128.722 4.20001V3.66474H128.206L128.187 4.18047L128.722 4.20001ZM141.634 4.20001H142.17V3.66474H141.634V4.20001ZM141.634 17.832H141.099V18.3673H141.634V17.832ZM131.962 9.81601L132.497 9.8374V9.83175L131.962 9.81601ZM131.458 14.856L131.984 14.9562V14.955L131.458 14.856ZM130.282 17.832L129.869 17.4914L129.147 18.3673H130.282V17.832ZM137.794 17.832V18.3673H138.33V17.832H137.794ZM137.794 7.36801H138.33V6.83274H137.794V7.36801ZM132.034 7.36801V6.83274H131.515L131.499 7.35227L132.034 7.36801ZM143.451 17.832V24.48H144.522V17.832H143.451ZM143.986 23.9447H140.386V25.0153H143.986V23.9447ZM140.922 24.48V21H139.851V24.48H140.922ZM140.386 20.4647H128.53V21.5353H140.386V20.4647ZM127.995 21V24.48H129.066V21H127.995ZM128.53 23.9447H124.93V25.0153H128.53V23.9447ZM125.466 24.4819L125.49 17.8339L124.419 17.8301L124.395 24.4781L125.466 24.4819ZM124.954 18.3673H125.626V17.2967H124.954V18.3673ZM125.643 18.367C126.289 18.3465 126.85 18.0945 127.301 17.6282C127.739 17.1749 128.055 16.5404 128.277 15.7726L127.248 15.4754C127.054 16.1476 126.805 16.6011 126.532 16.8838C126.271 17.1535 125.972 17.2855 125.609 17.297L125.643 18.367ZM128.277 15.7726C128.711 14.2699 128.969 12.1626 129.065 9.47523L127.995 9.43679C127.9 12.0934 127.646 14.0981 127.248 15.4754L128.277 15.7726ZM129.065 9.47555L129.257 4.21955L128.187 4.18047L127.995 9.43647L129.065 9.47555ZM128.722 4.73528H141.634V3.66474H128.722V4.73528ZM141.099 4.20001V17.832H142.17V4.20001H141.099ZM141.634 18.3673H143.986V17.2967H141.634V18.3673ZM131.427 9.79462C131.348 11.779 131.182 13.4311 130.932 14.757L131.984 14.955C132.247 13.5609 132.417 11.853 132.497 9.8374L131.427 9.79462ZM130.932 14.7558C130.684 16.0624 130.314 16.952 129.869 17.4914L130.695 18.1726C131.306 17.432 131.721 16.3376 131.984 14.9562L130.932 14.7558ZM130.282 18.3673H137.794V17.2967H130.282V18.3673ZM138.33 17.832V7.36801H137.259V17.832H138.33ZM137.794 6.83274H132.034V7.90328H137.794V6.83274ZM131.499 7.35227L131.427 9.80027L132.497 9.83175L132.569 7.38375L131.499 7.35227ZM160.02 4.20001H160.555V3.66474H160.02V4.20001ZM160.02 21V21.5353H160.555V21H160.02ZM156.18 21H155.644V21.5353H156.18V21ZM156.18 16.536H156.715V16.0007H156.18V16.536ZM152.628 16.536V16.0007H152.341L152.182 16.2391L152.628 16.536ZM149.652 21V21.5353H149.938L150.097 21.2969L149.652 21ZM145.548 21L145.107 20.6954L144.526 21.5353H145.548V21ZM149.052 15.936L149.492 16.2406L149.871 15.6925L149.254 15.4405L149.052 15.936ZM146.436 13.848L145.986 14.1378L145.988 14.1413L146.436 13.848ZM146.412 7.12801L146.863 7.41589L146.865 7.41239L146.412 7.12801ZM148.932 4.96801L149.154 5.45509L149.16 5.45233L148.932 4.96801ZM150.324 8.13601L149.973 7.73112L149.968 7.73595L150.324 8.13601ZM150.3 12.672L149.932 13.0615L150.3 12.672ZM156.18 13.464V13.9993H156.715V13.464H156.18ZM156.18 7.36801H156.715V6.83274H156.18V7.36801ZM159.484 4.20001V21H160.555V4.20001H159.484ZM160.02 20.4647H156.18V21.5353H160.02V20.4647ZM156.715 21V16.536H155.644V21H156.715ZM156.18 16.0007H152.628V17.0713H156.18V16.0007ZM152.182 16.2391L149.206 20.7031L150.097 21.2969L153.073 16.8329L152.182 16.2391ZM149.652 20.4647H145.548V21.5353H149.652V20.4647ZM145.988 21.3046L149.492 16.2406L148.611 15.6314L145.107 20.6954L145.988 21.3046ZM149.254 15.4405C148.207 15.0129 147.426 14.3824 146.883 13.5547L145.988 14.1413C146.662 15.1696 147.624 15.9311 148.849 16.4315L149.254 15.4405ZM146.886 13.5582C146.342 12.7143 146.059 11.6909 146.059 10.464H144.988C144.988 11.8611 145.313 13.0937 145.986 14.1378L146.886 13.5582ZM146.059 10.464C146.059 9.25162 146.335 8.2436 146.863 7.41589L145.96 6.84013C145.304 7.86842 144.988 9.08439 144.988 10.464H146.059ZM146.865 7.41239C147.397 6.5637 148.154 5.91093 149.154 5.45505L148.71 4.48097C147.534 5.01709 146.61 5.80432 145.958 6.84363L146.865 7.41239ZM149.16 5.45233C150.162 4.98054 151.361 4.73528 152.772 4.73528V3.66474C151.238 3.66474 149.877 3.93148 148.704 4.48369L149.16 5.45233ZM152.772 4.73528H160.02V3.66474H152.772V4.73528ZM152.868 6.83274C151.687 6.83274 150.696 7.10618 149.973 7.73115L150.674 8.54087C151.135 8.14184 151.84 7.90328 152.868 7.90328V6.83274ZM149.968 7.73595C149.245 8.37854 148.924 9.30503 148.924 10.416H149.995C149.995 9.51099 150.25 8.91748 150.679 8.53607L149.968 7.73595ZM148.924 10.416C148.924 11.4975 149.238 12.4068 149.932 13.0615L150.667 12.2826C150.241 11.8812 149.995 11.2865 149.995 10.416H148.924ZM149.932 13.0615C150.626 13.7158 151.604 13.9993 152.772 13.9993V12.9287C151.764 12.9287 151.093 12.6842 150.667 12.2826L149.932 13.0615ZM152.772 13.9993H156.18V12.9287H152.772V13.9993ZM156.715 13.464V7.36801H155.644V13.464H156.715ZM156.18 6.83274H152.868V7.90328H156.18V6.83274ZM5.088 33.2V32.6647H4.55273V33.2H5.088ZM8.952 33.2H9.48727V32.6647H8.952V33.2ZM8.952 44.144H8.41673V45.7806L9.38382 44.4603L8.952 44.144ZM16.968 33.2V32.6647H16.6966L16.5362 32.8837L16.968 33.2ZM20.616 33.2H21.1513V32.6647H20.616V33.2ZM20.616 50V50.5353H21.1513V50H20.616ZM16.776 50H16.2407V50.5353H16.776V50ZM16.776 39.08H17.3113V37.4463L16.3445 38.7633L16.776 39.08ZM8.76 50V50.5353H9.03108L9.19149 50.3167L8.76 50ZM5.088 50H4.55273V50.5353H5.088V50ZM5.088 33.7353H8.952V32.6647H5.088V33.7353ZM8.41673 33.2V44.144H9.48727V33.2H8.41673ZM9.38382 44.4603L17.3998 33.5163L16.5362 32.8837L8.52018 43.8277L9.38382 44.4603ZM16.968 33.7353H20.616V32.6647H16.968V33.7353ZM20.0807 33.2V50H21.1513V33.2H20.0807ZM20.616 49.4647H16.776V50.5353H20.616V49.4647ZM17.3113 50V39.08H16.2407V50H17.3113ZM16.3445 38.7633L8.32851 49.6833L9.19149 50.3167L17.2075 39.3967L16.3445 38.7633ZM8.76 49.4647H5.088V50.5353H8.76V49.4647ZM5.62327 50V33.2H4.55273V50H5.62327ZM34.3509 41.24L34.1326 40.7513L32.8942 41.3046L34.1767 41.7461L34.3509 41.24ZM36.6309 42.824L36.2037 43.1468L36.212 43.1572L36.6309 42.824ZM33.7269 49.688L33.5514 49.1823L33.5492 49.1831L33.7269 49.688ZM26.5269 49.856L26.3954 50.3749L26.3971 50.3753L26.5269 49.856ZM23.2869 48.536L22.7954 48.3241L22.607 48.7612L23.019 48.9994L23.2869 48.536ZM24.4869 45.752L24.7652 45.2948L24.2392 44.9746L23.9954 45.5401L24.4869 45.752ZM26.9109 46.784L26.7701 47.3005L26.7811 47.3033L26.9109 46.784ZM32.3829 46.496L32.128 46.0253L32.1238 46.0276L32.3829 46.496ZM32.7429 43.328L32.4592 43.7819L32.4655 43.7858L32.7429 43.328ZM26.5269 42.848H25.9917V43.3833H26.5269V42.848ZM26.5269 39.92V39.3847H25.9917V39.92H26.5269ZM32.1669 39.44L31.8558 39.0044L31.8483 39.0099L32.1669 39.44ZM31.8789 36.584L31.607 37.0451L31.6121 37.048L31.8789 36.584ZM27.1749 36.344L27.3023 36.864L27.3122 36.8614L27.1749 36.344ZM24.9429 37.232L24.4441 37.426L24.6686 38.0035L25.2074 37.6974L24.9429 37.232ZM23.7669 34.208L23.5224 33.7318L23.0932 33.9523L23.2681 34.402L23.7669 34.208ZM33.1509 33.416L33.3268 32.9104L33.1509 33.416ZM34.1767 41.7461C35.067 42.0526 35.7329 42.5234 36.2039 43.1467L37.058 42.5013C36.4409 41.6846 35.5869 41.0994 34.5252 40.7339L34.1767 41.7461ZM36.212 43.1572C36.6928 43.7616 36.9357 44.4666 36.9357 45.296H38.0062C38.0062 44.2374 37.6891 43.2944 37.0498 42.4908L36.212 43.1572ZM36.9357 45.296C36.9357 46.1907 36.6467 46.9511 36.0638 47.6033L36.8621 48.3167C37.6232 47.4649 38.0062 46.4493 38.0062 45.296H36.9357ZM36.0638 47.6033C35.4639 48.2746 34.6353 48.806 33.5514 49.1823L33.9025 50.1937C35.1226 49.77 36.1179 49.1494 36.8621 48.3167L36.0638 47.6033ZM33.5492 49.1831C32.4771 49.5606 31.2901 49.7527 29.9829 49.7527V50.8233C31.3958 50.8233 32.7047 50.6154 33.9047 50.1929L33.5492 49.1831ZM29.9829 49.7527C28.876 49.7527 27.7676 49.6144 26.6568 49.3367L26.3971 50.3753C27.5903 50.6736 28.7858 50.8233 29.9829 50.8233V49.7527ZM26.6585 49.3371C25.5707 49.0614 24.5366 48.6402 23.5548 48.0726L23.019 48.9994C24.0853 49.6158 25.2112 50.0746 26.3954 50.3749L26.6585 49.3371ZM23.7785 48.7479L24.9785 45.9639L23.9954 45.5401L22.7954 48.3241L23.7785 48.7479ZM24.2086 46.2092C24.9899 46.6848 25.8446 47.048 26.7701 47.3004L27.0518 46.2676C26.2173 46.04 25.456 45.7152 24.7652 45.2948L24.2086 46.2092ZM26.7811 47.3033C27.7158 47.537 28.6315 47.6553 29.5269 47.6553V46.5847C28.7264 46.5847 27.898 46.479 27.0408 46.2647L26.7811 47.3033ZM29.5269 47.6553C30.7399 47.6553 31.7883 47.4367 32.642 46.9644L32.1238 46.0276C31.4736 46.3873 30.618 46.5847 29.5269 46.5847V47.6553ZM32.6379 46.9667C33.5449 46.4753 34.0702 45.728 34.0702 44.744H32.9997C32.9997 45.264 32.757 45.6847 32.128 46.0253L32.6379 46.9667ZM34.0702 44.744C34.0702 43.9353 33.7105 43.2885 33.0204 42.8702L32.4655 43.7858C32.8313 44.0075 32.9997 44.3047 32.9997 44.744H34.0702ZM33.0266 42.8741C32.3979 42.4811 31.5818 42.3127 30.6309 42.3127V43.3833C31.4721 43.3833 32.064 43.5349 32.4592 43.7819L33.0266 42.8741ZM30.6309 42.3127H26.5269V43.3833H30.6309V42.3127ZM27.0622 42.848V39.92H25.9917V42.848H27.0622ZM26.5269 40.4553H30.3429V39.3847H26.5269V40.4553ZM30.3429 40.4553C31.1912 40.4553 31.9277 40.2833 32.4855 39.8701L31.8483 39.0099C31.5422 39.2367 31.0627 39.3847 30.3429 39.3847V40.4553ZM32.4781 39.8756C33.0696 39.4531 33.3742 38.8493 33.3742 38.12H32.3037C32.3037 38.5107 32.1603 38.7869 31.8558 39.0044L32.4781 39.8756ZM33.3742 38.12C33.3742 37.2451 32.9267 36.569 32.1458 36.12L31.6121 37.048C32.1112 37.335 32.3037 37.6829 32.3037 38.12H33.3742ZM32.1508 36.1229C31.4195 35.6916 30.5087 35.4967 29.4549 35.4967V36.5673C30.3852 36.5673 31.0904 36.7404 31.607 37.0451L32.1508 36.1229ZM29.4549 35.4967C28.6682 35.4967 27.862 35.6079 27.0377 35.8266L27.3122 36.8614C28.0559 36.6641 28.7697 36.5673 29.4549 36.5673V35.4967ZM27.0476 35.8241C26.2155 36.0279 25.4253 36.3423 24.6785 36.7666L25.2074 37.6974C25.8685 37.3217 26.5664 37.0441 27.3023 36.8639L27.0476 35.8241ZM25.4418 37.038L24.2658 34.014L23.2681 34.402L24.4441 37.426L25.4418 37.038ZM24.0114 34.6842C25.7092 33.8123 27.545 33.3753 29.5269 33.3753V32.3047C27.3809 32.3047 25.3767 32.7797 23.5224 33.7318L24.0114 34.6842ZM29.5269 33.3753C30.7863 33.3753 31.9341 33.5595 32.9751 33.9216L33.3268 32.9104C32.1598 32.5045 30.8915 32.3047 29.5269 32.3047V33.3753ZM32.9751 33.9216C34.009 34.2812 34.8064 34.7958 35.3914 35.4521L36.1905 34.7398C35.4635 33.9242 34.5009 33.3188 33.3268 32.9104L32.9751 33.9216ZM35.3914 35.4521C35.9609 36.0912 36.2397 36.8208 36.2397 37.664H37.3102C37.3102 36.5552 36.9329 35.5728 36.1905 34.7398L35.3914 35.4521ZM36.2397 37.664C36.2397 38.3614 36.0534 38.9658 35.6868 39.4953L36.567 40.1047C37.0645 39.3862 37.3102 38.5666 37.3102 37.664H36.2397ZM35.6868 39.4953C35.3153 40.032 34.8031 40.4517 34.1326 40.7513L34.5693 41.7287C35.4028 41.3563 36.0746 40.816 36.567 40.1047L35.6868 39.4953ZM64.6738 46.832H65.2091V46.2967H64.6738V46.832ZM64.6738 53.48V54.0153H65.2091V53.48H64.6738ZM61.0738 53.48H60.5385V54.0153H61.0738V53.48ZM61.0738 50H61.6091V49.4647H61.0738V50ZM49.2178 50V49.4647H48.6825V50H49.2178ZM49.2178 53.48V54.0153H49.7531V53.48H49.2178ZM45.6178 53.48L45.0826 53.4781L45.0806 54.0153H45.6178V53.48ZM45.6418 46.832V46.2967H45.1085L45.1065 46.8301L45.6418 46.832ZM46.3138 46.832V47.3673H46.3223L46.3308 47.367L46.3138 46.832ZM48.4498 44.624L47.9356 44.4754L48.4498 44.624ZM49.2178 38.456L48.6829 38.4365V38.4368L49.2178 38.456ZM49.4098 33.2V32.6647H48.8937L48.8749 33.1805L49.4098 33.2ZM62.3218 33.2H62.8571V32.6647H62.3218V33.2ZM62.3218 46.832H61.7865V47.3673H62.3218V46.832ZM52.6498 38.816L53.1847 38.8374L53.1848 38.8317L52.6498 38.816ZM52.1458 43.856L52.6716 43.9562L52.6718 43.955L52.1458 43.856ZM50.9698 46.832L50.5569 46.4914L49.8343 47.3673H50.9698V46.832ZM58.4818 46.832V47.3673H59.0171V46.832H58.4818ZM58.4818 36.368H59.0171V35.8327H58.4818V36.368ZM52.7218 36.368V35.8327H52.2021L52.1868 36.3523L52.7218 36.368ZM64.1385 46.832V53.48H65.2091V46.832H64.1385ZM64.6738 52.9447H61.0738V54.0153H64.6738V52.9447ZM61.6091 53.48V50H60.5385V53.48H61.6091ZM61.0738 49.4647H49.2178V50.5353H61.0738V49.4647ZM48.6825 50V53.48H49.7531V50H48.6825ZM49.2178 52.9447H45.6178V54.0153H49.2178V52.9447ZM46.1531 53.4819L46.1771 46.8339L45.1065 46.8301L45.0826 53.4781L46.1531 53.4819ZM45.6418 47.3673H46.3138V46.2967H45.6418V47.3673ZM46.3308 47.367C46.9763 47.3465 47.5374 47.0945 47.9885 46.6282C48.427 46.1749 48.7422 45.5404 48.9641 44.7726L47.9356 44.4754C47.7414 45.1476 47.4926 45.6011 47.2191 45.8838C46.9582 46.1535 46.6594 46.2855 46.2968 46.297L46.3308 47.367ZM48.9641 44.7726C49.3982 43.2699 49.6562 41.1626 49.7527 38.4752L48.6829 38.4368C48.5874 41.0934 48.3335 43.0981 47.9356 44.4754L48.9641 44.7726ZM49.7527 38.4755L49.9447 33.2195L48.8749 33.1805L48.6829 38.4365L49.7527 38.4755ZM49.4098 33.7353H62.3218V32.6647H49.4098V33.7353ZM61.7865 33.2V46.832H62.8571V33.2H61.7865ZM62.3218 47.3673H64.6738V46.2967H62.3218V47.3673ZM52.115 38.7946C52.0356 40.779 51.8694 42.4311 51.6198 43.757L52.6718 43.955C52.9343 42.5609 53.104 40.853 53.1847 38.8374L52.115 38.7946ZM51.62 43.7558C51.3711 45.0624 51.0019 45.952 50.5569 46.4914L51.3827 47.1726C51.9937 46.432 52.4085 45.3376 52.6716 43.9562L51.62 43.7558ZM50.9698 47.3673H58.4818V46.2967H50.9698V47.3673ZM59.0171 46.832V36.368H57.9465V46.832H59.0171ZM58.4818 35.8327H52.7218V36.9033H58.4818V35.8327ZM52.1868 36.3523L52.1148 38.8003L53.1848 38.8317L53.2568 36.3837L52.1868 36.3523ZM70.5791 49.16L70.3247 49.6309L70.327 49.6321L70.5791 49.16ZM67.2911 46.064L66.8301 46.3361L66.8341 46.3427L67.2911 46.064ZM67.2911 37.16L66.8326 36.8838L66.8316 36.8854L67.2911 37.16ZM70.5791 34.04L70.327 33.5678L70.3247 33.5691L70.5791 34.04ZM83.2991 37.16L82.8406 37.4362L82.8421 37.4387L83.2991 37.16ZM83.2991 46.064L83.7561 46.3427L83.7576 46.3402L83.2991 46.064ZM80.0111 49.16L80.2655 49.6309L80.0111 49.16ZM77.9951 46.304L78.2567 46.7711L78.2637 46.767L77.9951 46.304ZM79.8671 44.384L79.4018 44.1194L79.3979 44.1264L79.8671 44.384ZM79.8671 38.816L79.3979 39.0736L79.4018 39.0806L79.8671 38.816ZM77.9951 36.92L77.7265 37.3831L77.7336 37.387L77.9951 36.92ZM72.6191 36.92L72.8807 37.3871L72.8877 37.383L72.6191 36.92ZM70.7231 38.816L70.2578 38.5514L70.2539 38.5584L70.7231 38.816ZM70.7231 44.384L70.2539 44.6416L70.2578 44.6486L70.7231 44.384ZM72.6191 46.304L72.3505 46.7671L72.3576 46.771L72.6191 46.304ZM75.3071 49.7527C73.6428 49.7527 72.1547 49.3947 70.8313 48.6879L70.327 49.6321C71.8196 50.4293 73.4835 50.8233 75.3071 50.8233V49.7527ZM70.8335 48.6891C69.5223 47.9807 68.4973 47.014 67.7481 45.7853L66.8341 46.3427C67.6849 47.738 68.8519 48.8353 70.3247 49.6309L70.8335 48.6891ZM67.7521 45.7919C67.0201 44.552 66.6504 43.1591 66.6504 41.6H65.5799C65.5799 43.3369 65.9942 44.92 66.8302 46.3361L67.7521 45.7919ZM66.6504 41.6C66.6504 40.0408 67.0201 38.6571 67.7506 37.4346L66.8316 36.8854C65.9942 38.2869 65.5799 39.8632 65.5799 41.6H66.6504ZM67.7496 37.4362C68.4992 36.1919 69.5239 35.2184 70.8335 34.5109L70.3247 33.5691C68.8503 34.3656 67.6831 35.4721 66.8326 36.8838L67.7496 37.4362ZM70.8313 34.5121C72.1547 33.8053 73.6428 33.4473 75.3071 33.4473V32.3767C73.4835 32.3767 71.8196 32.7707 70.327 33.5679L70.8313 34.5121ZM75.3071 33.4473C76.9716 33.4473 78.4506 33.8054 79.7567 34.5109L80.2655 33.5691C78.7876 32.7706 77.1307 32.3767 75.3071 32.3767V33.4473ZM79.7567 34.5109C81.0663 35.2184 82.0911 36.1919 82.8406 37.4362L83.7576 36.8838C82.9072 35.4721 81.7399 34.3656 80.2655 33.5691L79.7567 34.5109ZM82.8421 37.4387C83.5872 38.6606 83.9639 40.0429 83.9639 41.6H85.0344C85.0344 39.8611 84.611 38.2834 83.7561 36.8813L82.8421 37.4387ZM83.9639 41.6C83.9639 43.157 83.5872 44.5485 82.8406 45.7878L83.7576 46.3402C84.611 44.9235 85.0344 43.339 85.0344 41.6H83.9639ZM82.8421 45.7853C82.0929 47.014 81.0679 47.9807 79.7567 48.6891L80.2655 49.6309C81.7383 48.8353 82.9053 47.738 83.7561 46.3427L82.8421 45.7853ZM79.7567 48.6891C78.4506 49.3946 76.9716 49.7527 75.3071 49.7527V50.8233C77.1307 50.8233 78.7876 50.4294 80.2655 49.6309L79.7567 48.6891ZM75.3071 47.5113C76.383 47.5113 77.3703 47.2674 78.2567 46.771L77.7336 45.837C77.02 46.2366 76.2153 46.4407 75.3071 46.4407V47.5113ZM78.2637 46.767C79.1486 46.2538 79.8417 45.5425 80.3363 44.6416L79.3979 44.1264C78.9965 44.8575 78.4416 45.4262 77.7266 45.841L78.2637 46.767ZM80.3324 44.6486C80.8471 43.7435 81.0984 42.7225 81.0984 41.6H80.0279C80.0279 42.5575 79.8152 43.3925 79.4018 44.1194L80.3324 44.6486ZM81.0984 41.6C81.0984 40.4775 80.8471 39.4565 80.3324 38.5514L79.4018 39.0806C79.8152 39.8075 80.0279 40.6425 80.0279 41.6H81.0984ZM80.3363 38.5584C79.8409 37.6559 79.1455 36.9507 78.2567 36.453L77.7336 37.387C78.4447 37.7853 78.9974 38.3441 79.3979 39.0736L80.3363 38.5584ZM78.2637 36.457C77.3762 35.9422 76.3864 35.6887 75.3071 35.6887V36.7593C76.2119 36.7593 77.0141 36.9698 77.7266 37.383L78.2637 36.457ZM75.3071 35.6887C74.2279 35.6887 73.2381 35.9422 72.3506 36.457L72.8877 37.383C73.6002 36.9698 74.4024 36.7593 75.3071 36.7593V35.6887ZM72.3576 36.453C71.4704 36.9498 70.7688 37.6528 70.2578 38.5514L71.1884 39.0806C71.6054 38.3472 72.1679 37.7862 72.8807 37.387L72.3576 36.453ZM70.2539 38.5584C69.7577 39.4623 69.5159 40.4807 69.5159 41.6H70.5864C70.5864 40.6393 70.7926 39.8017 71.1923 39.0736L70.2539 38.5584ZM69.5159 41.6C69.5159 42.7193 69.7577 43.7377 70.2539 44.6416L71.1923 44.1264C70.7926 43.3983 70.5864 42.5607 70.5864 41.6H69.5159ZM70.2578 44.6486C70.7679 45.5457 71.4673 46.2547 72.3506 46.767L72.8877 45.841C72.171 45.4253 71.6063 44.8543 71.1884 44.1194L70.2578 44.6486ZM72.3576 46.771C73.244 47.2674 74.2313 47.5113 75.3071 47.5113V46.4407C74.399 46.4407 73.5943 46.2366 72.8807 45.837L72.3576 46.771ZM102.782 50L102.247 50.0013L102.248 50.5353H102.782V50ZM102.758 39.944L103.294 39.9427L103.289 38.0112L102.299 39.6696L102.758 39.944ZM97.8142 48.224V48.7593H98.1181L98.2738 48.4984L97.8142 48.224ZM96.0863 48.224L95.6295 48.5032L95.7861 48.7593H96.0863V48.224ZM91.1423 40.136L91.599 39.8568L90.607 38.234V40.136H91.1423ZM91.1423 50V50.5353H91.6775V50H91.1423ZM87.4942 50H86.959V50.5353H87.4942V50ZM87.4942 33.2V32.6647H86.959V33.2H87.4942ZM90.7103 33.2L91.1688 32.9238L91.0127 32.6647H90.7103V33.2ZM96.9983 43.64L96.5397 43.9162L97.0018 44.6833L97.4586 43.9131L96.9983 43.64ZM103.19 33.2V32.6647H102.885L102.73 32.9269L103.19 33.2ZM106.406 33.2L106.942 33.1992L106.941 32.6647H106.406V33.2ZM106.43 50V50.5353H106.966V49.9992L106.43 50ZM103.317 49.9987L103.294 39.9427L102.223 39.9453L102.247 50.0013L103.317 49.9987ZM102.299 39.6696L97.3547 47.9496L98.2738 48.4984L103.218 40.2184L102.299 39.6696ZM97.8142 47.6887H96.0863V48.7593H97.8142V47.6887ZM96.543 47.9448L91.599 39.8568L90.6855 40.4152L95.6295 48.5032L96.543 47.9448ZM90.607 40.136V50H91.6775V40.136H90.607ZM91.1423 49.4647H87.4942V50.5353H91.1423V49.4647ZM88.0295 50V33.2H86.959V50H88.0295ZM87.4942 33.7353H90.7103V32.6647H87.4942V33.7353ZM90.2517 33.4762L96.5397 43.9162L97.4568 43.3638L91.1688 32.9238L90.2517 33.4762ZM97.4586 43.9131L103.651 33.4731L102.73 32.9269L96.5379 43.3669L97.4586 43.9131ZM103.19 33.7353H106.406V32.6647H103.19V33.7353ZM105.871 33.2008L105.895 50.0008L106.966 49.9992L106.942 33.1992L105.871 33.2008ZM106.43 49.4647H102.782V50.5353H106.43V49.4647ZM121.98 46.4L122.474 46.1955L122.338 45.8647H121.98V46.4ZM114.18 46.4V45.8647H113.822L113.685 46.1955L114.18 46.4ZM112.692 50V50.5353H113.05L113.186 50.2045L112.692 50ZM108.708 50L108.219 49.7821L107.883 50.5353H108.708V50ZM116.196 33.2V32.6647H115.848L115.707 32.9821L116.196 33.2ZM120.036 33.2L120.524 32.9815L120.383 32.6647H120.036V33.2ZM127.548 50V50.5353H128.373L128.036 49.7815L127.548 50ZM123.468 50L122.973 50.2045L123.11 50.5353H123.468V50ZM120.756 43.448V43.9833H121.557L121.25 43.2432L120.756 43.448ZM118.092 37.016L118.586 36.8112L118.092 35.6172L117.597 36.8112L118.092 37.016ZM115.428 43.448L114.933 43.2432L114.627 43.9833H115.428V43.448ZM121.98 45.8647H114.18V46.9353H121.98V45.8647ZM113.685 46.1955L112.197 49.7955L113.186 50.2045L114.674 46.6045L113.685 46.1955ZM112.692 49.4647H108.708V50.5353H112.692V49.4647ZM109.197 50.2179L116.685 33.4179L115.707 32.9821L108.219 49.7821L109.197 50.2179ZM116.196 33.7353H120.036V32.6647H116.196V33.7353ZM119.547 33.4185L127.059 50.2185L128.036 49.7815L120.524 32.9815L119.547 33.4185ZM127.548 49.4647H123.468V50.5353H127.548V49.4647ZM123.962 49.7955L122.474 46.1955L121.485 46.6045L122.973 50.2045L123.962 49.7955ZM121.25 43.2432L118.586 36.8112L117.597 37.2208L120.261 43.6528L121.25 43.2432ZM117.597 36.8112L114.933 43.2432L115.922 43.6528L118.586 37.2208L117.597 36.8112ZM115.428 43.9833H120.756V42.9127H115.428V43.9833Z" fill="#878C9A"/>
</g>
<defs>
<clipPath id="clip0_52_22">
<rect width="165" height="54" fill="white"/>
</clipPath>
</defs>
</svg>
