<svg width="732" height="62" viewBox="0 0 732 62" fill="none" xmlns="http://www.w3.org/2000/svg">
<g clip-path="url(#clip0_60_2)">
<path d="M48.7402 10.998H50.7402V8.99804H48.7402V10.998ZM48.7402 52.998V54.998H50.7402V52.998H48.7402ZM39.0202 52.998H37.0202V54.998H39.0202V52.998ZM39.0202 35.778H41.0202V33.778H39.0202V35.778ZM19.9402 35.778V33.778H17.9402V35.778H19.9402ZM19.9402 52.998V54.998H21.9402V52.998H19.9402ZM10.2202 52.998H8.22021V54.998H10.2202V52.998ZM10.2202 10.998V8.99804H8.22021V10.998H10.2202ZM19.9402 10.998H21.9402V8.99804H19.9402V10.998ZM19.9402 27.558H17.9402V29.558H19.9402V27.558ZM39.0202 27.558V29.558H41.0202V27.558H39.0202ZM39.0202 10.998V8.99804H37.0202V10.998H39.0202ZM46.7402 10.998V52.998H50.7402V10.998H46.7402ZM48.7402 50.998H39.0202V54.998H48.7402V50.998ZM41.0202 52.998V35.778H37.0202V52.998H41.0202ZM39.0202 33.778H19.9402V37.778H39.0202V33.778ZM17.9402 35.778V52.998H21.9402V35.778H17.9402ZM19.9402 50.998H10.2202V54.998H19.9402V50.998ZM12.2202 52.998V10.998H8.22021V52.998H12.2202ZM10.2202 12.998H19.9402V8.99804H10.2202V12.998ZM17.9402 10.998V27.558H21.9402V10.998H17.9402ZM19.9402 29.558H39.0202V25.558H19.9402V29.558ZM41.0202 27.558V10.998H37.0202V27.558H41.0202ZM39.0202 12.998H48.7402V8.99804H39.0202V12.998ZM91.7832 45.198H93.7832V43.198H91.7832V45.198ZM91.7832 52.998V54.998H93.7832V52.998H91.7832ZM59.2632 52.998H57.2632V54.998H59.2632V52.998ZM59.2632 10.998V8.99804H57.2632V10.998H59.2632ZM91.0032 10.998H93.0032V8.99804H91.0032V10.998ZM91.0032 18.798V20.798H93.0032V18.798H91.0032ZM68.9232 18.798V16.798H66.9232V18.798H68.9232ZM68.9232 27.918H66.9232V29.918H68.9232V27.918ZM88.4232 27.918H90.4232V25.918H88.4232V27.918ZM88.4232 35.478V37.478H90.4232V35.478H88.4232ZM68.9232 35.478V33.478H66.9232V35.478H68.9232ZM68.9232 45.198H66.9232V47.198H68.9232V45.198ZM89.7832 45.198V52.998H93.7832V45.198H89.7832ZM91.7832 50.998H59.2632V54.998H91.7832V50.998ZM61.2632 52.998V10.998H57.2632V52.998H61.2632ZM59.2632 12.998H91.0032V8.99804H59.2632V12.998ZM89.0032 10.998V18.798H93.0032V10.998H89.0032ZM91.0032 16.798H68.9232V20.798H91.0032V16.798ZM66.9232 18.798V27.918H70.9232V18.798H66.9232ZM68.9232 29.918H88.4232V25.918H68.9232V29.918ZM86.4232 27.918V35.478H90.4232V27.918H86.4232ZM88.4232 33.478H68.9232V37.478H88.4232V33.478ZM66.9232 35.478V45.198H70.9232V35.478H66.9232ZM68.9232 47.198H91.7832V43.198H68.9232V47.198ZM145.726 31.098L144.847 29.3016L140.241 31.5558L145.157 33.0153L145.726 31.098ZM151.606 34.818L150.037 36.0585L151.606 34.818ZM149.386 49.878L148.204 48.2645L148.194 48.2726L149.386 49.878ZM116.626 52.998H114.626V54.998H116.626V52.998ZM116.626 10.998V8.99804H114.626V10.998H116.626ZM147.586 13.818L148.723 12.1728L147.586 13.818ZM150.106 27.378L151.77 28.4874L151.777 28.4778L151.783 28.468L150.106 27.378ZM126.286 28.398H124.286V30.398H126.286V28.398ZM140.146 27.138L141.374 28.7168L141.392 28.7028L141.41 28.6885L140.146 27.138ZM140.086 19.5181L138.823 21.0685L138.837 21.0797L138.851 21.0907L140.086 19.5181ZM126.286 18.198V16.198H124.286V18.198H126.286ZM126.286 35.178V33.178H124.286V35.178H126.286ZM126.286 45.798H124.286V47.798H126.286V45.798ZM145.157 33.0153C147.41 33.684 148.984 34.7266 150.037 36.0585L153.175 33.5776C151.508 31.4695 149.163 30.0321 146.295 29.1808L145.157 33.0153ZM150.037 36.0585C151.077 37.3738 151.646 39.0378 151.646 41.178H155.646C155.646 38.2783 154.855 35.7023 153.175 33.5776L150.037 36.0585ZM151.646 41.178C151.646 44.3029 150.497 46.5856 148.205 48.2645L150.568 51.4916C153.956 49.0105 155.646 45.4932 155.646 41.178H151.646ZM148.194 48.2726C145.873 49.9965 142.341 50.998 137.326 50.998V54.998C142.791 54.998 147.3 53.9196 150.579 51.4835L148.194 48.2726ZM137.326 50.998H116.626V54.998H137.326V50.998ZM118.626 52.998V10.998H114.626V52.998H118.626ZM116.626 12.998H136.186V8.99804H116.626V12.998ZM136.186 12.998C140.843 12.998 144.188 13.9002 146.449 15.4633L148.723 12.1728C145.545 9.97585 141.289 8.99804 136.186 8.99804V12.998ZM146.449 15.4633C148.596 16.9472 149.666 18.994 149.666 21.858H153.666C153.666 17.7621 152.017 14.4489 148.723 12.1728L146.449 15.4633ZM149.666 21.858C149.666 23.5874 149.24 25.0416 148.429 26.2881L151.783 28.468C153.053 26.5145 153.666 24.2887 153.666 21.858H149.666ZM148.442 26.2686C147.621 27.501 146.447 28.5186 144.847 29.3016L146.605 32.8945C148.765 31.8375 150.512 30.3751 151.77 28.4874L148.442 26.2686ZM126.286 30.398H135.346V26.398H126.286V30.398ZM135.346 30.398C137.681 30.398 139.797 29.9437 141.374 28.7168L138.918 25.5593C138.336 26.0124 137.252 26.398 135.346 26.398V30.398ZM141.41 28.6885C143.052 27.3499 143.766 25.4424 143.766 23.298H139.766C139.766 24.5137 139.4 25.1662 138.883 25.5876L141.41 28.6885ZM143.766 23.298C143.766 21.1492 143.001 19.265 141.322 17.9454L138.851 21.0907C139.411 21.5311 139.766 22.1669 139.766 23.298H143.766ZM141.35 17.9676C139.774 16.6837 137.668 16.198 135.346 16.198V20.198C137.184 20.198 138.239 20.5924 138.823 21.0685L141.35 17.9676ZM135.346 16.198H126.286V20.198H135.346V16.198ZM124.286 18.198V28.398H128.286V18.198H124.286ZM136.966 47.798C139.455 47.798 141.691 47.3159 143.336 46.0178C145.07 44.6486 145.806 42.6487 145.806 40.398H141.806C141.806 41.7474 141.403 42.4474 140.857 42.8783C140.221 43.3802 139.037 43.798 136.966 43.798V47.798ZM145.806 40.398C145.806 38.183 145.053 36.2233 143.31 34.8931C141.669 33.641 139.444 33.178 136.966 33.178V37.178C139.048 37.178 140.244 37.5851 140.883 38.0729C141.42 38.4828 141.806 39.1331 141.806 40.398H145.806ZM136.966 33.178H126.286V37.178H136.966V33.178ZM124.286 35.178V45.798H128.286V35.178H124.286ZM126.286 47.798H136.966V43.798H126.286V47.798ZM193.433 28.218L192.148 29.7508L192.154 29.7554L192.16 29.76L193.433 28.218ZM193.013 49.278L194.288 50.8195L194.29 50.8178L193.013 49.278ZM161.333 52.998H159.333V54.998H161.333V52.998ZM161.333 10.998V8.99804H159.333V10.998H161.333ZM170.993 10.998H172.993V8.99804H170.993V10.998ZM170.993 24.798H168.993V26.798H170.993V24.798ZM185.633 43.938L184.328 42.4225L184.318 42.4316L184.307 42.4409L185.633 43.938ZM170.993 31.998V29.998H168.993V31.998H170.993ZM170.993 45.798H168.993V47.798H170.993V45.798ZM202.913 10.998V8.99804H200.913V10.998H202.913ZM212.573 10.998H214.573V8.99804H212.573V10.998ZM212.573 52.998V54.998H214.573V52.998H212.573ZM202.913 52.998H200.913V54.998H202.913V52.998ZM181.673 26.798C186.527 26.798 189.919 27.8816 192.148 29.7508L194.718 26.6853C191.508 23.9945 187.06 22.798 181.673 22.798V26.798ZM192.16 29.76C194.347 31.5669 195.573 34.3111 195.573 38.358H199.573C199.573 33.4449 198.04 29.4292 194.707 26.6761L192.16 29.76ZM195.573 38.358C195.573 42.6576 194.224 45.6767 191.737 47.7383L194.29 50.8178C197.883 47.8394 199.573 43.5785 199.573 38.358H195.573ZM191.739 47.7366C189.219 49.8196 185.495 50.998 180.293 50.998V54.998C186.051 54.998 190.807 53.6965 194.288 50.8195L191.739 47.7366ZM180.293 50.998H161.333V54.998H180.293V50.998ZM163.333 52.998V10.998H159.333V52.998H163.333ZM161.333 12.998H170.993V8.99804H161.333V12.998ZM168.993 10.998V24.798H172.993V10.998H168.993ZM170.993 26.798H181.673V22.798H170.993V26.798ZM179.753 47.798C182.59 47.798 185.083 47.0973 186.959 45.4352L184.307 42.4409C183.384 43.2588 181.956 43.798 179.753 43.798V47.798ZM186.938 45.4536C188.923 43.7442 189.793 41.3275 189.793 38.538H185.793C185.793 40.4686 185.223 41.6519 184.328 42.4225L186.938 45.4536ZM189.793 38.538C189.793 35.928 188.971 33.6479 187.045 32.0815C185.199 30.5794 182.653 29.998 179.753 29.998V33.998C182.214 33.998 183.688 34.5067 184.521 35.1846C185.276 35.7982 185.793 36.788 185.793 38.538H189.793ZM179.753 29.998H170.993V33.998H179.753V29.998ZM168.993 31.998V45.798H172.993V31.998H168.993ZM170.993 47.798H179.753V43.798H170.993V47.798ZM202.913 12.998H212.573V8.99804H202.913V12.998ZM210.573 10.998V52.998H214.573V10.998H210.573ZM212.573 50.998H202.913V54.998H212.573V50.998ZM204.913 52.998V10.998H200.913V52.998H204.913ZM230.592 10.998L232.243 9.86896L231.648 8.99804H230.592V10.998ZM239.292 23.718L237.642 24.8471L239.292 27.2607L240.943 24.8471L239.292 23.718ZM247.993 10.998V8.99804H246.937L246.342 9.86896L247.993 10.998ZM259.393 10.998L261.034 12.14L263.22 8.99804H259.393V10.998ZM245.413 31.098L243.771 29.9561L242.979 31.0938L243.767 32.2344L245.413 31.098ZM260.533 52.998V54.998H264.344L262.178 51.8617L260.533 52.998ZM249.072 52.998L247.436 54.1478L248.033 54.998H249.072V52.998ZM239.292 39.078L240.929 37.9283L239.282 35.5847L237.649 37.9378L239.292 39.078ZM229.633 52.998V54.998H230.679L231.276 54.1383L229.633 52.998ZM218.413 52.998L216.773 51.853L214.576 54.998H218.413V52.998ZM233.413 31.518L235.052 32.6631L235.844 31.5297L235.063 30.3887L233.413 31.518ZM219.372 10.998V8.99804H215.581L217.722 12.1274L219.372 10.998ZM228.942 12.1271L237.642 24.8471L240.943 22.589L232.243 9.86896L228.942 12.1271ZM240.943 24.8471L249.643 12.1271L246.342 9.86896L237.642 22.589L240.943 24.8471ZM247.993 12.998H259.393V8.99804H247.993V12.998ZM257.751 9.85606L243.771 29.9561L247.054 32.24L261.034 12.14L257.751 9.85606ZM243.767 32.2344L258.887 54.1344L262.178 51.8617L247.058 29.9617L243.767 32.2344ZM260.533 50.998H249.072V54.998H260.533V50.998ZM250.709 51.8483L240.929 37.9283L237.656 40.2278L247.436 54.1478L250.709 51.8483ZM237.649 37.9378L227.989 51.8578L231.276 54.1383L240.936 40.2183L237.649 37.9378ZM229.633 50.998H218.413V54.998H229.633V50.998ZM220.052 54.1431L235.052 32.6631L231.773 30.373L216.773 51.853L220.052 54.1431ZM235.063 30.3887L221.023 9.86868L217.722 12.1274L231.762 32.6474L235.063 30.3887ZM219.372 12.998H230.592V8.99804H219.372V12.998ZM273.03 50.898L272.079 52.6577L272.088 52.6622L273.03 50.898ZM264.81 43.158L263.088 44.1748L263.095 44.1871L263.102 44.1993L264.81 43.158ZM264.81 20.898L263.097 19.866L263.093 19.8721L264.81 20.898ZM273.03 13.0981L272.088 11.3339L272.079 11.3384L273.03 13.0981ZM304.83 20.898L303.117 21.9301L303.122 21.9393L304.83 20.898ZM304.83 43.158L306.537 44.1993L306.543 44.1901L304.83 43.158ZM296.61 50.898L297.56 52.6577L296.61 50.898ZM291.57 43.758L292.547 45.5031L292.56 45.4957L292.573 45.4881L291.57 43.758ZM296.25 38.958L294.511 37.9694L294.504 37.9824L294.497 37.9955L296.25 38.958ZM296.25 25.038L294.497 26.0006L294.504 26.0137L294.511 26.0267L296.25 25.038ZM291.57 20.298L290.566 22.0281L290.579 22.0357L290.593 22.0431L291.57 20.298ZM278.13 20.298L279.107 22.0431L279.12 22.0357L279.133 22.0281L278.13 20.298ZM273.39 25.038L271.651 24.0494L271.644 24.0624L271.637 24.0755L273.39 25.038ZM273.39 38.958L271.637 39.9206L271.644 39.9337L271.651 39.9467L273.39 38.958ZM278.13 43.758L277.126 45.4881L277.139 45.4957L277.153 45.5031L278.13 43.758ZM284.85 51.718C280.787 51.718 277.176 50.845 273.972 49.1339L272.088 52.6622C275.924 54.7111 280.192 55.718 284.85 55.718V51.718ZM273.98 49.1384C270.802 47.4215 268.328 45.0854 266.517 42.1168L263.102 44.1993C265.292 47.7907 268.297 50.6146 272.079 52.6577L273.98 49.1384ZM266.532 42.1413C264.766 39.1505 263.87 35.7859 263.87 31.998H259.87C259.87 36.4502 260.933 40.5256 263.088 44.1748L266.532 42.1413ZM263.87 31.998C263.87 28.21 264.766 24.8696 266.527 21.924L263.093 19.8721C260.933 23.4865 259.87 27.5461 259.87 31.998H263.87ZM266.523 21.9301C268.335 18.923 270.808 16.5714 273.98 14.8577L272.079 11.3384C268.291 13.3847 265.285 16.2331 263.097 19.866L266.523 21.9301ZM273.972 14.8622C277.176 13.1511 280.787 12.2781 284.85 12.2781V8.27805C280.192 8.27805 275.924 9.28503 272.088 11.3339L273.972 14.8622ZM284.85 12.2781C288.913 12.2781 292.5 13.1511 295.659 14.8577L297.56 11.3384C293.759 9.28496 289.507 8.27805 284.85 8.27805V12.2781ZM295.659 14.8577C298.831 16.5714 301.305 18.923 303.117 21.9301L306.543 19.866C304.355 16.2331 301.348 13.3847 297.56 11.3384L295.659 14.8577ZM303.122 21.9393C304.917 24.8828 305.83 28.2177 305.83 31.998H309.83C309.83 27.5384 308.743 23.4733 306.537 19.8568L303.122 21.9393ZM305.83 31.998C305.83 35.7782 304.917 39.1374 303.117 42.126L306.543 44.1901C308.743 40.5387 309.83 36.4579 309.83 31.998H305.83ZM303.122 42.1168C301.312 45.0854 298.837 47.4215 295.659 49.1384L297.56 52.6577C301.342 50.6146 304.348 47.7907 306.537 44.1993L303.122 42.1168ZM295.659 49.1384C292.5 50.845 288.913 51.718 284.85 51.718V55.718C289.507 55.718 293.759 54.7111 297.56 52.6577L295.659 49.1384ZM284.85 47.438C287.643 47.438 290.224 46.8038 292.547 45.5031L290.593 42.013C288.915 42.9523 287.017 43.438 284.85 43.438V47.438ZM292.573 45.4881C294.891 44.1441 296.709 42.2777 298.003 39.9206L294.497 37.9955C293.551 39.7184 292.249 41.052 290.566 42.028L292.573 45.4881ZM297.988 39.9467C299.338 37.5737 299.99 34.9064 299.99 31.998H295.99C295.99 34.2897 295.482 36.2624 294.511 37.9694L297.988 39.9467ZM299.99 31.998C299.99 29.0897 299.338 26.4224 297.988 24.0494L294.511 26.0267C295.482 27.7337 295.99 29.7064 295.99 31.998H299.99ZM298.003 24.0755C296.706 21.7125 294.879 19.859 292.547 18.553L290.593 22.0431C292.261 22.9771 293.554 24.2836 294.497 26.0006L298.003 24.0755ZM292.573 18.568C290.246 17.2183 287.656 16.5581 284.85 16.5581V20.558C287.004 20.558 288.893 21.0578 290.566 22.0281L292.573 18.568ZM284.85 16.5581C282.044 16.5581 279.453 17.2183 277.126 18.568L279.133 22.0281C280.806 21.0578 282.696 20.558 284.85 20.558V16.5581ZM277.153 18.553C274.827 19.8555 272.987 21.7006 271.651 24.0494L275.128 26.0266C276.113 24.2955 277.433 22.9806 279.107 22.0431L277.153 18.553ZM271.637 24.0755C270.336 26.4438 269.71 29.1017 269.71 31.998H273.71C273.71 29.6944 274.203 27.7123 275.143 26.0006L271.637 24.0755ZM269.71 31.998C269.71 34.8944 270.336 37.5523 271.637 39.9206L275.143 37.9955C274.203 36.2838 273.71 34.3017 273.71 31.998H269.71ZM271.651 39.9467C272.984 42.2897 274.815 44.1476 277.126 45.4881L279.133 42.028C277.444 41.0485 276.116 39.7064 275.128 37.9694L271.651 39.9467ZM277.153 45.5031C279.475 46.8038 282.057 47.438 284.85 47.438V43.438C282.683 43.438 280.784 42.9523 279.107 42.013L277.153 45.5031ZM357.466 45.078H359.466V43.078H357.466V45.078ZM357.466 61.698V63.698H359.466V61.698H357.466ZM348.466 61.698H346.466V63.698H348.466V61.698ZM348.466 52.998H350.466V50.998H348.466V52.998ZM318.826 52.998V50.998H316.826V52.998H318.826ZM318.826 61.698V63.698H320.826V61.698H318.826ZM309.826 61.698L307.826 61.6908L307.819 63.698H309.826V61.698ZM309.886 45.078V43.078H307.893L307.886 45.0708L309.886 45.078ZM311.566 45.078V47.078H311.598L311.629 47.077L311.566 45.078ZM316.906 39.558L314.984 39.003L316.906 39.558ZM318.826 24.138L316.827 24.065V24.0662L318.826 24.138ZM319.306 10.998V8.99804H317.378L317.307 10.925L319.306 10.998ZM351.586 10.998H353.586V8.99804H351.586V10.998ZM351.586 45.078H349.586V47.078H351.586V45.078ZM327.406 25.038L329.404 25.118L329.405 25.1074V25.0968L327.406 25.038ZM326.146 37.638L328.11 38.0123L328.111 38.008L326.146 37.638ZM323.206 45.078L321.663 43.8053L318.963 47.078H323.206V45.078ZM341.986 45.078V47.078H343.986V45.078H341.986ZM341.986 18.9181H343.986V16.9181H341.986V18.9181ZM327.586 18.9181V16.9181H325.644L325.587 18.8593L327.586 18.9181ZM355.466 45.078V61.698H359.466V45.078H355.466ZM357.466 59.698H348.466V63.698H357.466V59.698ZM350.466 61.698V52.998H346.466V61.698H350.466ZM348.466 50.998H318.826V54.998H348.466V50.998ZM316.826 52.998V61.698H320.826V52.998H316.826ZM318.826 59.698H309.826V63.698H318.826V59.698ZM311.826 61.7053L311.886 45.0853L307.886 45.0708L307.826 61.6908L311.826 61.7053ZM309.886 47.078H311.566V43.078H309.886V47.078ZM311.629 47.077C313.418 47.0203 314.983 46.3159 316.228 45.0286C317.426 43.7902 318.256 42.0919 318.827 40.1131L314.984 39.003C314.516 40.6242 313.935 41.6459 313.353 42.2475C312.819 42.8002 312.234 43.0558 311.502 43.0791L311.629 47.077ZM318.827 40.1131C319.935 36.2789 320.582 30.9472 320.824 24.2099L316.827 24.0662C316.589 30.6888 315.957 35.6372 314.984 39.003L318.827 40.1131ZM320.824 24.2111L321.304 11.0711L317.307 10.925L316.827 24.065L320.824 24.2111ZM319.306 12.998H351.586V8.99804H319.306V12.998ZM349.586 10.998V45.078H353.586V10.998H349.586ZM351.586 47.078H357.466V43.078H351.586V47.078ZM325.407 24.9581C325.21 29.8997 324.796 33.9957 324.18 37.2681L328.111 38.008C328.775 34.4804 329.202 30.1764 329.404 25.118L325.407 24.9581ZM324.181 37.2638C323.568 40.4837 322.673 42.5813 321.663 43.8053L324.749 46.3508C326.379 44.3748 327.444 41.5124 328.11 38.0123L324.181 37.2638ZM323.206 47.078H341.986V43.078H323.206V47.078ZM343.986 45.078V18.9181H339.986V45.078H343.986ZM341.986 16.9181H327.586V20.918H341.986V16.9181ZM325.587 18.8593L325.407 24.9792L329.405 25.0968L329.585 18.9768L325.587 18.8593ZM397.549 10.998H399.549V8.99804H397.549V10.998ZM397.549 52.998V54.998H399.549V52.998H397.549ZM387.949 52.998H385.949V54.998H387.949V52.998ZM387.949 41.838H389.949V39.838H387.949V41.838ZM379.069 41.838V39.838H377.999L377.405 40.7286L379.069 41.838ZM371.629 52.998V54.998H372.699L373.293 54.1074L371.629 52.998ZM361.369 52.998L359.724 51.86L357.553 54.998H361.369V52.998ZM370.129 40.338L371.774 41.4761L373.191 39.4282L370.885 38.4865L370.129 40.338ZM363.589 35.118L361.908 36.201L361.912 36.2076L361.916 36.2141L363.589 35.118ZM363.529 18.3181L365.215 19.3937L365.219 19.3872L365.223 19.3806L363.529 18.3181ZM369.829 12.9181L370.659 14.7379L370.67 14.7328L370.681 14.7277L369.829 12.9181ZM373.309 20.838L372.001 19.3253L371.99 19.3342L371.98 19.3432L373.309 20.838ZM373.249 32.178L371.877 33.6332L373.249 32.178ZM387.949 34.158V36.158H389.949V34.158H387.949ZM387.949 18.9181H389.949V16.9181H387.949V18.9181ZM395.549 10.998V52.998H399.549V10.998H395.549ZM397.549 50.998H387.949V54.998H397.549V50.998ZM389.949 52.998V41.838H385.949V52.998H389.949ZM387.949 39.838H379.069V43.838H387.949V39.838ZM377.405 40.7286L369.965 51.8886L373.293 54.1074L380.733 42.9474L377.405 40.7286ZM371.629 50.998H361.369V54.998H371.629V50.998ZM363.014 54.1361L371.774 41.4761L368.484 39.2L359.724 51.86L363.014 54.1361ZM370.885 38.4865C368.379 37.4628 366.537 35.9675 365.262 34.022L361.916 36.2141C363.682 38.9086 366.199 40.8933 369.373 42.1896L370.885 38.4865ZM365.271 34.0351C363.992 32.0493 363.309 29.6199 363.309 26.658H359.309C359.309 30.2562 360.147 33.4668 361.908 36.201L365.271 34.0351ZM363.309 26.658C363.309 23.7305 363.974 21.339 365.215 19.3937L361.843 17.2424C360.124 19.9371 359.309 23.1056 359.309 26.658H363.309ZM365.223 19.3806C366.48 17.3767 368.268 15.8279 370.659 14.7379L368.999 11.0982C365.951 12.4882 363.538 14.5394 361.835 17.2555L365.223 19.3806ZM370.681 14.7277C373.081 13.5979 375.979 12.998 379.429 12.998V8.99804C375.519 8.99804 372.017 9.67816 368.977 11.1084L370.681 14.7277ZM379.429 12.998H397.549V8.99804H379.429V12.998ZM379.669 16.9181C376.624 16.9181 373.969 17.6232 372.001 19.3253L374.617 22.3508C375.609 21.4929 377.194 20.918 379.669 20.918V16.9181ZM371.98 19.3432C369.991 21.1112 369.149 23.6333 369.149 26.538H373.149C373.149 24.4028 373.747 23.1249 374.638 22.3329L371.98 19.3432ZM369.149 26.538C369.149 29.3722 369.975 31.8398 371.877 33.6332L374.621 30.7229C373.723 29.8763 373.149 28.5839 373.149 26.538H369.149ZM371.877 33.6332C373.778 35.4253 376.41 36.158 379.429 36.158V32.158C377.008 32.158 375.52 31.5708 374.621 30.7229L371.877 33.6332ZM379.429 36.158H387.949V32.158H379.429V36.158ZM389.949 34.158V18.9181H385.949V34.158H389.949ZM387.949 16.9181H379.669V20.918H387.949V16.9181ZM425.064 10.998V8.99804H423.064V10.998H425.064ZM434.724 10.998H436.724V8.99804H434.724V10.998ZM434.724 38.358H432.724V44.4732L436.337 39.5399L434.724 38.358ZM454.764 10.998V8.99804H453.75L453.15 9.81624L454.764 10.998ZM463.884 10.998H465.884V8.99804H463.884V10.998ZM463.884 52.998V54.998H465.884V52.998H463.884ZM454.284 52.998H452.284V54.998H454.284V52.998ZM454.284 25.698H456.284V19.5937L452.672 24.5146L454.284 25.698ZM434.244 52.998V54.998H435.257L435.856 54.1815L434.244 52.998ZM425.064 52.998H423.064V54.998H425.064V52.998ZM425.064 12.998H434.724V8.99804H425.064V12.998ZM432.724 10.998V38.358H436.724V10.998H432.724ZM436.337 39.5399L456.377 12.1799L453.15 9.81624L433.11 37.1762L436.337 39.5399ZM454.764 12.998H463.884V8.99804H454.764V12.998ZM461.884 10.998V52.998H465.884V10.998H461.884ZM463.884 50.998H454.284V54.998H463.884V50.998ZM456.284 52.998V25.698H452.284V52.998H456.284ZM452.672 24.5146L432.632 51.8146L435.856 54.1815L455.896 26.8815L452.672 24.5146ZM434.244 50.998H425.064V54.998H434.244V50.998ZM427.064 52.998V10.998H423.064V52.998H427.064ZM498.221 31.098L497.405 29.272L492.778 31.3394L497.57 32.9891L498.221 31.098ZM503.921 35.058L502.325 36.2637L502.34 36.2836L502.356 36.3031L503.921 35.058ZM496.661 52.218L496.005 50.3287L495.997 50.3316L496.661 52.218ZM478.661 52.638L478.17 54.5767L478.176 54.5783L478.661 52.638ZM470.561 49.338L468.724 48.5464L468.021 50.1795L469.56 51.0695L470.561 49.338ZM473.561 42.378L474.601 40.6697L472.635 39.4732L471.724 41.5864L473.561 42.378ZM479.621 44.958L479.095 46.8876L479.115 46.8932L479.136 46.8983L479.621 44.958ZM493.301 44.238L492.349 42.4795L492.341 42.4837L492.333 42.488L493.301 44.238ZM494.201 36.318L493.141 38.014L493.153 38.0213L493.164 38.0284L494.201 36.318ZM478.661 35.118H476.661V37.118H478.661V35.118ZM478.661 27.798V25.798H476.661V27.798H478.661ZM492.761 26.598L491.599 24.9706L491.585 24.9806L491.571 24.9909L492.761 26.598ZM492.041 19.4581L491.025 21.1808L491.035 21.1864L491.044 21.1919L492.041 19.4581ZM480.281 18.8581L480.757 20.8006L480.775 20.7961L480.794 20.7912L480.281 18.8581ZM474.701 21.078L472.837 21.8029L473.676 23.9607L475.689 22.817L474.701 21.078ZM471.761 13.518L470.847 11.7389L469.244 12.5625L469.897 14.2429L471.761 13.518ZM495.221 11.538L495.878 9.64905L495.221 11.538ZM501.821 15.738L503.314 14.4073L501.821 15.738ZM497.57 32.9891C499.69 33.7189 501.238 34.825 502.325 36.2637L505.517 33.8524C503.884 31.6911 501.632 30.1572 498.872 29.207L497.57 32.9891ZM502.356 36.3031C503.46 37.6908 504.021 39.3062 504.021 41.238H508.021C508.021 38.4499 507.182 35.9453 505.486 33.813L502.356 36.3031ZM504.021 41.238C504.021 43.3147 503.357 45.0582 502.01 46.5654L504.992 49.2307C507.006 46.9779 508.021 44.2814 508.021 41.238H504.021ZM502.01 46.5654C500.599 48.1438 498.631 49.417 496.005 50.3287L497.317 54.1074C500.451 53.0191 503.043 51.4123 504.992 49.2307L502.01 46.5654ZM495.997 50.3316C493.396 51.2474 490.504 51.718 487.301 51.718V55.718C490.898 55.718 494.246 55.1887 497.325 54.1045L495.997 50.3316ZM487.301 51.718C484.59 51.718 481.872 51.3793 479.146 50.6978L478.176 54.5783C481.21 55.3368 484.253 55.718 487.301 55.718V51.718ZM479.153 50.6994C476.493 50.0251 473.964 48.9952 471.562 47.6066L469.56 51.0695C472.278 52.6409 475.149 53.811 478.17 54.5767L479.153 50.6994ZM472.398 50.1297L475.398 43.1697L471.724 41.5864L468.724 48.5464L472.398 50.1297ZM472.521 44.0864C474.53 45.3094 476.725 46.2412 479.095 46.8876L480.147 43.0285C478.117 42.4749 476.272 41.6867 474.601 40.6697L472.521 44.0864ZM479.136 46.8983C481.521 47.4945 483.864 47.798 486.161 47.798V43.798C484.218 43.798 482.202 43.5416 480.106 43.0178L479.136 46.8983ZM486.161 47.798C489.269 47.798 492.009 47.2384 494.269 45.9881L492.333 42.488C490.833 43.3176 488.813 43.798 486.161 43.798V47.798ZM494.254 45.9966C496.693 44.6752 498.181 42.6049 498.181 39.858H494.181C494.181 40.8712 493.749 41.7209 492.349 42.4795L494.254 45.9966ZM498.181 39.858C498.181 37.6079 497.164 35.7749 495.238 34.6077L493.164 38.0284C493.879 38.4612 494.181 38.9882 494.181 39.858H498.181ZM495.261 34.622C493.545 33.5493 491.366 33.118 488.921 33.118V37.118C490.956 37.118 492.297 37.4868 493.141 38.014L495.261 34.622ZM488.921 33.118H478.661V37.118H488.921V33.118ZM480.661 35.118V27.798H476.661V35.118H480.661ZM478.661 29.798H488.201V25.798H478.661V29.798ZM488.201 29.798C490.401 29.798 492.401 29.3534 493.952 28.2052L491.571 24.9909C490.961 25.4427 489.921 25.798 488.201 25.798V29.798ZM493.924 28.2255C495.58 27.0425 496.441 25.3308 496.441 23.298H492.441C492.441 24.0653 492.182 24.5536 491.599 24.9706L493.924 28.2255ZM496.441 23.298C496.441 20.8403 495.165 18.9471 493.038 17.7242L491.044 21.1919C492.117 21.809 492.441 22.4758 492.441 23.298H496.441ZM493.057 17.7353C491.096 16.5788 488.692 16.078 485.981 16.078V20.078C488.23 20.078 489.866 20.4973 491.025 21.1808L493.057 17.7353ZM485.981 16.078C483.951 16.078 481.879 16.365 479.768 16.9249L480.794 20.7912C482.603 20.3111 484.331 20.078 485.981 20.078V16.078ZM479.805 16.9155C477.665 17.4395 475.633 18.2482 473.713 19.3391L475.689 22.817C477.289 21.9079 478.977 21.2366 480.757 20.8006L479.805 16.9155ZM476.565 20.3532L473.625 12.7932L469.897 14.2429L472.837 21.8029L476.565 20.3532ZM472.675 15.2972C476.822 13.1673 481.308 12.0981 486.161 12.0981V8.09805C480.694 8.09805 475.58 9.30876 470.847 11.7389L472.675 15.2972ZM486.161 12.0981C489.245 12.0981 492.039 12.5489 494.564 13.427L495.878 9.64905C492.883 8.60716 489.638 8.09805 486.161 8.09805V12.0981ZM494.564 13.427C497.062 14.296 498.953 15.5264 500.328 17.0688L503.314 14.4073C501.409 12.2697 498.9 10.7001 495.878 9.64905L494.564 13.427ZM500.328 17.0688C501.645 18.5465 502.281 20.2143 502.281 22.158H506.281C506.281 19.2218 505.277 16.6096 503.314 14.4073L500.328 17.0688ZM502.281 22.158C502.281 23.7745 501.852 25.1527 501.017 26.3596L504.305 28.6365C505.63 26.7233 506.281 24.5416 506.281 22.158H502.281ZM501.017 26.3596C500.162 27.5935 498.981 28.568 497.405 29.272L499.037 32.9241C501.221 31.9481 503 30.5226 504.305 28.6365L501.017 26.3596ZM574.028 45.078H576.028V43.078H574.028V45.078ZM574.028 61.698V63.698H576.028V61.698H574.028ZM565.028 61.698H563.028V63.698H565.028V61.698ZM565.028 52.998H567.028V50.998H565.028V52.998ZM535.388 52.998V50.998H533.388V52.998H535.388ZM535.388 61.698V63.698H537.388V61.698H535.388ZM526.388 61.698L524.388 61.6908L524.381 63.698H526.388V61.698ZM526.448 45.078V43.078H524.456L524.448 45.0708L526.448 45.078ZM528.128 45.078V47.078H528.16L528.192 47.077L528.128 45.078ZM533.468 39.558L531.547 39.003L533.468 39.558ZM535.388 24.138L533.39 24.065V24.0662L535.388 24.138ZM535.868 10.998V8.99804H533.94L533.87 10.925L535.868 10.998ZM568.148 10.998H570.148V8.99804H568.148V10.998ZM568.148 45.078H566.148V47.078H568.148V45.078ZM543.968 25.038L545.967 25.118V25.1074V25.0968L543.968 25.038ZM542.708 37.638L544.673 38.0123L544.674 38.008L542.708 37.638ZM539.768 45.078L538.226 43.8053L535.526 47.078H539.768V45.078ZM558.548 45.078V47.078H560.548V45.078H558.548ZM558.548 18.9181H560.548V16.9181H558.548V18.9181ZM544.148 18.9181V16.9181H542.206L542.149 18.8593L544.148 18.9181ZM572.028 45.078V61.698H576.028V45.078H572.028ZM574.028 59.698H565.028V63.698H574.028V59.698ZM567.028 61.698V52.998H563.028V61.698H567.028ZM565.028 50.998H535.388V54.998H565.028V50.998ZM533.388 52.998V61.698H537.388V52.998H533.388ZM535.388 59.698H526.388V63.698H535.388V59.698ZM528.388 61.7053L528.448 45.0853L524.448 45.0708L524.388 61.6908L528.388 61.7053ZM526.448 47.078H528.128V43.078H526.448V47.078ZM528.192 47.077C529.98 47.0203 531.545 46.3159 532.791 45.0286C533.989 43.7902 534.818 42.0919 535.39 40.1131L531.547 39.003C531.078 40.6242 530.498 41.6459 529.916 42.2475C529.381 42.8002 528.796 43.0558 528.065 43.0791L528.192 47.077ZM535.39 40.1131C536.497 36.2789 537.145 30.9472 537.387 24.2099L533.39 24.0662C533.152 30.6888 532.519 35.6372 531.547 39.003L535.39 40.1131ZM537.387 24.2111L537.867 11.0711L533.87 10.925L533.39 24.065L537.387 24.2111ZM535.868 12.998H568.148V8.99804H535.868V12.998ZM566.148 10.998V45.078H570.148V10.998H566.148ZM568.148 47.078H574.028V43.078H568.148V47.078ZM541.97 24.9581C541.772 29.8997 541.359 33.9957 540.743 37.2681L544.674 38.008C545.338 34.4804 545.764 30.1764 545.967 25.118L541.97 24.9581ZM540.744 37.2638C540.13 40.4837 539.235 42.5813 538.226 43.8053L541.311 46.3508C542.941 44.3748 544.006 41.5124 544.673 38.0123L540.744 37.2638ZM539.768 47.078H558.548V43.078H539.768V47.078ZM560.548 45.078V18.9181H556.548V45.078H560.548ZM558.548 16.9181H544.148V20.918H558.548V16.9181ZM542.149 18.8593L541.969 24.9792L545.967 25.0968L546.147 18.9768L542.149 18.8593ZM588.792 50.898L587.841 52.6577L587.849 52.6622L588.792 50.898ZM580.572 43.158L578.849 44.1748L578.857 44.1871L578.864 44.1993L580.572 43.158ZM580.572 20.898L578.858 19.866L578.855 19.8721L580.572 20.898ZM588.792 13.0981L587.849 11.3339L587.841 11.3384L588.792 13.0981ZM620.592 20.898L618.878 21.9301L618.884 21.9393L620.592 20.898ZM620.592 43.158L622.299 44.1993L622.305 44.1901L620.592 43.158ZM612.372 50.898L613.322 52.6577L612.372 50.898ZM607.332 43.758L608.309 45.5031L608.322 45.4957L608.335 45.4881L607.332 43.758ZM612.012 38.958L610.273 37.9694L610.266 37.9824L610.258 37.9955L612.012 38.958ZM612.012 25.038L610.258 26.0006L610.266 26.0137L610.273 26.0267L612.012 25.038ZM607.332 20.298L606.328 22.0281L606.341 22.0357L606.354 22.0431L607.332 20.298ZM593.892 20.298L594.869 22.0431L594.882 22.0357L594.895 22.0281L593.892 20.298ZM589.152 25.038L587.413 24.0494L587.406 24.0624L587.398 24.0755L589.152 25.038ZM589.152 38.958L587.398 39.9206L587.406 39.9337L587.413 39.9467L589.152 38.958ZM593.892 43.758L592.888 45.4881L592.901 45.4957L592.914 45.5031L593.892 43.758ZM600.612 51.718C596.549 51.718 592.938 50.845 589.734 49.1339L587.849 52.6622C591.686 54.7111 595.954 55.718 600.612 55.718V51.718ZM589.742 49.1384C586.564 47.4215 584.089 45.0854 582.279 42.1168L578.864 44.1993C581.054 47.7907 584.059 50.6146 587.841 52.6577L589.742 49.1384ZM582.294 42.1413C580.528 39.1505 579.632 35.7859 579.632 31.998H575.632C575.632 36.4502 576.695 40.5256 578.849 44.1748L582.294 42.1413ZM579.632 31.998C579.632 28.21 580.528 24.8696 582.288 21.924L578.855 19.8721C576.695 23.4865 575.632 27.5461 575.632 31.998H579.632ZM582.285 21.9301C584.096 18.923 586.57 16.5714 589.742 14.8577L587.841 11.3384C584.053 13.3847 581.047 16.2331 578.858 19.866L582.285 21.9301ZM589.734 14.8622C592.938 13.1511 596.549 12.2781 600.612 12.2781V8.27805C595.954 8.27805 591.686 9.28503 587.849 11.3339L589.734 14.8622ZM600.612 12.2781C604.674 12.2781 608.262 13.1511 611.421 14.8577L613.322 11.3384C609.521 9.28496 605.269 8.27805 600.612 8.27805V12.2781ZM611.421 14.8577C614.593 16.5714 617.067 18.923 618.878 21.9301L622.305 19.866C620.116 16.2331 617.11 13.3847 613.322 11.3384L611.421 14.8577ZM618.884 21.9393C620.679 24.8828 621.592 28.2177 621.592 31.998H625.592C625.592 27.5384 624.504 23.4733 622.299 19.8568L618.884 21.9393ZM621.592 31.998C621.592 35.7782 620.679 39.1374 618.878 42.126L622.305 44.1901C624.504 40.5387 625.592 36.4579 625.592 31.998H621.592ZM618.884 42.1168C617.074 45.0854 614.599 47.4215 611.421 49.1384L613.322 52.6577C617.104 50.6146 620.109 47.7907 622.299 44.1993L618.884 42.1168ZM611.421 49.1384C608.262 50.845 604.674 51.718 600.612 51.718V55.718C605.269 55.718 609.521 54.7111 613.322 52.6577L611.421 49.1384ZM600.612 47.438C603.405 47.438 605.986 46.8038 608.309 45.5031L606.354 42.013C604.677 42.9523 602.778 43.438 600.612 43.438V47.438ZM608.335 45.4881C610.652 44.1441 612.471 42.2777 613.765 39.9206L610.258 37.9955C609.312 39.7184 608.011 41.052 606.328 42.028L608.335 45.4881ZM613.75 39.9467C615.099 37.5737 615.752 34.9064 615.752 31.998H611.752C611.752 34.2897 611.244 36.2624 610.273 37.9694L613.75 39.9467ZM615.752 31.998C615.752 29.0897 615.099 26.4224 613.75 24.0494L610.273 26.0267C611.244 27.7337 611.752 29.7064 611.752 31.998H615.752ZM613.765 24.0755C612.467 21.7125 610.641 19.859 608.309 18.553L606.354 22.0431C608.022 22.9771 609.316 24.2836 610.258 26.0006L613.765 24.0755ZM608.335 18.568C606.008 17.2183 603.417 16.5581 600.612 16.5581V20.558C602.766 20.558 604.655 21.0578 606.328 22.0281L608.335 18.568ZM600.612 16.5581C597.806 16.5581 595.215 17.2183 592.888 18.568L594.895 22.0281C596.568 21.0578 598.458 20.558 600.612 20.558V16.5581ZM592.914 18.553C590.589 19.8555 588.749 21.7006 587.413 24.0494L590.89 26.0266C591.875 24.2955 593.195 22.9806 594.869 22.0431L592.914 18.553ZM587.398 24.0755C586.098 26.4438 585.472 29.1017 585.472 31.998H589.472C589.472 29.6944 589.965 27.7123 590.905 26.0006L587.398 24.0755ZM585.472 31.998C585.472 34.8944 586.098 37.5523 587.398 39.9206L590.905 37.9955C589.965 36.2838 589.472 34.3017 589.472 31.998H585.472ZM587.413 39.9467C588.745 42.2897 590.577 44.1476 592.888 45.4881L594.895 42.028C593.206 41.0485 591.878 39.7064 590.89 37.9694L587.413 39.9467ZM592.914 45.5031C595.237 46.8038 597.818 47.438 600.612 47.438V43.438C598.445 43.438 596.546 42.9523 594.869 42.013L592.914 45.5031ZM669.299 52.998L667.299 53.0028L667.304 54.998H669.299V52.998ZM669.239 27.858L671.239 27.8533L671.222 20.6362L667.522 26.8327L669.239 27.858ZM656.879 48.558V50.558H658.015L658.597 49.5834L656.879 48.558ZM652.559 48.558L650.853 49.6012L651.438 50.558H652.559V48.558ZM640.199 28.338L641.906 27.2949L638.199 21.2315V28.338H640.199ZM640.199 52.998V54.998H642.199V52.998H640.199ZM631.079 52.998H629.079V54.998H631.079V52.998ZM631.079 10.998V8.99804H629.079V10.998H631.079ZM639.119 10.998L640.833 9.96616L640.25 8.99804H639.119V10.998ZM654.839 37.098L653.126 38.1299L654.853 40.9964L656.56 38.1183L654.839 37.098ZM670.319 10.998V8.99804H669.18L668.599 9.97779L670.319 10.998ZM678.359 10.998L680.359 10.9952L680.357 8.99804H678.359V10.998ZM678.419 52.998V54.998H680.422L680.419 52.9952L678.419 52.998ZM671.299 52.9933L671.239 27.8533L667.239 27.8628L667.299 53.0028L671.299 52.9933ZM667.522 26.8327L655.162 47.5327L658.597 49.5834L670.957 28.8834L667.522 26.8327ZM656.879 46.558H652.559V50.558H656.879V46.558ZM654.266 47.5149L641.906 27.2949L638.493 29.3811L650.853 49.6012L654.266 47.5149ZM638.199 28.338V52.998H642.199V28.338H638.199ZM640.199 50.998H631.079V54.998H640.199V50.998ZM633.079 52.998V10.998H629.079V52.998H633.079ZM631.079 12.998H639.119V8.99804H631.079V12.998ZM637.406 12.0299L653.126 38.1299L656.553 36.0662L640.833 9.96616L637.406 12.0299ZM656.56 38.1183L672.04 12.0183L668.599 9.97779L653.119 36.0778L656.56 38.1183ZM670.319 12.998H678.359V8.99804H670.319V12.998ZM676.359 11.0009L676.419 53.0009L680.419 52.9952L680.359 10.9952L676.359 11.0009ZM678.419 50.998H669.299V54.998H678.419V50.998ZM717.293 43.998L719.141 43.2341L718.63 41.998H717.293V43.998ZM697.793 43.998V41.998H696.455L695.944 43.2341L697.793 43.998ZM694.073 52.998V54.998H695.41L695.921 53.762L694.073 52.998ZM684.113 52.998L682.286 52.1838L681.032 54.998H684.113V52.998ZM702.833 10.998V8.99804H701.535L701.006 10.1838L702.833 10.998ZM712.433 10.998L714.259 10.1817L713.729 8.99804H712.433V10.998ZM731.213 52.998V54.998H734.298L733.039 52.1817L731.213 52.998ZM721.013 52.998L719.164 53.762L719.675 54.998H721.013V52.998ZM714.233 36.618V38.618H717.226L716.081 35.8527L714.233 36.618ZM707.573 20.538L709.421 19.7727L707.573 15.3114L705.725 19.7727L707.573 20.538ZM700.913 36.618L699.065 35.8527L697.92 38.618H700.913V36.618ZM717.293 41.998H697.793V45.998H717.293V41.998ZM695.944 43.2341L692.224 52.2341L695.921 53.762L699.641 44.762L695.944 43.2341ZM694.073 50.998H684.113V54.998H694.073V50.998ZM685.94 53.8123L704.66 11.8123L701.006 10.1838L682.286 52.1838L685.94 53.8123ZM702.833 12.998H712.433V8.99804H702.833V12.998ZM710.607 11.8144L729.387 53.8144L733.039 52.1817L714.259 10.1817L710.607 11.8144ZM731.213 50.998H721.013V54.998H731.213V50.998ZM722.861 52.2341L719.141 43.2341L715.444 44.762L719.164 53.762L722.861 52.2341ZM716.081 35.8527L709.421 19.7727L705.725 21.3034L712.385 37.3834L716.081 35.8527ZM705.725 19.7727L699.065 35.8527L702.761 37.3834L709.421 21.3034L705.725 19.7727ZM700.913 38.618H714.233V34.618H700.913V38.618Z" fill="#A8AFC0"/>
</g>
<defs>
<clipPath id="clip0_60_2">
<rect width="732" height="62" fill="white"/>
</clipPath>
</defs>
</svg>
